<svg width="337" height="171" viewBox="0 0 337 171" fill="none" xmlns="http://www.w3.org/2000/svg">
<path d="M13 0.75C6.23451 0.75 0.75 6.23452 0.75 13V158C0.75 164.765 6.23451 170.25 13 170.25H324C330.765 170.25 336.25 164.765 336.25 158V13C336.25 6.23451 330.765 0.75 324 0.75H13Z" fill="white"/>
<path d="M13 0.75C6.23451 0.75 0.75 6.23452 0.75 13V158C0.75 164.765 6.23451 170.25 13 170.25H324C330.765 170.25 336.25 164.765 336.25 158V13C336.25 6.23451 330.765 0.75 324 0.75H13Z" stroke="#B8B8B8" stroke-width="0.5"/>
<rect x="9" y="9" width="84" height="20" rx="4" fill="#F7F7F7"/>
<rect x="13" y="11" width="16" height="16" rx="2" fill="white"/>
<path d="M15.9169 25L14.9836 24.0667L21.8169 17.2333C21.6169 16.7667 21.5891 16.2389 21.7336 15.65C21.878 15.0611 22.1947 14.5333 22.6836 14.0667C23.2725 13.4778 23.928 13.1333 24.6502 13.0333C25.3725 12.9333 25.9614 13.1111 26.4169 13.5667C26.8725 14.0222 27.0502 14.6111 26.9502 15.3333C26.8502 16.0556 26.5058 16.7111 25.9169 17.3C25.4502 17.7889 24.9225 18.1056 24.3336 18.25C23.7447 18.3944 23.2169 18.3667 22.7502 18.1667L21.9169 19L26.9836 24.0667L26.0502 25L20.9836 19.9667L15.9169 25ZM17.8836 19.3L15.8836 17.3C15.2836 16.7 14.9836 15.9833 14.9836 15.15C14.9836 14.3167 15.2836 13.6 15.8836 13L20.0169 17.1667L17.8836 19.3Z" fill="#5F69C7"/>
<path d="M40.822 23.5L38.176 20.11H37.966C37.594 20.11 37.178 20.094 36.718 20.062V23.5H35.02V14.848C35.452 14.748 35.928 14.668 36.448 14.608C36.968 14.548 37.478 14.518 37.978 14.518C39.33 14.518 40.336 14.742 40.996 15.19C41.66 15.634 41.992 16.336 41.992 17.296C41.992 17.956 41.814 18.504 41.458 18.94C41.102 19.372 40.582 19.684 39.898 19.876L42.754 23.5H40.822ZM36.718 18.796C37.174 18.844 37.614 18.868 38.038 18.868C38.85 18.868 39.442 18.744 39.814 18.496C40.19 18.244 40.378 17.848 40.378 17.308C40.378 16.932 40.298 16.63 40.138 16.402C39.982 16.174 39.738 16.008 39.406 15.904C39.078 15.8 38.648 15.748 38.116 15.748C37.652 15.748 37.186 15.792 36.718 15.88V18.796ZM46.1671 16.852C46.9151 16.852 47.5191 16.938 47.9791 17.11C48.4431 17.282 48.7871 17.568 49.0111 17.968C49.2391 18.368 49.3531 18.914 49.3531 19.606V23.5H47.9431L47.8291 22.84H47.7451C47.5051 23.088 47.2051 23.28 46.8451 23.416C46.4851 23.548 46.0991 23.614 45.6871 23.614C45.1871 23.614 44.7611 23.536 44.4091 23.38C44.0611 23.224 43.7971 23.006 43.6171 22.726C43.4371 22.446 43.3471 22.12 43.3471 21.748C43.3471 21.148 43.5771 20.684 44.0371 20.356C44.4971 20.024 45.2251 19.822 46.2211 19.75L47.6971 19.612V19.48C47.6971 19.124 47.6351 18.848 47.5111 18.652C47.3871 18.452 47.1951 18.31 46.9351 18.226C46.6791 18.142 46.3331 18.1 45.8971 18.1C45.5931 18.1 45.2611 18.126 44.9011 18.178C44.5451 18.226 44.2071 18.3 43.8871 18.4V17.17C44.2231 17.066 44.5931 16.988 44.9971 16.936C45.4051 16.88 45.7951 16.852 46.1671 16.852ZM46.1851 22.48C46.4611 22.48 46.7291 22.434 46.9891 22.342C47.2491 22.25 47.4851 22.112 47.6971 21.928V20.566L46.3591 20.686C45.8831 20.734 45.5431 20.834 45.3391 20.986C45.1351 21.134 45.0331 21.344 45.0331 21.616C45.0331 21.888 45.1291 22.1 45.3211 22.252C45.5131 22.404 45.8011 22.48 46.1851 22.48ZM50.0513 25.588C50.4313 25.136 50.7033 24.664 50.8673 24.172C51.0313 23.684 51.1133 23.112 51.1133 22.456V16.954H52.8053V22.396C52.8053 23.156 52.6733 23.846 52.4093 24.466C52.1493 25.09 51.7193 25.706 51.1193 26.314L50.0513 25.588ZM51.9233 15.802C51.5713 15.802 51.3053 15.73 51.1253 15.586C50.9493 15.438 50.8613 15.224 50.8613 14.944C50.8613 14.664 50.9493 14.45 51.1253 14.302C51.3053 14.154 51.5713 14.08 51.9233 14.08C52.2753 14.08 52.5393 14.154 52.7153 14.302C52.8953 14.45 52.9853 14.664 52.9853 14.944C52.9853 15.224 52.8953 15.438 52.7153 15.586C52.5393 15.73 52.2753 15.802 51.9233 15.802ZM60.6347 20.704H55.9667C55.9907 21.108 56.0847 21.434 56.2487 21.682C56.4167 21.926 56.6727 22.106 57.0167 22.222C57.3607 22.334 57.8167 22.39 58.3847 22.39C58.9407 22.39 59.5607 22.312 60.2447 22.156V23.374C59.5487 23.538 58.8467 23.62 58.1387 23.62C56.8387 23.62 55.8707 23.346 55.2347 22.798C54.6027 22.246 54.2867 21.394 54.2867 20.242C54.2867 19.53 54.4127 18.92 54.6647 18.412C54.9207 17.904 55.2927 17.518 55.7807 17.254C56.2727 16.986 56.8627 16.852 57.5507 16.852C58.5507 16.852 59.3147 17.15 59.8427 17.746C60.3707 18.342 60.6347 19.19 60.6347 20.29V20.704ZM57.5207 17.914C57.0207 17.914 56.6387 18.064 56.3747 18.364C56.1147 18.66 55.9767 19.12 55.9607 19.744H59.0627C59.0467 19.12 58.9107 18.66 58.6547 18.364C58.3987 18.064 58.0207 17.914 57.5207 17.914ZM64.1655 23.62C63.2775 23.62 62.4915 23.522 61.8075 23.326V22.144C62.5515 22.352 63.3355 22.456 64.1595 22.456C64.7075 22.456 65.0995 22.388 65.3355 22.252C65.5755 22.116 65.6955 21.916 65.6955 21.652C65.6955 21.448 65.6355 21.292 65.5155 21.184C65.3955 21.076 65.1775 20.998 64.8615 20.95L63.6375 20.77C62.9415 20.666 62.4395 20.46 62.1315 20.152C61.8235 19.844 61.6695 19.43 61.6695 18.91C61.6695 18.27 61.9395 17.768 62.4795 17.404C63.0235 17.036 63.8515 16.852 64.9635 16.852C65.3115 16.852 65.6575 16.874 66.0015 16.918C66.3495 16.962 66.6615 17.022 66.9375 17.098V18.28C66.3295 18.108 65.6755 18.022 64.9755 18.022C64.3435 18.022 63.9035 18.094 63.6555 18.238C63.4075 18.382 63.2835 18.582 63.2835 18.838C63.2835 19.022 63.3435 19.172 63.4635 19.288C63.5835 19.404 63.7935 19.488 64.0935 19.54L65.3175 19.72C65.9975 19.82 66.4995 20.012 66.8235 20.296C67.1475 20.58 67.3095 21.004 67.3095 21.568C67.3095 21.992 67.1895 22.358 66.9495 22.666C66.7135 22.974 66.3595 23.21 65.8875 23.374C65.4195 23.538 64.8455 23.62 64.1655 23.62ZM68.668 13.804H70.36V17.62H70.438C70.722 17.368 71.05 17.178 71.422 17.05C71.794 16.918 72.186 16.852 72.598 16.852C73.358 16.852 73.962 17.074 74.41 17.518C74.858 17.962 75.082 18.648 75.082 19.576V23.5H73.39V19.666C73.39 19.17 73.278 18.816 73.054 18.604C72.83 18.392 72.502 18.286 72.07 18.286C71.75 18.286 71.438 18.344 71.134 18.46C70.834 18.576 70.576 18.746 70.36 18.97V23.5H68.668V13.804Z" fill="#1A0A02"/>
<circle cx="85" cy="19" r="4" fill="#CC2610"/>
<rect x="97" y="9" width="24" height="20" rx="10" fill="#F7F7F7"/>
<path d="M109 22.3333H110.333V15.6667H107.667V17H109V22.3333ZM104.333 25C103.967 25 103.653 24.8694 103.392 24.6083C103.131 24.3472 103 24.0333 103 23.6667V14.3333C103 13.9667 103.131 13.6528 103.392 13.3917C103.653 13.1306 103.967 13 104.333 13H113.667C114.033 13 114.347 13.1306 114.608 13.3917C114.869 13.6528 115 13.9667 115 14.3333V23.6667C115 24.0333 114.869 24.3472 114.608 24.6083C114.347 24.8694 114.033 25 113.667 25H104.333ZM104.333 23.6667H113.667V14.3333H104.333V23.6667Z" fill="#767676"/>
<path d="M15.822 53L13.176 49.61H12.966C12.594 49.61 12.178 49.594 11.718 49.562V53H10.02V44.348C10.452 44.248 10.928 44.168 11.448 44.108C11.968 44.048 12.478 44.018 12.978 44.018C14.33 44.018 15.336 44.242 15.996 44.69C16.66 45.134 16.992 45.836 16.992 46.796C16.992 47.456 16.814 48.004 16.458 48.44C16.102 48.872 15.582 49.184 14.898 49.376L17.754 53H15.822ZM11.718 48.296C12.174 48.344 12.614 48.368 13.038 48.368C13.85 48.368 14.442 48.244 14.814 47.996C15.19 47.744 15.378 47.348 15.378 46.808C15.378 46.432 15.298 46.13 15.138 45.902C14.982 45.674 14.738 45.508 14.406 45.404C14.078 45.3 13.648 45.248 13.116 45.248C12.652 45.248 12.186 45.292 11.718 45.38V48.296ZM21.5984 53.12C20.8944 53.12 20.2824 52.992 19.7624 52.736C19.2424 52.48 18.8404 52.098 18.5564 51.59C18.2724 51.082 18.1304 50.462 18.1304 49.73C18.1304 48.998 18.2684 48.38 18.5444 47.876C18.8244 47.372 19.2224 46.992 19.7384 46.736C20.2584 46.48 20.8784 46.352 21.5984 46.352C22.3224 46.352 22.9424 46.48 23.4584 46.736C23.9784 46.988 24.3764 47.366 24.6524 47.87C24.9284 48.37 25.0664 48.99 25.0664 49.73C25.0664 50.454 24.9224 51.07 24.6344 51.578C24.3504 52.086 23.9464 52.47 23.4224 52.73C22.9024 52.99 22.2944 53.12 21.5984 53.12ZM21.5984 51.812C22.7864 51.812 23.3804 51.12 23.3804 49.736C23.3804 49.016 23.2284 48.492 22.9244 48.164C22.6204 47.832 22.1784 47.666 21.5984 47.666C21.0224 47.666 20.5804 47.83 20.2724 48.158C19.9684 48.486 19.8164 49.008 19.8164 49.724C19.8164 51.116 20.4104 51.812 21.5984 51.812ZM29.0786 53.108C28.2706 53.108 27.6346 52.888 27.1706 52.448C26.7106 52.004 26.4806 51.316 26.4806 50.384V46.454H28.1726V50.294C28.1726 50.79 28.2826 51.146 28.5026 51.362C28.7226 51.574 29.0406 51.68 29.4566 51.68C29.7646 51.68 30.0686 51.622 30.3686 51.506C30.6686 51.386 30.9266 51.214 31.1426 50.99V46.454H32.8346V53H31.4426L31.3346 52.334H31.2626C30.9666 52.582 30.6306 52.774 30.2546 52.91C29.8786 53.042 29.4866 53.108 29.0786 53.108ZM38.3018 51.758C38.5258 51.758 38.8038 51.726 39.1358 51.662V52.976C38.7078 53.072 38.2778 53.12 37.8458 53.12C37.0018 53.12 36.3598 52.918 35.9198 52.514C35.4838 52.11 35.2658 51.5 35.2658 50.684V47.798H34.0178V46.454H35.2658L35.5658 44.12H36.9578V46.454H39.0698V47.798H36.9578V50.366C36.9578 50.87 37.0658 51.228 37.2818 51.44C37.4978 51.652 37.8378 51.758 38.3018 51.758ZM40.3282 53V46.454H42.0202V53H40.3282ZM41.1742 45.338C40.8222 45.338 40.5562 45.266 40.3762 45.122C40.2002 44.974 40.1122 44.76 40.1122 44.48C40.1122 44.2 40.2002 43.986 40.3762 43.838C40.5562 43.69 40.8222 43.616 41.1742 43.616C41.5262 43.616 41.7902 43.69 41.9662 43.838C42.1462 43.986 42.2362 44.2 42.2362 44.48C42.2362 44.76 42.1462 44.974 41.9662 45.122C41.7902 45.266 41.5262 45.338 41.1742 45.338ZM43.8555 46.454H45.2475L45.3555 47.138H45.4395C45.7355 46.886 46.0775 46.692 46.4655 46.556C46.8575 46.42 47.2715 46.352 47.7075 46.352C48.5035 46.352 49.1295 46.576 49.5855 47.024C50.0415 47.468 50.2695 48.16 50.2695 49.1V53H48.5775V49.178C48.5775 48.678 48.4655 48.32 48.2415 48.104C48.0215 47.888 47.6935 47.78 47.2575 47.78C46.9455 47.78 46.6355 47.838 46.3275 47.954C46.0235 48.07 45.7635 48.242 45.5475 48.47V53H43.8555V46.454ZM58.0175 50.204H53.3495C53.3735 50.608 53.4675 50.934 53.6315 51.182C53.7995 51.426 54.0555 51.606 54.3995 51.722C54.7435 51.834 55.1995 51.89 55.7675 51.89C56.3235 51.89 56.9435 51.812 57.6275 51.656V52.874C56.9315 53.038 56.2295 53.12 55.5215 53.12C54.2215 53.12 53.2535 52.846 52.6175 52.298C51.9855 51.746 51.6695 50.894 51.6695 49.742C51.6695 49.03 51.7955 48.42 52.0475 47.912C52.3035 47.404 52.6755 47.018 53.1635 46.754C53.6555 46.486 54.2455 46.352 54.9335 46.352C55.9335 46.352 56.6975 46.65 57.2255 47.246C57.7535 47.842 58.0175 48.69 58.0175 49.79V50.204ZM54.9035 47.414C54.4035 47.414 54.0215 47.564 53.7575 47.864C53.4975 48.16 53.3595 48.62 53.3435 49.244H56.4455C56.4295 48.62 56.2935 48.16 56.0375 47.864C55.7815 47.564 55.4035 47.414 54.9035 47.414ZM67.5567 53.114C65.9327 53.114 64.6907 52.744 63.8307 52.004C62.9707 51.26 62.5407 50.118 62.5407 48.578C62.5407 47.59 62.7387 46.756 63.1347 46.076C63.5307 45.392 64.1087 44.876 64.8687 44.528C65.6287 44.18 66.5527 44.006 67.6407 44.006C68.3967 44.006 69.1287 44.09 69.8367 44.258V45.662C69.1727 45.502 68.4807 45.422 67.7607 45.422C66.6127 45.422 65.7567 45.676 65.1927 46.184C64.6327 46.692 64.3527 47.482 64.3527 48.554C64.3527 49.65 64.6287 50.448 65.1807 50.948C65.7327 51.448 66.5587 51.698 67.6587 51.698C68.3987 51.698 69.1247 51.598 69.8367 51.398V52.802C69.1327 53.01 68.3727 53.114 67.5567 53.114ZM71.2188 53V43.304H72.9108V53H71.2188ZM80.7401 50.204H76.0721C76.0961 50.608 76.1901 50.934 76.3541 51.182C76.5221 51.426 76.7781 51.606 77.1221 51.722C77.4661 51.834 77.9221 51.89 78.4901 51.89C79.0461 51.89 79.6661 51.812 80.3501 51.656V52.874C79.6541 53.038 78.9521 53.12 78.2441 53.12C76.9441 53.12 75.9761 52.846 75.3401 52.298C74.7081 51.746 74.3921 50.894 74.3921 49.742C74.3921 49.03 74.5181 48.42 74.7701 47.912C75.0261 47.404 75.3981 47.018 75.8861 46.754C76.3781 46.486 76.9681 46.352 77.6561 46.352C78.6561 46.352 79.4201 46.65 79.9481 47.246C80.4761 47.842 80.7401 48.69 80.7401 49.79V50.204ZM77.6261 47.414C77.1261 47.414 76.7441 47.564 76.4801 47.864C76.2201 48.16 76.0821 48.62 76.0661 49.244H79.1681C79.1521 48.62 79.0161 48.16 78.7601 47.864C78.5041 47.564 78.1261 47.414 77.6261 47.414ZM84.5421 46.352C85.2901 46.352 85.8941 46.438 86.3541 46.61C86.8181 46.782 87.1621 47.068 87.3861 47.468C87.6141 47.868 87.7281 48.414 87.7281 49.106V53H86.3181L86.2041 52.34H86.1201C85.8801 52.588 85.5801 52.78 85.2201 52.916C84.8601 53.048 84.4741 53.114 84.0621 53.114C83.5621 53.114 83.1361 53.036 82.7841 52.88C82.4361 52.724 82.1721 52.506 81.9921 52.226C81.8121 51.946 81.7221 51.62 81.7221 51.248C81.7221 50.648 81.9521 50.184 82.4121 49.856C82.8721 49.524 83.6001 49.322 84.5961 49.25L86.0721 49.112V48.98C86.0721 48.624 86.0101 48.348 85.8861 48.152C85.7621 47.952 85.5701 47.81 85.3101 47.726C85.0541 47.642 84.7081 47.6 84.2721 47.6C83.9681 47.6 83.6361 47.626 83.2761 47.678C82.9201 47.726 82.5821 47.8 82.2621 47.9V46.67C82.5981 46.566 82.9681 46.488 83.3721 46.436C83.7801 46.38 84.1701 46.352 84.5421 46.352ZM84.5601 51.98C84.8361 51.98 85.1041 51.934 85.3641 51.842C85.6241 51.75 85.8601 51.612 86.0721 51.428V50.066L84.7341 50.186C84.2581 50.234 83.9181 50.334 83.7141 50.486C83.5101 50.634 83.4081 50.844 83.4081 51.116C83.4081 51.388 83.5041 51.6 83.6961 51.752C83.8881 51.904 84.1761 51.98 84.5601 51.98ZM89.4883 46.454H90.8803L90.9883 47.138H91.0723C91.3683 46.886 91.7103 46.692 92.0983 46.556C92.4903 46.42 92.9043 46.352 93.3403 46.352C94.1363 46.352 94.7623 46.576 95.2183 47.024C95.6743 47.468 95.9023 48.16 95.9023 49.1V53H94.2103V49.178C94.2103 48.678 94.0983 48.32 93.8743 48.104C93.6543 47.888 93.3263 47.78 92.8903 47.78C92.5783 47.78 92.2683 47.838 91.9603 47.954C91.6563 48.07 91.3963 48.242 91.1803 48.47V53H89.4883V46.454ZM97.6563 53V46.454H99.3483V53H97.6563ZM98.5023 45.338C98.1503 45.338 97.8843 45.266 97.7043 45.122C97.5283 44.974 97.4403 44.76 97.4403 44.48C97.4403 44.2 97.5283 43.986 97.7043 43.838C97.8843 43.69 98.1503 43.616 98.5023 43.616C98.8543 43.616 99.1183 43.69 99.2943 43.838C99.4743 43.986 99.5643 44.2 99.5643 44.48C99.5643 44.76 99.4743 44.974 99.2943 45.122C99.1183 45.266 98.8543 45.338 98.5023 45.338ZM101.184 46.454H102.576L102.684 47.138H102.768C103.064 46.886 103.406 46.692 103.794 46.556C104.186 46.42 104.6 46.352 105.036 46.352C105.832 46.352 106.458 46.576 106.914 47.024C107.37 47.468 107.598 48.16 107.598 49.1V53H105.906V49.178C105.906 48.678 105.794 48.32 105.57 48.104C105.35 47.888 105.022 47.78 104.586 47.78C104.274 47.78 103.964 47.838 103.656 47.954C103.352 48.07 103.092 48.242 102.876 48.47V53H101.184V46.454ZM111.944 55.76C111.06 55.76 110.232 55.652 109.46 55.436V54.122C110.308 54.358 111.1 54.476 111.836 54.476C112.364 54.476 112.788 54.416 113.108 54.296C113.432 54.176 113.668 53.986 113.816 53.726C113.968 53.47 114.044 53.13 114.044 52.706V52.268H113.96C113.704 52.516 113.402 52.706 113.054 52.838C112.706 52.966 112.32 53.03 111.896 53.03C111.352 53.03 110.86 52.914 110.42 52.682C109.984 52.446 109.638 52.09 109.382 51.614C109.126 51.138 108.998 50.556 108.998 49.868C108.998 48.736 109.336 47.868 110.012 47.264C110.688 46.656 111.68 46.352 112.988 46.352C113.452 46.352 113.926 46.384 114.41 46.448C114.894 46.512 115.336 46.602 115.736 46.718V52.394C115.736 53.178 115.6 53.818 115.328 54.314C115.056 54.81 114.64 55.174 114.08 55.406C113.524 55.642 112.812 55.76 111.944 55.76ZM112.46 51.668C112.756 51.668 113.042 51.62 113.318 51.524C113.594 51.428 113.836 51.282 114.044 51.086V47.774C113.668 47.682 113.266 47.636 112.838 47.636C111.402 47.636 110.684 48.334 110.684 49.73C110.684 50.41 110.84 50.904 111.152 51.212C111.468 51.516 111.904 51.668 112.46 51.668Z" fill="#1A0A02"/>
<rect x="245" y="41" width="83" height="23" rx="11.5" fill="#F7F7F7"/>
<path d="M258.052 57.096C257.404 57.096 256.808 56.992 256.264 56.784C255.72 56.568 255.248 56.268 254.848 55.884C254.448 55.492 254.136 55.036 253.912 54.516C253.688 53.996 253.576 53.424 253.576 52.8C253.576 52.176 253.688 51.604 253.912 51.084C254.136 50.564 254.448 50.112 254.848 49.728C255.256 49.336 255.732 49.036 256.276 48.828C256.82 48.612 257.42 48.504 258.076 48.504C258.74 48.504 259.348 48.612 259.9 48.828C260.452 49.044 260.92 49.368 261.304 49.8L260.56 50.544C260.216 50.208 259.84 49.964 259.432 49.812C259.032 49.652 258.596 49.572 258.124 49.572C257.644 49.572 257.196 49.652 256.78 49.812C256.372 49.972 256.016 50.196 255.712 50.484C255.416 50.772 255.184 51.116 255.016 51.516C254.856 51.908 254.776 52.336 254.776 52.8C254.776 53.256 254.856 53.684 255.016 54.084C255.184 54.476 255.416 54.82 255.712 55.116C256.016 55.404 256.372 55.628 256.78 55.788C257.188 55.948 257.632 56.028 258.112 56.028C258.56 56.028 258.988 55.96 259.396 55.824C259.812 55.68 260.196 55.444 260.548 55.116L261.232 56.028C260.816 56.38 260.328 56.648 259.768 56.832C259.216 57.008 258.644 57.096 258.052 57.096ZM260.08 55.872V52.752H261.232V56.028L260.08 55.872ZM266.038 57.072C265.494 57.072 265.014 56.972 264.598 56.772C264.19 56.572 263.87 56.268 263.638 55.86C263.414 55.444 263.302 54.924 263.302 54.3V50.64H264.454V54.168C264.454 54.792 264.602 55.26 264.898 55.572C265.202 55.884 265.626 56.04 266.17 56.04C266.57 56.04 266.918 55.96 267.214 55.8C267.51 55.632 267.738 55.392 267.898 55.08C268.058 54.76 268.138 54.376 268.138 53.928V50.64H269.29V57H268.198V55.284L268.378 55.74C268.17 56.164 267.858 56.492 267.442 56.724C267.026 56.956 266.558 57.072 266.038 57.072ZM274.315 57.072C273.635 57.072 273.035 56.932 272.515 56.652C272.003 56.372 271.603 55.988 271.315 55.5C271.035 55.012 270.895 54.452 270.895 53.82C270.895 53.188 271.031 52.628 271.303 52.14C271.583 51.652 271.963 51.272 272.443 51C272.931 50.72 273.479 50.58 274.087 50.58C274.703 50.58 275.247 50.716 275.719 50.988C276.191 51.26 276.559 51.644 276.823 52.14C277.095 52.628 277.231 53.2 277.231 53.856C277.231 53.904 277.227 53.96 277.219 54.024C277.219 54.088 277.215 54.148 277.207 54.204H271.795V53.376H276.607L276.139 53.664C276.147 53.256 276.063 52.892 275.887 52.572C275.711 52.252 275.467 52.004 275.155 51.828C274.851 51.644 274.495 51.552 274.087 51.552C273.687 51.552 273.331 51.644 273.019 51.828C272.707 52.004 272.463 52.256 272.287 52.584C272.111 52.904 272.023 53.272 272.023 53.688V53.88C272.023 54.304 272.119 54.684 272.311 55.02C272.511 55.348 272.787 55.604 273.139 55.788C273.491 55.972 273.895 56.064 274.351 56.064C274.727 56.064 275.067 56 275.371 55.872C275.683 55.744 275.955 55.552 276.187 55.296L276.823 56.04C276.535 56.376 276.175 56.632 275.743 56.808C275.319 56.984 274.843 57.072 274.315 57.072ZM280.654 57.072C280.126 57.072 279.622 57 279.142 56.856C278.67 56.712 278.298 56.536 278.026 56.328L278.506 55.416C278.778 55.6 279.114 55.756 279.514 55.884C279.914 56.012 280.322 56.076 280.738 56.076C281.274 56.076 281.658 56 281.89 55.848C282.13 55.696 282.25 55.484 282.25 55.212C282.25 55.012 282.178 54.856 282.034 54.744C281.89 54.632 281.698 54.548 281.458 54.492C281.226 54.436 280.966 54.388 280.678 54.348C280.39 54.3 280.102 54.244 279.814 54.18C279.526 54.108 279.262 54.012 279.022 53.892C278.782 53.764 278.59 53.592 278.446 53.376C278.302 53.152 278.23 52.856 278.23 52.488C278.23 52.104 278.338 51.768 278.554 51.48C278.77 51.192 279.074 50.972 279.466 50.82C279.866 50.66 280.338 50.58 280.882 50.58C281.298 50.58 281.718 50.632 282.142 50.736C282.574 50.832 282.926 50.972 283.198 51.156L282.706 52.068C282.418 51.876 282.118 51.744 281.806 51.672C281.494 51.6 281.182 51.564 280.87 51.564C280.366 51.564 279.99 51.648 279.742 51.816C279.494 51.976 279.37 52.184 279.37 52.44C279.37 52.656 279.442 52.824 279.586 52.944C279.738 53.056 279.93 53.144 280.162 53.208C280.402 53.272 280.666 53.328 280.954 53.376C281.242 53.416 281.53 53.472 281.818 53.544C282.106 53.608 282.366 53.7 282.598 53.82C282.838 53.94 283.03 54.108 283.174 54.324C283.326 54.54 283.402 54.828 283.402 55.188C283.402 55.572 283.29 55.904 283.066 56.184C282.842 56.464 282.526 56.684 282.118 56.844C281.71 56.996 281.222 57.072 280.654 57.072ZM287.026 57.072C286.386 57.072 285.89 56.9 285.538 56.556C285.186 56.212 285.01 55.72 285.01 55.08V49.248H286.162V55.032C286.162 55.376 286.246 55.64 286.414 55.824C286.59 56.008 286.838 56.1 287.158 56.1C287.518 56.1 287.818 56 288.058 55.8L288.418 56.628C288.242 56.78 288.03 56.892 287.782 56.964C287.542 57.036 287.29 57.072 287.026 57.072ZM283.93 51.588V50.64H287.986V51.588H283.93ZM294.869 57V49.644H291.989V48.6H298.937V49.644H296.057V57H294.869ZM303.685 57V55.656L303.625 55.404V53.112C303.625 52.624 303.481 52.248 303.193 51.984C302.913 51.712 302.489 51.576 301.921 51.576C301.545 51.576 301.177 51.64 300.817 51.768C300.457 51.888 300.153 52.052 299.905 52.26L299.425 51.396C299.753 51.132 300.145 50.932 300.601 50.796C301.065 50.652 301.549 50.58 302.053 50.58C302.925 50.58 303.597 50.792 304.069 51.216C304.541 51.64 304.777 52.288 304.777 53.16V57H303.685ZM301.597 57.072C301.125 57.072 300.709 56.992 300.349 56.832C299.997 56.672 299.725 56.452 299.533 56.172C299.341 55.884 299.245 55.56 299.245 55.2C299.245 54.856 299.325 54.544 299.485 54.264C299.653 53.984 299.921 53.76 300.289 53.592C300.665 53.424 301.169 53.34 301.801 53.34H303.817V54.168H301.849C301.273 54.168 300.885 54.264 300.685 54.456C300.485 54.648 300.385 54.88 300.385 55.152C300.385 55.464 300.509 55.716 300.757 55.908C301.005 56.092 301.349 56.184 301.789 56.184C302.221 56.184 302.597 56.088 302.917 55.896C303.245 55.704 303.481 55.424 303.625 55.056L303.853 55.848C303.701 56.224 303.433 56.524 303.049 56.748C302.665 56.964 302.181 57.072 301.597 57.072ZM308.732 57.072C308.204 57.072 307.7 57 307.22 56.856C306.748 56.712 306.376 56.536 306.104 56.328L306.584 55.416C306.856 55.6 307.192 55.756 307.592 55.884C307.992 56.012 308.4 56.076 308.816 56.076C309.352 56.076 309.736 56 309.968 55.848C310.208 55.696 310.328 55.484 310.328 55.212C310.328 55.012 310.256 54.856 310.112 54.744C309.968 54.632 309.776 54.548 309.536 54.492C309.304 54.436 309.044 54.388 308.756 54.348C308.468 54.3 308.18 54.244 307.892 54.18C307.604 54.108 307.34 54.012 307.1 53.892C306.86 53.764 306.668 53.592 306.524 53.376C306.38 53.152 306.308 52.856 306.308 52.488C306.308 52.104 306.416 51.768 306.632 51.48C306.848 51.192 307.152 50.972 307.544 50.82C307.944 50.66 308.416 50.58 308.96 50.58C309.376 50.58 309.796 50.632 310.22 50.736C310.652 50.832 311.004 50.972 311.276 51.156L310.784 52.068C310.496 51.876 310.196 51.744 309.884 51.672C309.572 51.6 309.26 51.564 308.948 51.564C308.444 51.564 308.068 51.648 307.82 51.816C307.572 51.976 307.448 52.184 307.448 52.44C307.448 52.656 307.52 52.824 307.664 52.944C307.816 53.056 308.008 53.144 308.24 53.208C308.48 53.272 308.744 53.328 309.032 53.376C309.32 53.416 309.608 53.472 309.896 53.544C310.184 53.608 310.444 53.7 310.676 53.82C310.916 53.94 311.108 54.108 311.252 54.324C311.404 54.54 311.48 54.828 311.48 55.188C311.48 55.572 311.368 55.904 311.144 56.184C310.92 56.464 310.604 56.684 310.196 56.844C309.788 56.996 309.3 57.072 308.732 57.072ZM313.856 55.464L313.88 53.988L317.54 50.64H318.932L316.124 53.4L315.5 53.928L313.856 55.464ZM312.92 57V48.096H314.072V57H312.92ZM317.78 57L315.284 53.904L316.028 52.98L319.196 57H317.78Z" fill="#DC5B19"/>
<path d="M12.3333 90.6666C11.9667 90.6666 11.6528 90.5361 11.3917 90.275C11.1306 90.0139 11 89.7 11 89.3333V80C11 79.6333 11.1306 79.3194 11.3917 79.0583C11.6528 78.7972 11.9667 78.6666 12.3333 78.6666H13V77.3333H14.3333V78.6666H19.6667V77.3333H21V78.6666H21.6667C22.0333 78.6666 22.3472 78.7972 22.6083 79.0583C22.8694 79.3194 23 79.6333 23 80V89.3333C23 89.7 22.8694 90.0139 22.6083 90.275C22.3472 90.5361 22.0333 90.6666 21.6667 90.6666H12.3333ZM12.3333 89.3333H21.6667V82.6666H12.3333V89.3333ZM12.3333 81.3333H21.6667V80H12.3333V81.3333Z" fill="#767676"/>
<path d="M33.0555 88V87.32L35.9055 84.57C36.1589 84.33 36.3455 84.12 36.4655 83.94C36.5922 83.7533 36.6755 83.5833 36.7155 83.43C36.7622 83.27 36.7855 83.1167 36.7855 82.97C36.7855 82.61 36.6589 82.3267 36.4055 82.12C36.1522 81.9133 35.7822 81.81 35.2955 81.81C34.9222 81.81 34.5855 81.8733 34.2855 82C33.9855 82.12 33.7255 82.31 33.5055 82.57L32.8255 81.98C33.0922 81.64 33.4489 81.38 33.8955 81.2C34.3489 81.0133 34.8455 80.92 35.3855 80.92C35.8722 80.92 36.2955 81 36.6555 81.16C37.0155 81.3133 37.2922 81.5367 37.4855 81.83C37.6855 82.1233 37.7855 82.47 37.7855 82.87C37.7855 83.0967 37.7555 83.32 37.6955 83.54C37.6355 83.76 37.5222 83.9933 37.3555 84.24C37.1889 84.4867 36.9489 84.7633 36.6355 85.07L34.0955 87.52L33.8555 87.13H38.0855V88H33.0555ZM40.0877 88V81.4L40.5177 81.87H38.5077V81H41.0777V88H40.0877ZM46.7645 88.08C46.3511 88.08 45.9645 87.9933 45.6045 87.82C45.2445 87.6467 44.9511 87.3967 44.7245 87.07L45.3045 86.39C45.4978 86.6567 45.7145 86.8633 45.9545 87.01C46.2011 87.15 46.4711 87.22 46.7645 87.22C47.5645 87.22 47.9645 86.7467 47.9645 85.8V81.87H45.4345V81H48.9545V85.75C48.9545 86.53 48.7678 87.1133 48.3945 87.5C48.0278 87.8867 47.4845 88.08 46.7645 88.08ZM53.0814 88.06C52.6281 88.06 52.2281 87.9767 51.8814 87.81C51.5414 87.6433 51.2747 87.39 51.0814 87.05C50.8947 86.7033 50.8014 86.27 50.8014 85.75V82.7H51.7614V85.64C51.7614 86.16 51.8847 86.55 52.1314 86.81C52.3847 87.07 52.7381 87.2 53.1914 87.2C53.5247 87.2 53.8147 87.1333 54.0614 87C54.3081 86.86 54.4981 86.66 54.6314 86.4C54.7647 86.1333 54.8314 85.8133 54.8314 85.44V82.7H55.7914V88H54.8814V86.57L55.0314 86.95C54.8581 87.3033 54.5981 87.5767 54.2514 87.77C53.9047 87.9633 53.5147 88.06 53.0814 88.06ZM57.619 88V80.58H58.579V88H57.619ZM62.5575 88V87.32L65.4075 84.57C65.6608 84.33 65.8475 84.12 65.9675 83.94C66.0942 83.7533 66.1775 83.5833 66.2175 83.43C66.2642 83.27 66.2875 83.1167 66.2875 82.97C66.2875 82.61 66.1608 82.3267 65.9075 82.12C65.6542 81.9133 65.2842 81.81 64.7975 81.81C64.4242 81.81 64.0875 81.8733 63.7875 82C63.4875 82.12 63.2275 82.31 63.0075 82.57L62.3275 81.98C62.5942 81.64 62.9508 81.38 63.3975 81.2C63.8508 81.0133 64.3475 80.92 64.8875 80.92C65.3742 80.92 65.7975 81 66.1575 81.16C66.5175 81.3133 66.7942 81.5367 66.9875 81.83C67.1875 82.1233 67.2875 82.47 67.2875 82.87C67.2875 83.0967 67.2575 83.32 67.1975 83.54C67.1375 83.76 67.0242 83.9933 66.8575 84.24C66.6908 84.4867 66.4508 84.7633 66.1375 85.07L63.5975 87.52L63.3575 87.13H67.5875V88H62.5575ZM71.2599 88.08C70.7133 88.08 70.2233 87.94 69.7899 87.66C69.3633 87.38 69.0233 86.9733 68.7699 86.44C68.5233 85.9067 68.3999 85.26 68.3999 84.5C68.3999 83.74 68.5233 83.0933 68.7699 82.56C69.0233 82.0267 69.3633 81.62 69.7899 81.34C70.2233 81.06 70.7133 80.92 71.2599 80.92C71.7999 80.92 72.2866 81.06 72.7199 81.34C73.1533 81.62 73.4933 82.0267 73.7399 82.56C73.9866 83.0933 74.1099 83.74 74.1099 84.5C74.1099 85.26 73.9866 85.9067 73.7399 86.44C73.4933 86.9733 73.1533 87.38 72.7199 87.66C72.2866 87.94 71.7999 88.08 71.2599 88.08ZM71.2599 87.19C71.6266 87.19 71.9466 87.09 72.2199 86.89C72.4999 86.69 72.7166 86.39 72.8699 85.99C73.0299 85.59 73.1099 85.0933 73.1099 84.5C73.1099 83.9067 73.0299 83.41 72.8699 83.01C72.7166 82.61 72.4999 82.31 72.2199 82.11C71.9466 81.91 71.6266 81.81 71.2599 81.81C70.8933 81.81 70.5699 81.91 70.2899 82.11C70.0099 82.31 69.7899 82.61 69.6299 83.01C69.4766 83.41 69.3999 83.9067 69.3999 84.5C69.3999 85.0933 69.4766 85.59 69.6299 85.99C69.7899 86.39 70.0099 86.69 70.2899 86.89C70.5699 87.09 70.8933 87.19 71.2599 87.19ZM74.9598 88V87.32L77.8098 84.57C78.0632 84.33 78.2498 84.12 78.3698 83.94C78.4965 83.7533 78.5798 83.5833 78.6198 83.43C78.6665 83.27 78.6898 83.1167 78.6898 82.97C78.6898 82.61 78.5632 82.3267 78.3098 82.12C78.0565 81.9133 77.6865 81.81 77.1998 81.81C76.8265 81.81 76.4898 81.8733 76.1898 82C75.8898 82.12 75.6298 82.31 75.4098 82.57L74.7298 81.98C74.9965 81.64 75.3532 81.38 75.7998 81.2C76.2532 81.0133 76.7498 80.92 77.2898 80.92C77.7765 80.92 78.1998 81 78.5598 81.16C78.9198 81.3133 79.1965 81.5367 79.3898 81.83C79.5898 82.1233 79.6898 82.47 79.6898 82.87C79.6898 83.0967 79.6598 83.32 79.5998 83.54C79.5398 83.76 79.4265 83.9933 79.2598 84.24C79.0932 84.4867 78.8532 84.7633 78.5398 85.07L75.9998 87.52L75.7598 87.13H79.9898V88H74.9598ZM80.5265 86.28V85.58L84.1065 81H85.1865L81.6365 85.58L81.1265 85.42H86.7165V86.28H80.5265ZM84.4165 88V86.28L84.4465 85.42V83.9H85.3865V88H84.4165ZM90.5715 89.94V80.58H91.4615V89.94H90.5715ZM98.5353 88.08C97.9886 88.08 97.4986 87.94 97.0653 87.66C96.6386 87.38 96.2986 86.9733 96.0453 86.44C95.7986 85.9067 95.6753 85.26 95.6753 84.5C95.6753 83.74 95.7986 83.0933 96.0453 82.56C96.2986 82.0267 96.6386 81.62 97.0653 81.34C97.4986 81.06 97.9886 80.92 98.5353 80.92C99.0753 80.92 99.562 81.06 99.9953 81.34C100.429 81.62 100.769 82.0267 101.015 82.56C101.262 83.0933 101.385 83.74 101.385 84.5C101.385 85.26 101.262 85.9067 101.015 86.44C100.769 86.9733 100.429 87.38 99.9953 87.66C99.562 87.94 99.0753 88.08 98.5353 88.08ZM98.5353 87.19C98.902 87.19 99.222 87.09 99.4953 86.89C99.7753 86.69 99.992 86.39 100.145 85.99C100.305 85.59 100.385 85.0933 100.385 84.5C100.385 83.9067 100.305 83.41 100.145 83.01C99.992 82.61 99.7753 82.31 99.4953 82.11C99.222 81.91 98.902 81.81 98.5353 81.81C98.1686 81.81 97.8453 81.91 97.5653 82.11C97.2853 82.31 97.0653 82.61 96.9053 83.01C96.752 83.41 96.6753 83.9067 96.6753 84.5C96.6753 85.0933 96.752 85.59 96.9053 85.99C97.0653 86.39 97.2853 86.69 97.5653 86.89C97.8453 87.09 98.1686 87.19 98.5353 87.19ZM104.388 88.08C103.894 88.08 103.414 88.0033 102.948 87.85C102.488 87.6967 102.111 87.49 101.818 87.23L102.278 86.44C102.511 86.66 102.814 86.84 103.188 86.98C103.561 87.12 103.961 87.19 104.388 87.19C104.908 87.19 105.311 87.08 105.598 86.86C105.891 86.6333 106.038 86.33 106.038 85.95C106.038 85.5833 105.898 85.29 105.618 85.07C105.344 84.8433 104.908 84.73 104.308 84.73H103.748V84.03L105.828 81.47L105.968 81.87H102.138V81H106.758V81.68L104.688 84.23L104.168 83.92H104.498C105.344 83.92 105.978 84.11 106.398 84.49C106.824 84.87 107.038 85.3533 107.038 85.94C107.038 86.3333 106.941 86.6933 106.748 87.02C106.554 87.3467 106.261 87.6067 105.868 87.8C105.481 87.9867 104.988 88.08 104.388 88.08ZM108.63 84.02C108.444 84.02 108.284 83.9567 108.15 83.83C108.017 83.6967 107.95 83.53 107.95 83.33C107.95 83.13 108.017 82.9667 108.15 82.84C108.284 82.7133 108.444 82.65 108.63 82.65C108.81 82.65 108.964 82.7133 109.09 82.84C109.224 82.9667 109.29 83.13 109.29 83.33C109.29 83.53 109.224 83.6967 109.09 83.83C108.964 83.9567 108.81 84.02 108.63 84.02ZM108.63 88.06C108.444 88.06 108.284 87.9967 108.15 87.87C108.017 87.7367 107.95 87.57 107.95 87.37C107.95 87.17 108.017 87.0067 108.15 86.88C108.284 86.7533 108.444 86.69 108.63 86.69C108.81 86.69 108.964 86.7533 109.09 86.88C109.224 87.0067 109.29 87.17 109.29 87.37C109.29 87.57 109.224 87.7367 109.09 87.87C108.964 87.9967 108.81 88.06 108.63 88.06ZM113.096 88.08C112.549 88.08 112.059 87.94 111.626 87.66C111.199 87.38 110.859 86.9733 110.606 86.44C110.359 85.9067 110.236 85.26 110.236 84.5C110.236 83.74 110.359 83.0933 110.606 82.56C110.859 82.0267 111.199 81.62 111.626 81.34C112.059 81.06 112.549 80.92 113.096 80.92C113.636 80.92 114.123 81.06 114.556 81.34C114.989 81.62 115.329 82.0267 115.576 82.56C115.823 83.0933 115.946 83.74 115.946 84.5C115.946 85.26 115.823 85.9067 115.576 86.44C115.329 86.9733 114.989 87.38 114.556 87.66C114.123 87.94 113.636 88.08 113.096 88.08ZM113.096 87.19C113.463 87.19 113.783 87.09 114.056 86.89C114.336 86.69 114.553 86.39 114.706 85.99C114.866 85.59 114.946 85.0933 114.946 84.5C114.946 83.9067 114.866 83.41 114.706 83.01C114.553 82.61 114.336 82.31 114.056 82.11C113.783 81.91 113.463 81.81 113.096 81.81C112.729 81.81 112.406 81.91 112.126 82.11C111.846 82.31 111.626 82.61 111.466 83.01C111.313 83.41 111.236 83.9067 111.236 84.5C111.236 85.0933 111.313 85.59 111.466 85.99C111.626 86.39 111.846 86.69 112.126 86.89C112.406 87.09 112.729 87.19 113.096 87.19ZM119.766 88.08C119.219 88.08 118.729 87.94 118.296 87.66C117.869 87.38 117.529 86.9733 117.276 86.44C117.029 85.9067 116.906 85.26 116.906 84.5C116.906 83.74 117.029 83.0933 117.276 82.56C117.529 82.0267 117.869 81.62 118.296 81.34C118.729 81.06 119.219 80.92 119.766 80.92C120.306 80.92 120.792 81.06 121.226 81.34C121.659 81.62 121.999 82.0267 122.246 82.56C122.492 83.0933 122.616 83.74 122.616 84.5C122.616 85.26 122.492 85.9067 122.246 86.44C121.999 86.9733 121.659 87.38 121.226 87.66C120.792 87.94 120.306 88.08 119.766 88.08ZM119.766 87.19C120.132 87.19 120.452 87.09 120.726 86.89C121.006 86.69 121.222 86.39 121.376 85.99C121.536 85.59 121.616 85.0933 121.616 84.5C121.616 83.9067 121.536 83.41 121.376 83.01C121.222 82.61 121.006 82.31 120.726 82.11C120.452 81.91 120.132 81.81 119.766 81.81C119.399 81.81 119.076 81.91 118.796 82.11C118.516 82.31 118.296 82.61 118.136 83.01C117.982 83.41 117.906 83.9067 117.906 84.5C117.906 85.0933 117.982 85.59 118.136 85.99C118.296 86.39 118.516 86.69 118.796 86.89C119.076 87.09 119.399 87.19 119.766 87.19ZM129.981 88V86.88L129.931 86.67V84.76C129.931 84.3533 129.811 84.04 129.571 83.82C129.338 83.5933 128.985 83.48 128.511 83.48C128.198 83.48 127.891 83.5333 127.591 83.64C127.291 83.74 127.038 83.8767 126.831 84.05L126.431 83.33C126.705 83.11 127.031 82.9433 127.411 82.83C127.798 82.71 128.201 82.65 128.621 82.65C129.348 82.65 129.908 82.8267 130.301 83.18C130.695 83.5333 130.891 84.0733 130.891 84.8V88H129.981ZM128.241 88.06C127.848 88.06 127.501 87.9933 127.201 87.86C126.908 87.7267 126.681 87.5433 126.521 87.31C126.361 87.07 126.281 86.8 126.281 86.5C126.281 86.2133 126.348 85.9533 126.481 85.72C126.621 85.4867 126.845 85.3 127.151 85.16C127.465 85.02 127.885 84.95 128.411 84.95H130.091V85.64H128.451C127.971 85.64 127.648 85.72 127.481 85.88C127.315 86.04 127.231 86.2333 127.231 86.46C127.231 86.72 127.335 86.93 127.541 87.09C127.748 87.2433 128.035 87.32 128.401 87.32C128.761 87.32 129.075 87.24 129.341 87.08C129.615 86.92 129.811 86.6867 129.931 86.38L130.121 87.04C129.995 87.3533 129.771 87.6033 129.451 87.79C129.131 87.97 128.728 88.06 128.241 88.06ZM139.298 82.65C139.724 82.65 140.101 82.7333 140.428 82.9C140.754 83.0667 141.008 83.32 141.188 83.66C141.374 84 141.468 84.43 141.468 84.95V88H140.508V85.06C140.508 84.5467 140.388 84.16 140.148 83.9C139.908 83.64 139.571 83.51 139.138 83.51C138.818 83.51 138.538 83.5767 138.298 83.71C138.058 83.8433 137.871 84.04 137.738 84.3C137.611 84.56 137.548 84.8833 137.548 85.27V88H136.588V85.06C136.588 84.5467 136.468 84.16 136.228 83.9C135.994 83.64 135.658 83.51 135.218 83.51C134.904 83.51 134.628 83.5767 134.388 83.71C134.148 83.8433 133.961 84.04 133.828 84.3C133.694 84.56 133.628 84.8833 133.628 85.27V88H132.668V82.7H133.588V84.11L133.438 83.75C133.604 83.4033 133.861 83.1333 134.208 82.94C134.554 82.7467 134.958 82.65 135.418 82.65C135.924 82.65 136.361 82.7767 136.728 83.03C137.094 83.2767 137.334 83.6533 137.448 84.16L137.058 84C137.218 83.5933 137.498 83.2667 137.898 83.02C138.298 82.7733 138.764 82.65 139.298 82.65Z" fill="#767676"/>
<path d="M290.03 88L290.89 81H291.6L290.74 88H290.03ZM286.27 86.2V85.47H292.44V86.2H286.27ZM287.43 88L288.3 81H289.01L288.14 88H287.43ZM286.59 83.53V82.8H292.76V83.53H286.59ZM299.137 88.08C298.517 88.08 297.987 87.9433 297.547 87.67C297.107 87.3967 296.77 87.0033 296.537 86.49C296.31 85.97 296.197 85.3367 296.197 84.59C296.197 83.7967 296.337 83.1267 296.617 82.58C296.897 82.0333 297.287 81.62 297.787 81.34C298.287 81.06 298.86 80.92 299.507 80.92C299.84 80.92 300.157 80.9533 300.457 81.02C300.763 81.0867 301.027 81.19 301.247 81.33L300.867 82.11C300.687 81.9833 300.48 81.8967 300.247 81.85C300.02 81.8033 299.78 81.78 299.527 81.78C298.813 81.78 298.247 82.0033 297.827 82.45C297.407 82.89 297.197 83.5467 297.197 84.42C297.197 84.56 297.203 84.7267 297.217 84.92C297.23 85.1133 297.263 85.3033 297.317 85.49L296.977 85.15C297.077 84.8433 297.233 84.5867 297.447 84.38C297.667 84.1667 297.927 84.01 298.227 83.91C298.533 83.8033 298.863 83.75 299.217 83.75C299.683 83.75 300.097 83.8367 300.457 84.01C300.817 84.1833 301.1 84.43 301.307 84.75C301.513 85.0633 301.617 85.4367 301.617 85.87C301.617 86.3167 301.507 86.7067 301.287 87.04C301.067 87.3733 300.77 87.63 300.397 87.81C300.023 87.99 299.603 88.08 299.137 88.08ZM299.097 87.27C299.403 87.27 299.67 87.2133 299.897 87.1C300.13 86.9867 300.313 86.83 300.447 86.63C300.58 86.4233 300.647 86.1833 300.647 85.91C300.647 85.4967 300.503 85.17 300.217 84.93C299.93 84.6833 299.54 84.56 299.047 84.56C298.727 84.56 298.447 84.62 298.207 84.74C297.967 84.86 297.777 85.0233 297.637 85.23C297.503 85.43 297.437 85.66 297.437 85.92C297.437 86.16 297.5 86.3833 297.627 86.59C297.753 86.79 297.94 86.9533 298.187 87.08C298.433 87.2067 298.737 87.27 299.097 87.27ZM305.099 88.08C304.532 88.08 304.042 87.9967 303.629 87.83C303.215 87.6633 302.895 87.4267 302.669 87.12C302.442 86.8067 302.329 86.44 302.329 86.02C302.329 85.6067 302.435 85.2567 302.649 84.97C302.869 84.6767 303.185 84.4567 303.599 84.31C304.012 84.1567 304.512 84.08 305.099 84.08C305.685 84.08 306.185 84.1567 306.599 84.31C307.019 84.4567 307.339 84.6767 307.559 84.97C307.779 85.2633 307.889 85.6133 307.889 86.02C307.889 86.44 307.775 86.8067 307.549 87.12C307.322 87.4267 306.999 87.6633 306.579 87.83C306.159 87.9967 305.665 88.08 305.099 88.08ZM305.099 87.27C305.659 87.27 306.095 87.1567 306.409 86.93C306.729 86.6967 306.889 86.3833 306.889 85.99C306.889 85.6033 306.729 85.3 306.409 85.08C306.095 84.8533 305.659 84.74 305.099 84.74C304.545 84.74 304.112 84.8533 303.799 85.08C303.485 85.3 303.329 85.6033 303.329 85.99C303.329 86.3833 303.485 86.6967 303.799 86.93C304.112 87.1567 304.545 87.27 305.099 87.27ZM305.099 84.62C304.565 84.62 304.112 84.55 303.739 84.41C303.365 84.2633 303.079 84.0567 302.879 83.79C302.679 83.5167 302.579 83.1933 302.579 82.82C302.579 82.4267 302.682 82.09 302.889 81.81C303.102 81.5233 303.399 81.3033 303.779 81.15C304.159 80.9967 304.599 80.92 305.099 80.92C305.605 80.92 306.049 80.9967 306.429 81.15C306.809 81.3033 307.105 81.5233 307.319 81.81C307.532 82.09 307.639 82.4267 307.639 82.82C307.639 83.1933 307.539 83.5167 307.339 83.79C307.139 84.0567 306.849 84.2633 306.469 84.41C306.089 84.55 305.632 84.62 305.099 84.62ZM305.099 83.98C305.585 83.98 305.965 83.88 306.239 83.68C306.519 83.48 306.659 83.2067 306.659 82.86C306.659 82.5067 306.515 82.23 306.229 82.03C305.942 81.83 305.565 81.73 305.099 81.73C304.632 81.73 304.259 81.83 303.979 82.03C303.705 82.23 303.569 82.5067 303.569 82.86C303.569 83.2067 303.702 83.48 303.969 83.68C304.242 83.88 304.619 83.98 305.099 83.98ZM311.074 80.92C311.708 80.92 312.241 81.0567 312.674 81.33C313.114 81.6033 313.448 82 313.674 82.52C313.901 83.0333 314.014 83.6633 314.014 84.41C314.014 85.2033 313.874 85.8733 313.594 86.42C313.314 86.9667 312.928 87.38 312.434 87.66C311.941 87.94 311.364 88.08 310.704 88.08C310.378 88.08 310.061 88.0467 309.754 87.98C309.454 87.9133 309.191 87.81 308.964 87.67L309.344 86.89C309.531 87.01 309.738 87.0967 309.964 87.15C310.198 87.1967 310.441 87.22 310.694 87.22C311.401 87.22 311.964 87 312.384 86.56C312.804 86.1133 313.014 85.4533 313.014 84.58C313.014 84.44 313.008 84.2733 312.994 84.08C312.981 83.8867 312.951 83.6967 312.904 83.51L313.234 83.85C313.141 84.1567 312.984 84.4167 312.764 84.63C312.551 84.8367 312.291 84.9933 311.984 85.1C311.684 85.2 311.354 85.25 310.994 85.25C310.534 85.25 310.124 85.1633 309.764 84.99C309.404 84.8167 309.121 84.5733 308.914 84.26C308.708 83.94 308.604 83.5633 308.604 83.13C308.604 82.6767 308.711 82.2867 308.924 81.96C309.144 81.6267 309.441 81.37 309.814 81.19C310.194 81.01 310.614 80.92 311.074 80.92ZM311.114 81.73C310.814 81.73 310.548 81.7867 310.314 81.9C310.081 82.0133 309.898 82.17 309.764 82.37C309.638 82.57 309.574 82.81 309.574 83.09C309.574 83.5033 309.718 83.8333 310.004 84.08C310.291 84.32 310.678 84.44 311.164 84.44C311.484 84.44 311.764 84.38 312.004 84.26C312.251 84.14 312.441 83.9767 312.574 83.77C312.714 83.5633 312.784 83.3333 312.784 83.08C312.784 82.8333 312.721 82.61 312.594 82.41C312.468 82.21 312.281 82.0467 312.034 81.92C311.788 81.7933 311.481 81.73 311.114 81.73ZM317.706 88.08C317.139 88.08 316.649 87.9967 316.236 87.83C315.823 87.6633 315.503 87.4267 315.276 87.12C315.049 86.8067 314.936 86.44 314.936 86.02C314.936 85.6067 315.043 85.2567 315.256 84.97C315.476 84.6767 315.793 84.4567 316.206 84.31C316.619 84.1567 317.119 84.08 317.706 84.08C318.293 84.08 318.793 84.1567 319.206 84.31C319.626 84.4567 319.946 84.6767 320.166 84.97C320.386 85.2633 320.496 85.6133 320.496 86.02C320.496 86.44 320.383 86.8067 320.156 87.12C319.929 87.4267 319.606 87.6633 319.186 87.83C318.766 87.9967 318.273 88.08 317.706 88.08ZM317.706 87.27C318.266 87.27 318.703 87.1567 319.016 86.93C319.336 86.6967 319.496 86.3833 319.496 85.99C319.496 85.6033 319.336 85.3 319.016 85.08C318.703 84.8533 318.266 84.74 317.706 84.74C317.153 84.74 316.719 84.8533 316.406 85.08C316.093 85.3 315.936 85.6033 315.936 85.99C315.936 86.3833 316.093 86.6967 316.406 86.93C316.719 87.1567 317.153 87.27 317.706 87.27ZM317.706 84.62C317.173 84.62 316.719 84.55 316.346 84.41C315.973 84.2633 315.686 84.0567 315.486 83.79C315.286 83.5167 315.186 83.1933 315.186 82.82C315.186 82.4267 315.289 82.09 315.496 81.81C315.709 81.5233 316.006 81.3033 316.386 81.15C316.766 80.9967 317.206 80.92 317.706 80.92C318.213 80.92 318.656 80.9967 319.036 81.15C319.416 81.3033 319.713 81.5233 319.926 81.81C320.139 82.09 320.246 82.4267 320.246 82.82C320.246 83.1933 320.146 83.5167 319.946 83.79C319.746 84.0567 319.456 84.2633 319.076 84.41C318.696 84.55 318.239 84.62 317.706 84.62ZM317.706 83.98C318.193 83.98 318.573 83.88 318.846 83.68C319.126 83.48 319.266 83.2067 319.266 82.86C319.266 82.5067 319.123 82.23 318.836 82.03C318.549 81.83 318.173 81.73 317.706 81.73C317.239 81.73 316.866 81.83 316.586 82.03C316.313 82.23 316.176 82.5067 316.176 82.86C316.176 83.2067 316.309 83.48 316.576 83.68C316.849 83.88 317.226 83.98 317.706 83.98ZM324.142 88.08C323.575 88.08 323.085 87.9967 322.672 87.83C322.258 87.6633 321.938 87.4267 321.712 87.12C321.485 86.8067 321.372 86.44 321.372 86.02C321.372 85.6067 321.478 85.2567 321.692 84.97C321.912 84.6767 322.228 84.4567 322.642 84.31C323.055 84.1567 323.555 84.08 324.142 84.08C324.728 84.08 325.228 84.1567 325.642 84.31C326.062 84.4567 326.382 84.6767 326.602 84.97C326.822 85.2633 326.932 85.6133 326.932 86.02C326.932 86.44 326.818 86.8067 326.592 87.12C326.365 87.4267 326.042 87.6633 325.622 87.83C325.202 87.9967 324.708 88.08 324.142 88.08ZM324.142 87.27C324.702 87.27 325.138 87.1567 325.452 86.93C325.772 86.6967 325.932 86.3833 325.932 85.99C325.932 85.6033 325.772 85.3 325.452 85.08C325.138 84.8533 324.702 84.74 324.142 84.74C323.588 84.74 323.155 84.8533 322.842 85.08C322.528 85.3 322.372 85.6033 322.372 85.99C322.372 86.3833 322.528 86.6967 322.842 86.93C323.155 87.1567 323.588 87.27 324.142 87.27ZM324.142 84.62C323.608 84.62 323.155 84.55 322.782 84.41C322.408 84.2633 322.122 84.0567 321.922 83.79C321.722 83.5167 321.622 83.1933 321.622 82.82C321.622 82.4267 321.725 82.09 321.932 81.81C322.145 81.5233 322.442 81.3033 322.822 81.15C323.202 80.9967 323.642 80.92 324.142 80.92C324.648 80.92 325.092 80.9967 325.472 81.15C325.852 81.3033 326.148 81.5233 326.362 81.81C326.575 82.09 326.682 82.4267 326.682 82.82C326.682 83.1933 326.582 83.5167 326.382 83.79C326.182 84.0567 325.892 84.2633 325.512 84.41C325.132 84.55 324.675 84.62 324.142 84.62ZM324.142 83.98C324.628 83.98 325.008 83.88 325.282 83.68C325.562 83.48 325.702 83.2067 325.702 82.86C325.702 82.5067 325.558 82.23 325.272 82.03C324.985 81.83 324.608 81.73 324.142 81.73C323.675 81.73 323.302 81.83 323.022 82.03C322.748 82.23 322.612 82.5067 322.612 82.86C322.612 83.2067 322.745 83.48 323.012 83.68C323.285 83.88 323.662 83.98 324.142 83.98Z" fill="#767676"/>
<path d="M16.734 108.47H11.748V110.936H16.092V112.286H11.748V116H10.02V107.12H16.734V108.47ZM17.6758 109.454H19.0618L19.1938 110.264H19.2778C19.5018 109.98 19.7918 109.762 20.1478 109.61C20.5038 109.454 20.8858 109.376 21.2938 109.376C21.5218 109.376 21.7338 109.394 21.9298 109.43V110.93C21.7338 110.894 21.4918 110.876 21.2038 110.876C20.8678 110.876 20.5298 110.936 20.1898 111.056C19.8498 111.176 19.5758 111.354 19.3678 111.59V116H17.6758V109.454ZM25.9343 116.12C25.2303 116.12 24.6183 115.992 24.0983 115.736C23.5783 115.48 23.1763 115.098 22.8923 114.59C22.6083 114.082 22.4663 113.462 22.4663 112.73C22.4663 111.998 22.6043 111.38 22.8803 110.876C23.1603 110.372 23.5583 109.992 24.0743 109.736C24.5943 109.48 25.2143 109.352 25.9343 109.352C26.6583 109.352 27.2783 109.48 27.7943 109.736C28.3143 109.988 28.7123 110.366 28.9883 110.87C29.2643 111.37 29.4023 111.99 29.4023 112.73C29.4023 113.454 29.2583 114.07 28.9703 114.578C28.6863 115.086 28.2823 115.47 27.7583 115.73C27.2383 115.99 26.6303 116.12 25.9343 116.12ZM25.9343 114.812C27.1223 114.812 27.7163 114.12 27.7163 112.736C27.7163 112.016 27.5643 111.492 27.2603 111.164C26.9563 110.832 26.5143 110.666 25.9343 110.666C25.3583 110.666 24.9163 110.83 24.6083 111.158C24.3043 111.486 24.1523 112.008 24.1523 112.724C24.1523 114.116 24.7463 114.812 25.9343 114.812ZM38.6346 109.352C39.3826 109.352 39.9686 109.574 40.3926 110.018C40.8166 110.458 41.0286 111.144 41.0286 112.076V116H39.3486V112.166C39.3486 111.674 39.2466 111.32 39.0426 111.104C38.8426 110.888 38.5586 110.78 38.1906 110.78C37.9146 110.78 37.6566 110.83 37.4166 110.93C37.1766 111.03 36.9666 111.182 36.7866 111.386C36.8146 111.582 36.8286 111.806 36.8286 112.058V116H35.1666V112.166C35.1666 111.67 35.0726 111.316 34.8846 111.104C34.6966 110.888 34.4206 110.78 34.0566 110.78C33.7726 110.78 33.5026 110.84 33.2466 110.96C32.9906 111.08 32.7706 111.254 32.5866 111.482V116H30.8946V109.454H32.2866L32.3946 110.138H32.4786C32.7386 109.886 33.0446 109.692 33.3966 109.556C33.7486 109.42 34.1286 109.352 34.5366 109.352C34.9446 109.352 35.3066 109.426 35.6226 109.574C35.9386 109.722 36.1946 109.946 36.3906 110.246C36.7226 109.934 37.0806 109.708 37.4646 109.568C37.8486 109.424 38.2386 109.352 38.6346 109.352ZM43.6231 116.09C43.2791 116.09 43.0071 116.002 42.8071 115.826C42.6111 115.646 42.5131 115.402 42.5131 115.094C42.5131 114.782 42.6111 114.536 42.8071 114.356C43.0031 114.176 43.2751 114.086 43.6231 114.086C43.9711 114.086 44.2431 114.178 44.4391 114.362C44.6351 114.542 44.7331 114.786 44.7331 115.094C44.7331 115.398 44.6331 115.64 44.4331 115.82C44.2371 116 43.9671 116.09 43.6231 116.09ZM43.6231 111.368C43.2791 111.368 43.0071 111.28 42.8071 111.104C42.6111 110.924 42.5131 110.68 42.5131 110.372C42.5131 110.06 42.6111 109.814 42.8071 109.634C43.0031 109.454 43.2751 109.364 43.6231 109.364C43.9711 109.364 44.2431 109.456 44.4391 109.64C44.6351 109.82 44.7331 110.064 44.7331 110.372C44.7331 110.676 44.6331 110.918 44.4331 111.098C44.2371 111.278 43.9671 111.368 43.6231 111.368ZM46.395 107.288C46.867 107.196 47.333 107.128 47.793 107.084C48.253 107.04 48.739 107.018 49.251 107.018C50.639 107.018 51.679 107.272 52.371 107.78C53.063 108.288 53.409 109.08 53.409 110.156C53.409 112.26 52.031 113.312 49.275 113.312C48.975 113.312 48.591 113.298 48.123 113.27V116H46.395V107.288ZM49.287 112.076C49.863 112.076 50.329 112.008 50.685 111.872C51.045 111.736 51.307 111.528 51.471 111.248C51.639 110.968 51.723 110.606 51.723 110.162C51.723 109.502 51.533 109.02 51.153 108.716C50.777 108.408 50.193 108.254 49.401 108.254C48.949 108.254 48.523 108.288 48.123 108.356V111.998C48.491 112.05 48.879 112.076 49.287 112.076ZM57.0616 109.352C57.8096 109.352 58.4136 109.438 58.8736 109.61C59.3376 109.782 59.6816 110.068 59.9056 110.468C60.1336 110.868 60.2476 111.414 60.2476 112.106V116H58.8376L58.7236 115.34H58.6396C58.3996 115.588 58.0996 115.78 57.7396 115.916C57.3796 116.048 56.9936 116.114 56.5816 116.114C56.0816 116.114 55.6556 116.036 55.3036 115.88C54.9556 115.724 54.6916 115.506 54.5116 115.226C54.3316 114.946 54.2416 114.62 54.2416 114.248C54.2416 113.648 54.4716 113.184 54.9316 112.856C55.3916 112.524 56.1196 112.322 57.1156 112.25L58.5916 112.112V111.98C58.5916 111.624 58.5296 111.348 58.4056 111.152C58.2816 110.952 58.0896 110.81 57.8296 110.726C57.5736 110.642 57.2276 110.6 56.7916 110.6C56.4876 110.6 56.1556 110.626 55.7956 110.678C55.4396 110.726 55.1016 110.8 54.7816 110.9V109.67C55.1176 109.566 55.4876 109.488 55.8916 109.436C56.2996 109.38 56.6896 109.352 57.0616 109.352ZM57.0796 114.98C57.3556 114.98 57.6236 114.934 57.8836 114.842C58.1436 114.75 58.3796 114.612 58.5916 114.428V113.066L57.2536 113.186C56.7776 113.234 56.4376 113.334 56.2336 113.486C56.0296 113.634 55.9276 113.844 55.9276 114.116C55.9276 114.388 56.0236 114.6 56.2156 114.752C56.4076 114.904 56.6956 114.98 57.0796 114.98ZM62.0078 109.454H63.3998L63.5078 110.138H63.5918C63.8878 109.886 64.2298 109.692 64.6178 109.556C65.0098 109.42 65.4238 109.352 65.8598 109.352C66.6558 109.352 67.2818 109.576 67.7378 110.024C68.1938 110.468 68.4218 111.16 68.4218 112.1V116H66.7298V112.178C66.7298 111.678 66.6178 111.32 66.3938 111.104C66.1738 110.888 65.8458 110.78 65.4098 110.78C65.0978 110.78 64.7878 110.838 64.4798 110.954C64.1758 111.07 63.9158 111.242 63.6998 111.47V116H62.0078V109.454ZM73.7158 114.758C73.9398 114.758 74.2178 114.726 74.5498 114.662V115.976C74.1218 116.072 73.6918 116.12 73.2598 116.12C72.4158 116.12 71.7738 115.918 71.3338 115.514C70.8978 115.11 70.6798 114.5 70.6798 113.684V110.798H69.4318V109.454H70.6798L70.9798 107.12H72.3718V109.454H74.4838V110.798H72.3718V113.366C72.3718 113.87 72.4798 114.228 72.6958 114.44C72.9118 114.652 73.2518 114.758 73.7158 114.758ZM75.6953 109.454H77.0813L77.2133 110.264H77.2973C77.5213 109.98 77.8113 109.762 78.1673 109.61C78.5233 109.454 78.9053 109.376 79.3133 109.376C79.5413 109.376 79.7533 109.394 79.9493 109.43V110.93C79.7533 110.894 79.5113 110.876 79.2233 110.876C78.8873 110.876 78.5493 110.936 78.2093 111.056C77.8693 111.176 77.5953 111.354 77.3873 111.59V116H75.6953V109.454ZM86.3618 109.454H88.0238L84.1178 118.64H82.4558L83.5838 116H83.1758L80.4038 109.454H82.1978L84.2618 114.602L86.3618 109.454Z" fill="#767676"/>
<path d="M248.336 116V108.494H245.126V107.12H253.274V108.494H250.064V116H248.336ZM256.427 116.12C255.723 116.12 255.111 115.992 254.591 115.736C254.071 115.48 253.669 115.098 253.385 114.59C253.101 114.082 252.959 113.462 252.959 112.73C252.959 111.998 253.097 111.38 253.373 110.876C253.653 110.372 254.051 109.992 254.567 109.736C255.087 109.48 255.707 109.352 256.427 109.352C257.151 109.352 257.771 109.48 258.287 109.736C258.807 109.988 259.205 110.366 259.481 110.87C259.757 111.37 259.895 111.99 259.895 112.73C259.895 113.454 259.751 114.07 259.463 114.578C259.179 115.086 258.775 115.47 258.251 115.73C257.731 115.99 257.123 116.12 256.427 116.12ZM256.427 114.812C257.615 114.812 258.209 114.12 258.209 112.736C258.209 112.016 258.057 111.492 257.753 111.164C257.449 110.832 257.007 110.666 256.427 110.666C255.851 110.666 255.409 110.83 255.101 111.158C254.797 111.486 254.645 112.008 254.645 112.724C254.645 114.116 255.239 114.812 256.427 114.812ZM262.221 116.09C261.877 116.09 261.605 116.002 261.405 115.826C261.209 115.646 261.111 115.402 261.111 115.094C261.111 114.782 261.209 114.536 261.405 114.356C261.601 114.176 261.873 114.086 262.221 114.086C262.569 114.086 262.841 114.178 263.037 114.362C263.233 114.542 263.331 114.786 263.331 115.094C263.331 115.398 263.231 115.64 263.031 115.82C262.835 116 262.565 116.09 262.221 116.09ZM262.221 111.368C261.877 111.368 261.605 111.28 261.405 111.104C261.209 110.924 261.111 110.68 261.111 110.372C261.111 110.06 261.209 109.814 261.405 109.634C261.601 109.454 261.873 109.364 262.221 109.364C262.569 109.364 262.841 109.456 263.037 109.64C263.233 109.82 263.331 110.064 263.331 110.372C263.331 110.676 263.231 110.918 263.031 111.098C262.835 111.278 262.565 111.368 262.221 111.368ZM270.795 116L268.149 112.61H267.939C267.567 112.61 267.151 112.594 266.691 112.562V116H264.993V107.348C265.425 107.248 265.901 107.168 266.421 107.108C266.941 107.048 267.451 107.018 267.951 107.018C269.303 107.018 270.309 107.242 270.969 107.69C271.633 108.134 271.965 108.836 271.965 109.796C271.965 110.456 271.787 111.004 271.431 111.44C271.075 111.872 270.555 112.184 269.871 112.376L272.727 116H270.795ZM266.691 111.296C267.147 111.344 267.587 111.368 268.011 111.368C268.823 111.368 269.415 111.244 269.787 110.996C270.163 110.744 270.351 110.348 270.351 109.808C270.351 109.432 270.271 109.13 270.111 108.902C269.955 108.674 269.711 108.508 269.379 108.404C269.051 108.3 268.621 108.248 268.089 108.248C267.625 108.248 267.159 108.292 266.691 108.38V111.296ZM279.451 113.204H274.783C274.807 113.608 274.901 113.934 275.065 114.182C275.233 114.426 275.489 114.606 275.833 114.722C276.177 114.834 276.633 114.89 277.201 114.89C277.757 114.89 278.377 114.812 279.061 114.656V115.874C278.365 116.038 277.663 116.12 276.955 116.12C275.655 116.12 274.687 115.846 274.051 115.298C273.419 114.746 273.103 113.894 273.103 112.742C273.103 112.03 273.229 111.42 273.481 110.912C273.737 110.404 274.109 110.018 274.597 109.754C275.089 109.486 275.679 109.352 276.367 109.352C277.367 109.352 278.131 109.65 278.659 110.246C279.187 110.842 279.451 111.69 279.451 112.79V113.204ZM276.337 110.414C275.837 110.414 275.455 110.564 275.191 110.864C274.931 111.16 274.793 111.62 274.777 112.244H277.879C277.863 111.62 277.727 111.16 277.471 110.864C277.215 110.564 276.837 110.414 276.337 110.414ZM284.164 116.12C282.972 116.12 282.06 115.834 281.428 115.262C280.8 114.69 280.486 113.85 280.486 112.742C280.486 111.634 280.814 110.792 281.47 110.216C282.13 109.64 283.09 109.352 284.35 109.352C284.982 109.352 285.55 109.418 286.054 109.55V110.864C285.766 110.804 285.5 110.76 285.256 110.732C285.016 110.704 284.766 110.69 284.506 110.69C283.722 110.69 283.144 110.856 282.772 111.188C282.404 111.516 282.22 112.03 282.22 112.73C282.22 113.426 282.398 113.942 282.754 114.278C283.11 114.614 283.638 114.782 284.338 114.782C284.598 114.782 284.862 114.762 285.13 114.722C285.398 114.682 285.706 114.614 286.054 114.518V115.838C285.482 116.026 284.852 116.12 284.164 116.12ZM293.232 113.204H288.564C288.588 113.608 288.682 113.934 288.846 114.182C289.014 114.426 289.27 114.606 289.614 114.722C289.958 114.834 290.414 114.89 290.982 114.89C291.538 114.89 292.158 114.812 292.842 114.656V115.874C292.146 116.038 291.444 116.12 290.736 116.12C289.436 116.12 288.468 115.846 287.832 115.298C287.2 114.746 286.884 113.894 286.884 112.742C286.884 112.03 287.01 111.42 287.262 110.912C287.518 110.404 287.89 110.018 288.378 109.754C288.87 109.486 289.46 109.352 290.148 109.352C291.148 109.352 291.912 109.65 292.44 110.246C292.968 110.842 293.232 111.69 293.232 112.79V113.204ZM290.118 110.414C289.618 110.414 289.236 110.564 288.972 110.864C288.712 111.16 288.574 111.62 288.558 112.244H291.66C291.644 111.62 291.508 111.16 291.252 110.864C290.996 110.564 290.618 110.414 290.118 110.414ZM294.621 109.454H296.037L296.139 110.168H296.217C296.473 109.912 296.779 109.712 297.135 109.568C297.495 109.424 297.889 109.352 298.317 109.352C298.901 109.352 299.419 109.466 299.871 109.694C300.327 109.918 300.687 110.272 300.951 110.756C301.219 111.24 301.353 111.852 301.353 112.592C301.353 113.348 301.205 113.99 300.909 114.518C300.617 115.046 300.187 115.446 299.619 115.718C299.055 115.986 298.373 116.12 297.573 116.12C297.249 116.12 296.829 116.09 296.313 116.03V118.64H294.621V109.454ZM297.477 114.83C298.217 114.83 298.767 114.656 299.127 114.308C299.487 113.96 299.667 113.428 299.667 112.712C299.667 111.38 299.071 110.714 297.879 110.714C297.579 110.714 297.293 110.766 297.021 110.87C296.749 110.974 296.513 111.138 296.313 111.362V114.704C296.677 114.788 297.065 114.83 297.477 114.83ZM306.153 114.758C306.377 114.758 306.655 114.726 306.987 114.662V115.976C306.559 116.072 306.129 116.12 305.697 116.12C304.853 116.12 304.211 115.918 303.771 115.514C303.335 115.11 303.117 114.5 303.117 113.684V110.798H301.869V109.454H303.117L303.417 107.12H304.809V109.454H306.921V110.798H304.809V113.366C304.809 113.87 304.917 114.228 305.133 114.44C305.349 114.652 305.689 114.758 306.153 114.758ZM308.18 116V109.454H309.872V116H308.18ZM309.026 108.338C308.674 108.338 308.408 108.266 308.228 108.122C308.052 107.974 307.964 107.76 307.964 107.48C307.964 107.2 308.052 106.986 308.228 106.838C308.408 106.69 308.674 106.616 309.026 106.616C309.378 106.616 309.642 106.69 309.818 106.838C309.998 106.986 310.088 107.2 310.088 107.48C310.088 107.76 309.998 107.974 309.818 108.122C309.642 108.266 309.378 108.338 309.026 108.338ZM314.821 116.12C314.117 116.12 313.505 115.992 312.985 115.736C312.465 115.48 312.063 115.098 311.779 114.59C311.495 114.082 311.353 113.462 311.353 112.73C311.353 111.998 311.491 111.38 311.767 110.876C312.047 110.372 312.445 109.992 312.961 109.736C313.481 109.48 314.101 109.352 314.821 109.352C315.545 109.352 316.165 109.48 316.681 109.736C317.201 109.988 317.599 110.366 317.875 110.87C318.151 111.37 318.289 111.99 318.289 112.73C318.289 113.454 318.145 114.07 317.857 114.578C317.573 115.086 317.169 115.47 316.645 115.73C316.125 115.99 315.517 116.12 314.821 116.12ZM314.821 114.812C316.009 114.812 316.603 114.12 316.603 112.736C316.603 112.016 316.451 111.492 316.147 111.164C315.843 110.832 315.401 110.666 314.821 110.666C314.245 110.666 313.803 110.83 313.495 111.158C313.191 111.486 313.039 112.008 313.039 112.724C313.039 114.116 313.633 114.812 314.821 114.812ZM319.781 109.454H321.173L321.281 110.138H321.365C321.661 109.886 322.003 109.692 322.391 109.556C322.783 109.42 323.197 109.352 323.633 109.352C324.429 109.352 325.055 109.576 325.511 110.024C325.967 110.468 326.195 111.16 326.195 112.1V116H324.503V112.178C324.503 111.678 324.391 111.32 324.167 111.104C323.947 110.888 323.619 110.78 323.183 110.78C322.871 110.78 322.561 110.838 322.253 110.954C321.949 111.07 321.689 111.242 321.473 111.47V116H319.781V109.454Z" fill="#767676"/>
<path d="M9.5 146.5C9.5 138.216 16.2157 131.5 24.5 131.5H312.5C320.784 131.5 327.5 138.216 327.5 146.5C327.5 154.784 320.784 161.5 312.5 161.5H24.5C16.2157 161.5 9.5 154.784 9.5 146.5Z" stroke="#5F69C7"/>
<path d="M137.216 142.12H138.572L135.062 151H133.112L129.602 142.12H131.054L134.126 149.986L137.216 142.12ZM139.666 151V144.472H140.998V151H139.666ZM140.332 143.2C140.048 143.2 139.832 143.138 139.684 143.014C139.54 142.89 139.468 142.712 139.468 142.48C139.468 142.244 139.54 142.064 139.684 141.94C139.832 141.812 140.048 141.748 140.332 141.748C140.616 141.748 140.83 141.812 140.974 141.94C141.122 142.064 141.196 142.244 141.196 142.48C141.196 142.712 141.122 142.89 140.974 143.014C140.83 143.138 140.616 143.2 140.332 143.2ZM148.676 148.132H143.942C143.966 148.604 144.068 148.986 144.248 149.278C144.428 149.566 144.698 149.778 145.058 149.914C145.418 150.05 145.88 150.118 146.444 150.118C147.004 150.118 147.624 150.032 148.304 149.86V150.85C147.596 151.03 146.914 151.12 146.258 151.12C145.042 151.12 144.13 150.846 143.522 150.298C142.918 149.746 142.616 148.896 142.616 147.748C142.616 147.028 142.738 146.416 142.982 145.912C143.226 145.408 143.578 145.026 144.038 144.766C144.502 144.502 145.06 144.37 145.712 144.37C146.672 144.37 147.406 144.664 147.914 145.252C148.422 145.836 148.676 146.68 148.676 147.784V148.132ZM145.694 145.252C145.134 145.252 144.706 145.422 144.41 145.762C144.114 146.098 143.956 146.62 143.936 147.328H147.422C147.406 146.62 147.254 146.098 146.966 145.762C146.678 145.422 146.254 145.252 145.694 145.252ZM159.035 144.472H160.283L158.213 151H156.665L154.943 145.666L153.209 151H151.667L149.579 144.472H150.887L152.513 149.698L154.187 144.472H155.729L157.397 149.662L159.035 144.472ZM167.813 151.072C166.933 151.072 166.071 151.018 165.227 150.91V142.33C165.647 142.238 166.115 142.166 166.631 142.114C167.151 142.062 167.645 142.036 168.113 142.036C169.805 142.036 171.081 142.412 171.941 143.164C172.805 143.916 173.237 145.048 173.237 146.56C173.237 148.1 172.789 149.238 171.893 149.974C170.997 150.706 169.637 151.072 167.813 151.072ZM168.119 149.962C169.387 149.962 170.325 149.686 170.933 149.134C171.541 148.582 171.845 147.72 171.845 146.548C171.845 145.388 171.539 144.53 170.927 143.974C170.315 143.414 169.387 143.134 168.143 143.134C167.687 143.134 167.167 143.18 166.583 143.272V149.872C167.007 149.932 167.519 149.962 168.119 149.962ZM180.622 148.132H175.888C175.912 148.604 176.014 148.986 176.194 149.278C176.374 149.566 176.644 149.778 177.004 149.914C177.364 150.05 177.826 150.118 178.39 150.118C178.95 150.118 179.57 150.032 180.25 149.86V150.85C179.542 151.03 178.86 151.12 178.204 151.12C176.988 151.12 176.076 150.846 175.468 150.298C174.864 149.746 174.562 148.896 174.562 147.748C174.562 147.028 174.684 146.416 174.928 145.912C175.172 145.408 175.524 145.026 175.984 144.766C176.448 144.502 177.006 144.37 177.658 144.37C178.618 144.37 179.352 144.664 179.86 145.252C180.368 145.836 180.622 146.68 180.622 147.784V148.132ZM177.64 145.252C177.08 145.252 176.652 145.422 176.356 145.762C176.06 146.098 175.902 146.62 175.882 147.328H179.368C179.352 146.62 179.2 146.098 178.912 145.762C178.624 145.422 178.2 145.252 177.64 145.252ZM185.317 150.028C185.445 150.028 185.575 150.02 185.707 150.004C185.839 149.988 186.003 149.96 186.199 149.92V150.976C185.791 151.072 185.385 151.12 184.981 151.12C184.177 151.12 183.565 150.924 183.145 150.532C182.725 150.14 182.515 149.548 182.515 148.756V145.546H181.213V144.472H182.515L182.743 142.12H183.847V144.472H186.109V145.546H183.847V148.51C183.847 149.05 183.967 149.438 184.207 149.674C184.447 149.91 184.817 150.028 185.317 150.028ZM189.683 144.37C190.371 144.37 190.931 144.452 191.363 144.616C191.795 144.776 192.119 145.044 192.335 145.42C192.551 145.796 192.659 146.308 192.659 146.956V151H191.543L191.447 150.298H191.375C191.131 150.554 190.823 150.754 190.451 150.898C190.079 151.038 189.683 151.108 189.263 151.108C188.783 151.108 188.373 151.034 188.033 150.886C187.693 150.734 187.435 150.522 187.259 150.25C187.083 149.978 186.995 149.658 186.995 149.29C186.995 148.71 187.211 148.262 187.643 147.946C188.079 147.626 188.771 147.424 189.719 147.34L191.351 147.178V146.866C191.351 146.482 191.285 146.182 191.153 145.966C191.021 145.75 190.821 145.598 190.553 145.51C190.289 145.422 189.937 145.378 189.497 145.378C189.193 145.378 188.863 145.404 188.507 145.456C188.155 145.508 187.817 145.586 187.493 145.69V144.694C187.813 144.59 188.167 144.51 188.555 144.454C188.947 144.398 189.323 144.37 189.683 144.37ZM189.617 150.184C189.937 150.184 190.247 150.128 190.547 150.016C190.847 149.9 191.115 149.728 191.351 149.5V147.97L189.821 148.12C189.289 148.18 188.909 148.296 188.681 148.468C188.453 148.636 188.339 148.876 188.339 149.188C188.339 149.504 188.445 149.75 188.657 149.926C188.869 150.098 189.189 150.184 189.617 150.184ZM194.556 151V144.472H195.888V151H194.556ZM195.222 143.2C194.938 143.2 194.722 143.138 194.574 143.014C194.43 142.89 194.358 142.712 194.358 142.48C194.358 142.244 194.43 142.064 194.574 141.94C194.722 141.812 194.938 141.748 195.222 141.748C195.506 141.748 195.72 141.812 195.864 141.94C196.012 142.064 196.086 142.244 196.086 142.48C196.086 142.712 196.012 142.89 195.864 143.014C195.72 143.138 195.506 143.2 195.222 143.2ZM197.873 151V141.304H199.205V151H197.873ZM203.181 151.12C202.361 151.12 201.617 151.024 200.949 150.832V149.866C201.665 150.066 202.411 150.166 203.187 150.166C203.787 150.166 204.219 150.086 204.483 149.926C204.747 149.762 204.879 149.524 204.879 149.212C204.879 149.044 204.849 148.906 204.789 148.798C204.729 148.686 204.627 148.594 204.483 148.522C204.339 148.446 204.141 148.388 203.889 148.348L202.731 148.168C202.059 148.06 201.573 147.856 201.273 147.556C200.977 147.256 200.829 146.854 200.829 146.35C200.829 145.738 201.081 145.256 201.585 144.904C202.093 144.548 202.867 144.37 203.907 144.37C204.235 144.37 204.561 144.392 204.885 144.436C205.213 144.476 205.515 144.536 205.791 144.616V145.576C205.183 145.408 204.557 145.324 203.913 145.324C203.253 145.324 202.787 145.41 202.515 145.582C202.243 145.754 202.107 145.992 202.107 146.296C202.107 146.524 202.177 146.71 202.317 146.854C202.457 146.994 202.707 147.096 203.067 147.16L204.225 147.34C204.893 147.444 205.383 147.636 205.695 147.916C206.007 148.196 206.163 148.602 206.163 149.134C206.163 149.546 206.051 149.9 205.827 150.196C205.607 150.492 205.273 150.72 204.825 150.88C204.381 151.04 203.833 151.12 203.181 151.12Z" fill="#5F69C7"/>
</svg>
