<svg width="362" height="174" viewBox="0 0 362 174" fill="none" xmlns="http://www.w3.org/2000/svg">
<path d="M13 0.75C6.23451 0.75 0.75 6.23451 0.75 13V161C0.75 167.765 6.23452 173.25 13 173.25H349C355.765 173.25 361.25 167.766 361.25 161V13C361.25 6.23451 355.765 0.75 349 0.75H13Z" fill="white"/>
<path d="M13 0.75C6.23451 0.75 0.75 6.23451 0.75 13V161C0.75 167.765 6.23452 173.25 13 173.25H349C355.765 173.25 361.25 167.766 361.25 161V13C361.25 6.23451 355.765 0.75 349 0.75H13Z" stroke="#B8B8B8" stroke-width="0.5"/>
<rect x="9" y="10.5" width="84" height="20" rx="4" fill="#F7F7F7"/>
<rect x="13" y="12.5" width="16" height="16" rx="2" fill="white"/>
<path d="M15.9169 26.5L14.9836 25.5667L21.8169 18.7333C21.6169 18.2667 21.5891 17.7389 21.7336 17.15C21.878 16.5611 22.1947 16.0333 22.6836 15.5667C23.2725 14.9778 23.928 14.6333 24.6503 14.5333C25.3725 14.4333 25.9614 14.6111 26.4169 15.0667C26.8725 15.5222 27.0503 16.1111 26.9503 16.8333C26.8503 17.5556 26.5058 18.2111 25.9169 18.8C25.4503 19.2889 24.9225 19.6056 24.3336 19.75C23.7447 19.8944 23.2169 19.8667 22.7503 19.6667L21.9169 20.5L26.9836 25.5667L26.0503 26.5L20.9836 21.4667L15.9169 26.5ZM17.8836 20.8L15.8836 18.8C15.2836 18.2 14.9836 17.4833 14.9836 16.65C14.9836 15.8167 15.2836 15.1 15.8836 14.5L20.0169 18.6667L17.8836 20.8Z" fill="#5F69C7"/>
<path d="M40.822 25L38.176 21.61H37.966C37.594 21.61 37.178 21.594 36.718 21.562V25H35.02V16.348C35.452 16.248 35.928 16.168 36.448 16.108C36.968 16.048 37.478 16.018 37.978 16.018C39.33 16.018 40.336 16.242 40.996 16.69C41.66 17.134 41.992 17.836 41.992 18.796C41.992 19.456 41.814 20.004 41.458 20.44C41.102 20.872 40.582 21.184 39.898 21.376L42.754 25H40.822ZM36.718 20.296C37.174 20.344 37.614 20.368 38.038 20.368C38.85 20.368 39.442 20.244 39.814 19.996C40.19 19.744 40.378 19.348 40.378 18.808C40.378 18.432 40.298 18.13 40.138 17.902C39.982 17.674 39.738 17.508 39.406 17.404C39.078 17.3 38.648 17.248 38.116 17.248C37.652 17.248 37.186 17.292 36.718 17.38V20.296ZM46.1671 18.352C46.9151 18.352 47.5191 18.438 47.9791 18.61C48.4431 18.782 48.7871 19.068 49.0111 19.468C49.2391 19.868 49.3531 20.414 49.3531 21.106V25H47.9431L47.8291 24.34H47.7451C47.5051 24.588 47.2051 24.78 46.8451 24.916C46.4851 25.048 46.0991 25.114 45.6871 25.114C45.1871 25.114 44.7611 25.036 44.4091 24.88C44.0611 24.724 43.7971 24.506 43.6171 24.226C43.4371 23.946 43.3471 23.62 43.3471 23.248C43.3471 22.648 43.5771 22.184 44.0371 21.856C44.4971 21.524 45.2251 21.322 46.2211 21.25L47.6971 21.112V20.98C47.6971 20.624 47.6351 20.348 47.5111 20.152C47.3871 19.952 47.1951 19.81 46.9351 19.726C46.6791 19.642 46.3331 19.6 45.8971 19.6C45.5931 19.6 45.2611 19.626 44.9011 19.678C44.5451 19.726 44.2071 19.8 43.8871 19.9V18.67C44.2231 18.566 44.5931 18.488 44.9971 18.436C45.4051 18.38 45.7951 18.352 46.1671 18.352ZM46.1851 23.98C46.4611 23.98 46.7291 23.934 46.9891 23.842C47.2491 23.75 47.4851 23.612 47.6971 23.428V22.066L46.3591 22.186C45.8831 22.234 45.5431 22.334 45.3391 22.486C45.1351 22.634 45.0331 22.844 45.0331 23.116C45.0331 23.388 45.1291 23.6 45.3211 23.752C45.5131 23.904 45.8011 23.98 46.1851 23.98ZM50.0513 27.088C50.4313 26.636 50.7033 26.164 50.8673 25.672C51.0313 25.184 51.1133 24.612 51.1133 23.956V18.454H52.8053V23.896C52.8053 24.656 52.6733 25.346 52.4093 25.966C52.1493 26.59 51.7193 27.206 51.1193 27.814L50.0513 27.088ZM51.9233 17.302C51.5713 17.302 51.3053 17.23 51.1253 17.086C50.9493 16.938 50.8613 16.724 50.8613 16.444C50.8613 16.164 50.9493 15.95 51.1253 15.802C51.3053 15.654 51.5713 15.58 51.9233 15.58C52.2753 15.58 52.5393 15.654 52.7153 15.802C52.8953 15.95 52.9853 16.164 52.9853 16.444C52.9853 16.724 52.8953 16.938 52.7153 17.086C52.5393 17.23 52.2753 17.302 51.9233 17.302ZM60.6347 22.204H55.9667C55.9907 22.608 56.0847 22.934 56.2487 23.182C56.4167 23.426 56.6727 23.606 57.0167 23.722C57.3607 23.834 57.8167 23.89 58.3847 23.89C58.9407 23.89 59.5607 23.812 60.2447 23.656V24.874C59.5487 25.038 58.8467 25.12 58.1387 25.12C56.8387 25.12 55.8707 24.846 55.2347 24.298C54.6027 23.746 54.2867 22.894 54.2867 21.742C54.2867 21.03 54.4127 20.42 54.6647 19.912C54.9207 19.404 55.2927 19.018 55.7807 18.754C56.2727 18.486 56.8627 18.352 57.5507 18.352C58.5507 18.352 59.3147 18.65 59.8427 19.246C60.3707 19.842 60.6347 20.69 60.6347 21.79V22.204ZM57.5207 19.414C57.0207 19.414 56.6387 19.564 56.3747 19.864C56.1147 20.16 55.9767 20.62 55.9607 21.244H59.0627C59.0467 20.62 58.9107 20.16 58.6547 19.864C58.3987 19.564 58.0207 19.414 57.5207 19.414ZM64.1655 25.12C63.2775 25.12 62.4915 25.022 61.8075 24.826V23.644C62.5515 23.852 63.3355 23.956 64.1595 23.956C64.7075 23.956 65.0995 23.888 65.3355 23.752C65.5755 23.616 65.6955 23.416 65.6955 23.152C65.6955 22.948 65.6355 22.792 65.5155 22.684C65.3955 22.576 65.1775 22.498 64.8615 22.45L63.6375 22.27C62.9415 22.166 62.4395 21.96 62.1315 21.652C61.8235 21.344 61.6695 20.93 61.6695 20.41C61.6695 19.77 61.9395 19.268 62.4795 18.904C63.0235 18.536 63.8515 18.352 64.9635 18.352C65.3115 18.352 65.6575 18.374 66.0015 18.418C66.3495 18.462 66.6615 18.522 66.9375 18.598V19.78C66.3295 19.608 65.6755 19.522 64.9755 19.522C64.3435 19.522 63.9035 19.594 63.6555 19.738C63.4075 19.882 63.2835 20.082 63.2835 20.338C63.2835 20.522 63.3435 20.672 63.4635 20.788C63.5835 20.904 63.7935 20.988 64.0935 21.04L65.3175 21.22C65.9975 21.32 66.4995 21.512 66.8235 21.796C67.1475 22.08 67.3095 22.504 67.3095 23.068C67.3095 23.492 67.1895 23.858 66.9495 24.166C66.7135 24.474 66.3595 24.71 65.8875 24.874C65.4195 25.038 64.8455 25.12 64.1655 25.12ZM68.668 15.304H70.36V19.12H70.438C70.722 18.868 71.05 18.678 71.422 18.55C71.794 18.418 72.186 18.352 72.598 18.352C73.358 18.352 73.962 18.574 74.41 19.018C74.858 19.462 75.082 20.148 75.082 21.076V25H73.39V21.166C73.39 20.67 73.278 20.316 73.054 20.104C72.83 19.892 72.502 19.786 72.07 19.786C71.75 19.786 71.438 19.844 71.134 19.96C70.834 20.076 70.576 20.246 70.36 20.47V25H68.668V15.304Z" fill="#1A0A02"/>
<circle cx="85" cy="20.5" r="4" fill="#CC2610"/>
<rect x="97" y="9" width="76" height="23" rx="11.5" fill="#00A441"/>
<path d="M110.052 25.096C109.412 25.096 108.816 24.988 108.264 24.772C107.72 24.556 107.248 24.256 106.848 23.872C106.448 23.48 106.136 23.024 105.912 22.504C105.688 21.984 105.576 21.416 105.576 20.8C105.576 20.184 105.688 19.616 105.912 19.096C106.136 18.576 106.448 18.124 106.848 17.74C107.248 17.348 107.72 17.044 108.264 16.828C108.808 16.612 109.404 16.504 110.052 16.504C110.692 16.504 111.28 16.612 111.816 16.828C112.36 17.036 112.832 17.336 113.232 17.728C113.64 18.112 113.952 18.564 114.168 19.084C114.392 19.604 114.504 20.176 114.504 20.8C114.504 21.424 114.392 21.996 114.168 22.516C113.952 23.036 113.64 23.492 113.232 23.884C112.832 24.268 112.36 24.568 111.816 24.784C111.28 24.992 110.692 25.096 110.052 25.096ZM110.052 24.028C110.516 24.028 110.944 23.948 111.336 23.788C111.736 23.628 112.08 23.404 112.368 23.116C112.664 22.82 112.892 22.476 113.052 22.084C113.22 21.692 113.304 21.264 113.304 20.8C113.304 20.336 113.22 19.908 113.052 19.516C112.892 19.124 112.664 18.784 112.368 18.496C112.08 18.2 111.736 17.972 111.336 17.812C110.944 17.652 110.516 17.572 110.052 17.572C109.58 17.572 109.144 17.652 108.744 17.812C108.352 17.972 108.008 18.2 107.712 18.496C107.416 18.784 107.184 19.124 107.016 19.516C106.856 19.908 106.776 20.336 106.776 20.8C106.776 21.264 106.856 21.692 107.016 22.084C107.184 22.476 107.416 22.82 107.712 23.116C108.008 23.404 108.352 23.628 108.744 23.788C109.144 23.948 109.58 24.028 110.052 24.028ZM119.566 18.58C120.086 18.58 120.542 18.68 120.934 18.88C121.334 19.08 121.646 19.384 121.87 19.792C122.094 20.2 122.206 20.716 122.206 21.34V25H121.054V21.472C121.054 20.856 120.902 20.392 120.598 20.08C120.302 19.768 119.882 19.612 119.338 19.612C118.93 19.612 118.574 19.692 118.27 19.852C117.966 20.012 117.73 20.248 117.562 20.56C117.402 20.872 117.322 21.26 117.322 21.724V25H116.17V18.64H117.274V20.356L117.094 19.9C117.302 19.484 117.622 19.16 118.054 18.928C118.486 18.696 118.99 18.58 119.566 18.58ZM127.153 22.204V21.208H130.381V22.204H127.153ZM137.213 25V17.644H134.333V16.6H141.281V17.644H138.401V25H137.213ZM142.42 25V18.64H143.572V25H142.42ZM142.996 17.416C142.772 17.416 142.584 17.344 142.432 17.2C142.288 17.056 142.216 16.88 142.216 16.672C142.216 16.456 142.288 16.276 142.432 16.132C142.584 15.988 142.772 15.916 142.996 15.916C143.22 15.916 143.404 15.988 143.548 16.132C143.7 16.268 143.776 16.44 143.776 16.648C143.776 16.864 143.704 17.048 143.56 17.2C143.416 17.344 143.228 17.416 142.996 17.416ZM153.728 18.58C154.24 18.58 154.692 18.68 155.084 18.88C155.476 19.08 155.78 19.384 155.996 19.792C156.22 20.2 156.332 20.716 156.332 21.34V25H155.18V21.472C155.18 20.856 155.036 20.392 154.748 20.08C154.46 19.768 154.056 19.612 153.536 19.612C153.152 19.612 152.816 19.692 152.528 19.852C152.24 20.012 152.016 20.248 151.856 20.56C151.704 20.872 151.628 21.26 151.628 21.724V25H150.476V21.472C150.476 20.856 150.332 20.392 150.044 20.08C149.764 19.768 149.36 19.612 148.832 19.612C148.456 19.612 148.124 19.692 147.836 19.852C147.548 20.012 147.324 20.248 147.164 20.56C147.004 20.872 146.924 21.26 146.924 21.724V25H145.772V18.64H146.876V20.332L146.696 19.9C146.896 19.484 147.204 19.16 147.62 18.928C148.036 18.696 148.52 18.58 149.072 18.58C149.68 18.58 150.204 18.732 150.644 19.036C151.084 19.332 151.372 19.784 151.508 20.392L151.04 20.2C151.232 19.712 151.568 19.32 152.048 19.024C152.528 18.728 153.088 18.58 153.728 18.58ZM161.283 25.072C160.603 25.072 160.003 24.932 159.483 24.652C158.971 24.372 158.571 23.988 158.283 23.5C158.003 23.012 157.863 22.452 157.863 21.82C157.863 21.188 157.999 20.628 158.271 20.14C158.551 19.652 158.931 19.272 159.411 19C159.899 18.72 160.447 18.58 161.055 18.58C161.671 18.58 162.215 18.716 162.687 18.988C163.159 19.26 163.527 19.644 163.791 20.14C164.063 20.628 164.199 21.2 164.199 21.856C164.199 21.904 164.195 21.96 164.187 22.024C164.187 22.088 164.183 22.148 164.175 22.204H158.763V21.376H163.575L163.107 21.664C163.115 21.256 163.031 20.892 162.855 20.572C162.679 20.252 162.435 20.004 162.123 19.828C161.819 19.644 161.463 19.552 161.055 19.552C160.655 19.552 160.299 19.644 159.987 19.828C159.675 20.004 159.431 20.256 159.255 20.584C159.079 20.904 158.991 21.272 158.991 21.688V21.88C158.991 22.304 159.087 22.684 159.279 23.02C159.479 23.348 159.755 23.604 160.107 23.788C160.459 23.972 160.863 24.064 161.319 24.064C161.695 24.064 162.035 24 162.339 23.872C162.651 23.744 162.923 23.552 163.155 23.296L163.791 24.04C163.503 24.376 163.143 24.632 162.711 24.808C162.287 24.984 161.811 25.072 161.283 25.072Z" fill="white"/>
<rect x="177" y="9" width="72" height="23" rx="11.5" fill="#CC2610"/>
<path d="M186.016 25.096C185.376 25.096 184.784 24.992 184.24 24.784C183.704 24.568 183.236 24.268 182.836 23.884C182.444 23.492 182.136 23.036 181.912 22.516C181.688 21.996 181.576 21.424 181.576 20.8C181.576 20.176 181.688 19.604 181.912 19.084C182.136 18.564 182.448 18.112 182.848 17.728C183.248 17.336 183.716 17.036 184.252 16.828C184.796 16.612 185.388 16.504 186.028 16.504C186.676 16.504 187.272 16.616 187.816 16.84C188.368 17.056 188.836 17.38 189.22 17.812L188.44 18.568C188.12 18.232 187.76 17.984 187.36 17.824C186.96 17.656 186.532 17.572 186.076 17.572C185.604 17.572 185.164 17.652 184.756 17.812C184.356 17.972 184.008 18.196 183.712 18.484C183.416 18.772 183.184 19.116 183.016 19.516C182.856 19.908 182.776 20.336 182.776 20.8C182.776 21.264 182.856 21.696 183.016 22.096C183.184 22.488 183.416 22.828 183.712 23.116C184.008 23.404 184.356 23.628 184.756 23.788C185.164 23.948 185.604 24.028 186.076 24.028C186.532 24.028 186.96 23.948 187.36 23.788C187.76 23.62 188.12 23.364 188.44 23.02L189.22 23.776C188.836 24.208 188.368 24.536 187.816 24.76C187.272 24.984 186.672 25.096 186.016 25.096ZM193.218 25.072C192.578 25.072 192.01 24.932 191.514 24.652C191.018 24.372 190.626 23.988 190.338 23.5C190.05 23.004 189.906 22.444 189.906 21.82C189.906 21.188 190.05 20.628 190.338 20.14C190.626 19.652 191.018 19.272 191.514 19C192.01 18.72 192.578 18.58 193.218 18.58C193.85 18.58 194.414 18.72 194.91 19C195.414 19.272 195.806 19.652 196.086 20.14C196.374 20.62 196.518 21.18 196.518 21.82C196.518 22.452 196.374 23.012 196.086 23.5C195.806 23.988 195.414 24.372 194.91 24.652C194.414 24.932 193.85 25.072 193.218 25.072ZM193.218 24.064C193.626 24.064 193.99 23.972 194.31 23.788C194.638 23.604 194.894 23.344 195.078 23.008C195.262 22.664 195.354 22.268 195.354 21.82C195.354 21.364 195.262 20.972 195.078 20.644C194.894 20.308 194.638 20.048 194.31 19.864C193.99 19.68 193.626 19.588 193.218 19.588C192.81 19.588 192.446 19.68 192.126 19.864C191.806 20.048 191.55 20.308 191.358 20.644C191.166 20.972 191.07 21.364 191.07 21.82C191.07 22.268 191.166 22.664 191.358 23.008C191.55 23.344 191.806 23.604 192.126 23.788C192.446 23.972 192.81 24.064 193.218 24.064ZM206.068 18.58C206.58 18.58 207.032 18.68 207.424 18.88C207.816 19.08 208.12 19.384 208.336 19.792C208.56 20.2 208.672 20.716 208.672 21.34V25H207.52V21.472C207.52 20.856 207.376 20.392 207.088 20.08C206.8 19.768 206.396 19.612 205.876 19.612C205.492 19.612 205.156 19.692 204.868 19.852C204.58 20.012 204.356 20.248 204.196 20.56C204.044 20.872 203.968 21.26 203.968 21.724V25H202.816V21.472C202.816 20.856 202.672 20.392 202.384 20.08C202.104 19.768 201.7 19.612 201.172 19.612C200.796 19.612 200.464 19.692 200.176 19.852C199.888 20.012 199.664 20.248 199.504 20.56C199.344 20.872 199.264 21.26 199.264 21.724V25H198.112V18.64H199.216V20.332L199.036 19.9C199.236 19.484 199.544 19.16 199.96 18.928C200.376 18.696 200.86 18.58 201.412 18.58C202.02 18.58 202.544 18.732 202.984 19.036C203.424 19.332 203.712 19.784 203.848 20.392L203.38 20.2C203.572 19.712 203.908 19.32 204.388 19.024C204.868 18.728 205.428 18.58 206.068 18.58ZM214.163 25.072C213.635 25.072 213.151 24.952 212.711 24.712C212.279 24.464 211.931 24.1 211.667 23.62C211.411 23.14 211.283 22.54 211.283 21.82C211.283 21.1 211.407 20.5 211.655 20.02C211.911 19.54 212.255 19.18 212.687 18.94C213.127 18.7 213.619 18.58 214.163 18.58C214.787 18.58 215.339 18.716 215.819 18.988C216.299 19.26 216.679 19.64 216.959 20.128C217.239 20.608 217.379 21.172 217.379 21.82C217.379 22.468 217.239 23.036 216.959 23.524C216.679 24.012 216.299 24.392 215.819 24.664C215.339 24.936 214.787 25.072 214.163 25.072ZM210.791 27.328V18.64H211.895V20.356L211.823 21.832L211.943 23.308V27.328H210.791ZM214.067 24.064C214.475 24.064 214.839 23.972 215.159 23.788C215.487 23.604 215.743 23.344 215.927 23.008C216.119 22.664 216.215 22.268 216.215 21.82C216.215 21.364 216.119 20.972 215.927 20.644C215.743 20.308 215.487 20.048 215.159 19.864C214.839 19.68 214.475 19.588 214.067 19.588C213.667 19.588 213.303 19.68 212.975 19.864C212.655 20.048 212.399 20.308 212.207 20.644C212.023 20.972 211.931 21.364 211.931 21.82C211.931 22.268 212.023 22.664 212.207 23.008C212.399 23.344 212.655 23.604 212.975 23.788C213.303 23.972 213.667 24.064 214.067 24.064ZM218.971 25V16.096H220.123V25H218.971ZM226.27 25V23.656L226.21 23.404V21.112C226.21 20.624 226.066 20.248 225.778 19.984C225.498 19.712 225.074 19.576 224.506 19.576C224.13 19.576 223.762 19.64 223.402 19.768C223.042 19.888 222.738 20.052 222.49 20.26L222.01 19.396C222.338 19.132 222.73 18.932 223.186 18.796C223.65 18.652 224.134 18.58 224.638 18.58C225.51 18.58 226.182 18.792 226.654 19.216C227.126 19.64 227.362 20.288 227.362 21.16V25H226.27ZM224.182 25.072C223.71 25.072 223.294 24.992 222.934 24.832C222.582 24.672 222.31 24.452 222.118 24.172C221.926 23.884 221.83 23.56 221.83 23.2C221.83 22.856 221.91 22.544 222.07 22.264C222.238 21.984 222.506 21.76 222.874 21.592C223.25 21.424 223.754 21.34 224.386 21.34H226.402V22.168H224.434C223.858 22.168 223.47 22.264 223.27 22.456C223.07 22.648 222.97 22.88 222.97 23.152C222.97 23.464 223.094 23.716 223.342 23.908C223.59 24.092 223.934 24.184 224.374 24.184C224.806 24.184 225.182 24.088 225.502 23.896C225.83 23.704 226.066 23.424 226.21 23.056L226.438 23.848C226.286 24.224 226.018 24.524 225.634 24.748C225.25 24.964 224.766 25.072 224.182 25.072ZM229.494 25V18.64H230.646V25H229.494ZM230.07 17.416C229.846 17.416 229.658 17.344 229.506 17.2C229.362 17.056 229.29 16.88 229.29 16.672C229.29 16.456 229.362 16.276 229.506 16.132C229.658 15.988 229.846 15.916 230.07 15.916C230.294 15.916 230.478 15.988 230.622 16.132C230.774 16.268 230.85 16.44 230.85 16.648C230.85 16.864 230.778 17.048 230.634 17.2C230.49 17.344 230.302 17.416 230.07 17.416ZM236.242 18.58C236.762 18.58 237.218 18.68 237.61 18.88C238.01 19.08 238.322 19.384 238.546 19.792C238.77 20.2 238.882 20.716 238.882 21.34V25H237.73V21.472C237.73 20.856 237.578 20.392 237.274 20.08C236.978 19.768 236.558 19.612 236.014 19.612C235.606 19.612 235.25 19.692 234.946 19.852C234.642 20.012 234.406 20.248 234.238 20.56C234.078 20.872 233.998 21.26 233.998 21.724V25H232.846V18.64H233.95V20.356L233.77 19.9C233.978 19.484 234.298 19.16 234.73 18.928C235.162 18.696 235.666 18.58 236.242 18.58ZM243.198 25.072C242.558 25.072 242.062 24.9 241.71 24.556C241.358 24.212 241.182 23.72 241.182 23.08V17.248H242.334V23.032C242.334 23.376 242.418 23.64 242.586 23.824C242.762 24.008 243.01 24.1 243.33 24.1C243.69 24.1 243.99 24 244.23 23.8L244.59 24.628C244.414 24.78 244.202 24.892 243.954 24.964C243.714 25.036 243.462 25.072 243.198 25.072ZM240.102 19.588V18.64H244.158V19.588H240.102Z" fill="white"/>
<rect x="313" y="10.5" width="40" height="20" rx="10" fill="#00A441"/>
<path d="M323.73 19.684C324.734 19.736 325.54 19.868 326.148 20.08C326.756 20.292 327.196 20.586 327.468 20.962C327.74 21.338 327.876 21.806 327.876 22.366C327.876 23.258 327.562 23.94 326.934 24.412C326.31 24.88 325.366 25.114 324.102 25.114C323.65 25.114 323.202 25.08 322.758 25.012C322.318 24.948 321.9 24.856 321.504 24.736V23.482C321.896 23.594 322.31 23.682 322.746 23.746C323.186 23.81 323.612 23.842 324.024 23.842C324.788 23.842 325.35 23.72 325.71 23.476C326.074 23.232 326.256 22.87 326.256 22.39C326.256 22.078 326.168 21.824 325.992 21.628C325.816 21.428 325.51 21.27 325.074 21.154C324.642 21.038 324.036 20.958 323.256 20.914L321.846 20.842L322.182 16.12H327.492V17.386H323.718L323.55 19.672L323.73 19.684Z" fill="white"/>
<path d="M338.552 15.4085C338.735 15.0369 339.265 15.0369 339.448 15.4085L340.647 17.8372C340.72 17.9848 340.861 18.0871 341.023 18.1107L343.704 18.5002C344.114 18.5598 344.278 19.0638 343.981 19.3531L342.041 21.2436C341.924 21.3584 341.87 21.5239 341.898 21.6861L342.355 24.3556C342.426 24.764 341.997 25.0755 341.63 24.8827L339.233 23.6223C339.087 23.5457 338.913 23.5457 338.767 23.6223L336.37 24.8827C336.003 25.0755 335.574 24.764 335.645 24.3556L336.102 21.6861C336.13 21.5239 336.076 21.3584 335.959 21.2436L334.019 19.3531C333.722 19.0638 333.886 18.5598 334.296 18.5002L336.977 18.1107C337.139 18.0871 337.28 17.9848 337.353 17.8372L338.552 15.4085Z" fill="#FFECE2"/>
<path d="M15.822 56L13.176 52.61H12.966C12.594 52.61 12.178 52.594 11.718 52.562V56H10.02V47.348C10.452 47.248 10.928 47.168 11.448 47.108C11.968 47.048 12.478 47.018 12.978 47.018C14.33 47.018 15.336 47.242 15.996 47.69C16.66 48.134 16.992 48.836 16.992 49.796C16.992 50.456 16.814 51.004 16.458 51.44C16.102 51.872 15.582 52.184 14.898 52.376L17.754 56H15.822ZM11.718 51.296C12.174 51.344 12.614 51.368 13.038 51.368C13.85 51.368 14.442 51.244 14.814 50.996C15.19 50.744 15.378 50.348 15.378 49.808C15.378 49.432 15.298 49.13 15.138 48.902C14.982 48.674 14.738 48.508 14.406 48.404C14.078 48.3 13.648 48.248 13.116 48.248C12.652 48.248 12.186 48.292 11.718 48.38V51.296ZM21.5984 56.12C20.8944 56.12 20.2824 55.992 19.7624 55.736C19.2424 55.48 18.8404 55.098 18.5564 54.59C18.2724 54.082 18.1304 53.462 18.1304 52.73C18.1304 51.998 18.2684 51.38 18.5444 50.876C18.8244 50.372 19.2224 49.992 19.7384 49.736C20.2584 49.48 20.8784 49.352 21.5984 49.352C22.3224 49.352 22.9424 49.48 23.4584 49.736C23.9784 49.988 24.3764 50.366 24.6524 50.87C24.9284 51.37 25.0664 51.99 25.0664 52.73C25.0664 53.454 24.9224 54.07 24.6344 54.578C24.3504 55.086 23.9464 55.47 23.4224 55.73C22.9024 55.99 22.2944 56.12 21.5984 56.12ZM21.5984 54.812C22.7864 54.812 23.3804 54.12 23.3804 52.736C23.3804 52.016 23.2284 51.492 22.9244 51.164C22.6204 50.832 22.1784 50.666 21.5984 50.666C21.0224 50.666 20.5804 50.83 20.2724 51.158C19.9684 51.486 19.8164 52.008 19.8164 52.724C19.8164 54.116 20.4104 54.812 21.5984 54.812ZM29.0786 56.108C28.2706 56.108 27.6346 55.888 27.1706 55.448C26.7106 55.004 26.4806 54.316 26.4806 53.384V49.454H28.1726V53.294C28.1726 53.79 28.2826 54.146 28.5026 54.362C28.7226 54.574 29.0406 54.68 29.4566 54.68C29.7646 54.68 30.0686 54.622 30.3686 54.506C30.6686 54.386 30.9266 54.214 31.1426 53.99V49.454H32.8346V56H31.4426L31.3346 55.334H31.2626C30.9666 55.582 30.6306 55.774 30.2546 55.91C29.8786 56.042 29.4866 56.108 29.0786 56.108ZM38.3018 54.758C38.5258 54.758 38.8038 54.726 39.1358 54.662V55.976C38.7078 56.072 38.2778 56.12 37.8458 56.12C37.0018 56.12 36.3598 55.918 35.9198 55.514C35.4838 55.11 35.2658 54.5 35.2658 53.684V50.798H34.0178V49.454H35.2658L35.5658 47.12H36.9578V49.454H39.0698V50.798H36.9578V53.366C36.9578 53.87 37.0658 54.228 37.2818 54.44C37.4978 54.652 37.8378 54.758 38.3018 54.758ZM40.3282 56V49.454H42.0202V56H40.3282ZM41.1742 48.338C40.8222 48.338 40.5562 48.266 40.3762 48.122C40.2002 47.974 40.1122 47.76 40.1122 47.48C40.1122 47.2 40.2002 46.986 40.3762 46.838C40.5562 46.69 40.8222 46.616 41.1742 46.616C41.5262 46.616 41.7902 46.69 41.9662 46.838C42.1462 46.986 42.2362 47.2 42.2362 47.48C42.2362 47.76 42.1462 47.974 41.9662 48.122C41.7902 48.266 41.5262 48.338 41.1742 48.338ZM43.8555 49.454H45.2475L45.3555 50.138H45.4395C45.7355 49.886 46.0775 49.692 46.4655 49.556C46.8575 49.42 47.2715 49.352 47.7075 49.352C48.5035 49.352 49.1295 49.576 49.5855 50.024C50.0415 50.468 50.2695 51.16 50.2695 52.1V56H48.5775V52.178C48.5775 51.678 48.4655 51.32 48.2415 51.104C48.0215 50.888 47.6935 50.78 47.2575 50.78C46.9455 50.78 46.6355 50.838 46.3275 50.954C46.0235 51.07 45.7635 51.242 45.5475 51.47V56H43.8555V49.454ZM58.0175 53.204H53.3495C53.3735 53.608 53.4675 53.934 53.6315 54.182C53.7995 54.426 54.0555 54.606 54.3995 54.722C54.7435 54.834 55.1995 54.89 55.7675 54.89C56.3235 54.89 56.9435 54.812 57.6275 54.656V55.874C56.9315 56.038 56.2295 56.12 55.5215 56.12C54.2215 56.12 53.2535 55.846 52.6175 55.298C51.9855 54.746 51.6695 53.894 51.6695 52.742C51.6695 52.03 51.7955 51.42 52.0475 50.912C52.3035 50.404 52.6755 50.018 53.1635 49.754C53.6555 49.486 54.2455 49.352 54.9335 49.352C55.9335 49.352 56.6975 49.65 57.2255 50.246C57.7535 50.842 58.0175 51.69 58.0175 52.79V53.204ZM54.9035 50.414C54.4035 50.414 54.0215 50.564 53.7575 50.864C53.4975 51.16 53.3595 51.62 53.3435 52.244H56.4455C56.4295 51.62 56.2935 51.16 56.0375 50.864C55.7815 50.564 55.4035 50.414 54.9035 50.414ZM67.5567 56.114C65.9327 56.114 64.6907 55.744 63.8307 55.004C62.9707 54.26 62.5407 53.118 62.5407 51.578C62.5407 50.59 62.7387 49.756 63.1347 49.076C63.5307 48.392 64.1087 47.876 64.8687 47.528C65.6287 47.18 66.5527 47.006 67.6407 47.006C68.3967 47.006 69.1287 47.09 69.8367 47.258V48.662C69.1727 48.502 68.4807 48.422 67.7607 48.422C66.6127 48.422 65.7567 48.676 65.1927 49.184C64.6327 49.692 64.3527 50.482 64.3527 51.554C64.3527 52.65 64.6287 53.448 65.1807 53.948C65.7327 54.448 66.5587 54.698 67.6587 54.698C68.3987 54.698 69.1247 54.598 69.8367 54.398V55.802C69.1327 56.01 68.3727 56.114 67.5567 56.114ZM71.2188 56V46.304H72.9108V56H71.2188ZM80.7401 53.204H76.0721C76.0961 53.608 76.1901 53.934 76.3541 54.182C76.5221 54.426 76.7781 54.606 77.1221 54.722C77.4661 54.834 77.9221 54.89 78.4901 54.89C79.0461 54.89 79.6661 54.812 80.3501 54.656V55.874C79.6541 56.038 78.9521 56.12 78.2441 56.12C76.9441 56.12 75.9761 55.846 75.3401 55.298C74.7081 54.746 74.3921 53.894 74.3921 52.742C74.3921 52.03 74.5181 51.42 74.7701 50.912C75.0261 50.404 75.3981 50.018 75.8861 49.754C76.3781 49.486 76.9681 49.352 77.6561 49.352C78.6561 49.352 79.4201 49.65 79.9481 50.246C80.4761 50.842 80.7401 51.69 80.7401 52.79V53.204ZM77.6261 50.414C77.1261 50.414 76.7441 50.564 76.4801 50.864C76.2201 51.16 76.0821 51.62 76.0661 52.244H79.1681C79.1521 51.62 79.0161 51.16 78.7601 50.864C78.5041 50.564 78.1261 50.414 77.6261 50.414ZM84.5421 49.352C85.2901 49.352 85.8941 49.438 86.3541 49.61C86.8181 49.782 87.1621 50.068 87.3861 50.468C87.6141 50.868 87.7281 51.414 87.7281 52.106V56H86.3181L86.2041 55.34H86.1201C85.8801 55.588 85.5801 55.78 85.2201 55.916C84.8601 56.048 84.4741 56.114 84.0621 56.114C83.5621 56.114 83.1361 56.036 82.7841 55.88C82.4361 55.724 82.1721 55.506 81.9921 55.226C81.8121 54.946 81.7221 54.62 81.7221 54.248C81.7221 53.648 81.9521 53.184 82.4121 52.856C82.8721 52.524 83.6001 52.322 84.5961 52.25L86.0721 52.112V51.98C86.0721 51.624 86.0101 51.348 85.8861 51.152C85.7621 50.952 85.5701 50.81 85.3101 50.726C85.0541 50.642 84.7081 50.6 84.2721 50.6C83.9681 50.6 83.6361 50.626 83.2761 50.678C82.9201 50.726 82.5821 50.8 82.2621 50.9V49.67C82.5981 49.566 82.9681 49.488 83.3721 49.436C83.7801 49.38 84.1701 49.352 84.5421 49.352ZM84.5601 54.98C84.8361 54.98 85.1041 54.934 85.3641 54.842C85.6241 54.75 85.8601 54.612 86.0721 54.428V53.066L84.7341 53.186C84.2581 53.234 83.9181 53.334 83.7141 53.486C83.5101 53.634 83.4081 53.844 83.4081 54.116C83.4081 54.388 83.5041 54.6 83.6961 54.752C83.8881 54.904 84.1761 54.98 84.5601 54.98ZM89.4883 49.454H90.8803L90.9883 50.138H91.0723C91.3683 49.886 91.7103 49.692 92.0983 49.556C92.4903 49.42 92.9043 49.352 93.3403 49.352C94.1363 49.352 94.7623 49.576 95.2183 50.024C95.6743 50.468 95.9023 51.16 95.9023 52.1V56H94.2103V52.178C94.2103 51.678 94.0983 51.32 93.8743 51.104C93.6543 50.888 93.3263 50.78 92.8903 50.78C92.5783 50.78 92.2683 50.838 91.9603 50.954C91.6563 51.07 91.3963 51.242 91.1803 51.47V56H89.4883V49.454ZM97.6563 56V49.454H99.3483V56H97.6563ZM98.5023 48.338C98.1503 48.338 97.8843 48.266 97.7043 48.122C97.5283 47.974 97.4403 47.76 97.4403 47.48C97.4403 47.2 97.5283 46.986 97.7043 46.838C97.8843 46.69 98.1503 46.616 98.5023 46.616C98.8543 46.616 99.1183 46.69 99.2943 46.838C99.4743 46.986 99.5643 47.2 99.5643 47.48C99.5643 47.76 99.4743 47.974 99.2943 48.122C99.1183 48.266 98.8543 48.338 98.5023 48.338ZM101.184 49.454H102.576L102.684 50.138H102.768C103.064 49.886 103.406 49.692 103.794 49.556C104.186 49.42 104.6 49.352 105.036 49.352C105.832 49.352 106.458 49.576 106.914 50.024C107.37 50.468 107.598 51.16 107.598 52.1V56H105.906V52.178C105.906 51.678 105.794 51.32 105.57 51.104C105.35 50.888 105.022 50.78 104.586 50.78C104.274 50.78 103.964 50.838 103.656 50.954C103.352 51.07 103.092 51.242 102.876 51.47V56H101.184V49.454ZM111.944 58.76C111.06 58.76 110.232 58.652 109.46 58.436V57.122C110.308 57.358 111.1 57.476 111.836 57.476C112.364 57.476 112.788 57.416 113.108 57.296C113.432 57.176 113.668 56.986 113.816 56.726C113.968 56.47 114.044 56.13 114.044 55.706V55.268H113.96C113.704 55.516 113.402 55.706 113.054 55.838C112.706 55.966 112.32 56.03 111.896 56.03C111.352 56.03 110.86 55.914 110.42 55.682C109.984 55.446 109.638 55.09 109.382 54.614C109.126 54.138 108.998 53.556 108.998 52.868C108.998 51.736 109.336 50.868 110.012 50.264C110.688 49.656 111.68 49.352 112.988 49.352C113.452 49.352 113.926 49.384 114.41 49.448C114.894 49.512 115.336 49.602 115.736 49.718V55.394C115.736 56.178 115.6 56.818 115.328 57.314C115.056 57.81 114.64 58.174 114.08 58.406C113.524 58.642 112.812 58.76 111.944 58.76ZM112.46 54.668C112.756 54.668 113.042 54.62 113.318 54.524C113.594 54.428 113.836 54.282 114.044 54.086V50.774C113.668 50.682 113.266 50.636 112.838 50.636C111.402 50.636 110.684 51.334 110.684 52.73C110.684 53.41 110.84 53.904 111.152 54.212C111.468 54.516 111.904 54.668 112.46 54.668Z" fill="#1A0A02"/>
<rect x="270" y="44" width="83" height="23" rx="11.5" fill="#F7F7F7"/>
<path d="M283.052 60.096C282.404 60.096 281.808 59.992 281.264 59.784C280.72 59.568 280.248 59.268 279.848 58.884C279.448 58.492 279.136 58.036 278.912 57.516C278.688 56.996 278.576 56.424 278.576 55.8C278.576 55.176 278.688 54.604 278.912 54.084C279.136 53.564 279.448 53.112 279.848 52.728C280.256 52.336 280.732 52.036 281.276 51.828C281.82 51.612 282.42 51.504 283.076 51.504C283.74 51.504 284.348 51.612 284.9 51.828C285.452 52.044 285.92 52.368 286.304 52.8L285.56 53.544C285.216 53.208 284.84 52.964 284.432 52.812C284.032 52.652 283.596 52.572 283.124 52.572C282.644 52.572 282.196 52.652 281.78 52.812C281.372 52.972 281.016 53.196 280.712 53.484C280.416 53.772 280.184 54.116 280.016 54.516C279.856 54.908 279.776 55.336 279.776 55.8C279.776 56.256 279.856 56.684 280.016 57.084C280.184 57.476 280.416 57.82 280.712 58.116C281.016 58.404 281.372 58.628 281.78 58.788C282.188 58.948 282.632 59.028 283.112 59.028C283.56 59.028 283.988 58.96 284.396 58.824C284.812 58.68 285.196 58.444 285.548 58.116L286.232 59.028C285.816 59.38 285.328 59.648 284.768 59.832C284.216 60.008 283.644 60.096 283.052 60.096ZM285.08 58.872V55.752H286.232V59.028L285.08 58.872ZM291.038 60.072C290.494 60.072 290.014 59.972 289.598 59.772C289.19 59.572 288.87 59.268 288.638 58.86C288.414 58.444 288.302 57.924 288.302 57.3V53.64H289.454V57.168C289.454 57.792 289.602 58.26 289.898 58.572C290.202 58.884 290.626 59.04 291.17 59.04C291.57 59.04 291.918 58.96 292.214 58.8C292.51 58.632 292.738 58.392 292.898 58.08C293.058 57.76 293.138 57.376 293.138 56.928V53.64H294.29V60H293.198V58.284L293.378 58.74C293.17 59.164 292.858 59.492 292.442 59.724C292.026 59.956 291.558 60.072 291.038 60.072ZM299.315 60.072C298.635 60.072 298.035 59.932 297.515 59.652C297.003 59.372 296.603 58.988 296.315 58.5C296.035 58.012 295.895 57.452 295.895 56.82C295.895 56.188 296.031 55.628 296.303 55.14C296.583 54.652 296.963 54.272 297.443 54C297.931 53.72 298.479 53.58 299.087 53.58C299.703 53.58 300.247 53.716 300.719 53.988C301.191 54.26 301.559 54.644 301.823 55.14C302.095 55.628 302.231 56.2 302.231 56.856C302.231 56.904 302.227 56.96 302.219 57.024C302.219 57.088 302.215 57.148 302.207 57.204H296.795V56.376H301.607L301.139 56.664C301.147 56.256 301.063 55.892 300.887 55.572C300.711 55.252 300.467 55.004 300.155 54.828C299.851 54.644 299.495 54.552 299.087 54.552C298.687 54.552 298.331 54.644 298.019 54.828C297.707 55.004 297.463 55.256 297.287 55.584C297.111 55.904 297.023 56.272 297.023 56.688V56.88C297.023 57.304 297.119 57.684 297.311 58.02C297.511 58.348 297.787 58.604 298.139 58.788C298.491 58.972 298.895 59.064 299.351 59.064C299.727 59.064 300.067 59 300.371 58.872C300.683 58.744 300.955 58.552 301.187 58.296L301.823 59.04C301.535 59.376 301.175 59.632 300.743 59.808C300.319 59.984 299.843 60.072 299.315 60.072ZM305.654 60.072C305.126 60.072 304.622 60 304.142 59.856C303.67 59.712 303.298 59.536 303.026 59.328L303.506 58.416C303.778 58.6 304.114 58.756 304.514 58.884C304.914 59.012 305.322 59.076 305.738 59.076C306.274 59.076 306.658 59 306.89 58.848C307.13 58.696 307.25 58.484 307.25 58.212C307.25 58.012 307.178 57.856 307.034 57.744C306.89 57.632 306.698 57.548 306.458 57.492C306.226 57.436 305.966 57.388 305.678 57.348C305.39 57.3 305.102 57.244 304.814 57.18C304.526 57.108 304.262 57.012 304.022 56.892C303.782 56.764 303.59 56.592 303.446 56.376C303.302 56.152 303.23 55.856 303.23 55.488C303.23 55.104 303.338 54.768 303.554 54.48C303.77 54.192 304.074 53.972 304.466 53.82C304.866 53.66 305.338 53.58 305.882 53.58C306.298 53.58 306.718 53.632 307.142 53.736C307.574 53.832 307.926 53.972 308.198 54.156L307.706 55.068C307.418 54.876 307.118 54.744 306.806 54.672C306.494 54.6 306.182 54.564 305.87 54.564C305.366 54.564 304.99 54.648 304.742 54.816C304.494 54.976 304.37 55.184 304.37 55.44C304.37 55.656 304.442 55.824 304.586 55.944C304.738 56.056 304.93 56.144 305.162 56.208C305.402 56.272 305.666 56.328 305.954 56.376C306.242 56.416 306.53 56.472 306.818 56.544C307.106 56.608 307.366 56.7 307.598 56.82C307.838 56.94 308.03 57.108 308.174 57.324C308.326 57.54 308.402 57.828 308.402 58.188C308.402 58.572 308.29 58.904 308.066 59.184C307.842 59.464 307.526 59.684 307.118 59.844C306.71 59.996 306.222 60.072 305.654 60.072ZM312.026 60.072C311.386 60.072 310.89 59.9 310.538 59.556C310.186 59.212 310.01 58.72 310.01 58.08V52.248H311.162V58.032C311.162 58.376 311.246 58.64 311.414 58.824C311.59 59.008 311.838 59.1 312.158 59.1C312.518 59.1 312.818 59 313.058 58.8L313.418 59.628C313.242 59.78 313.03 59.892 312.782 59.964C312.542 60.036 312.29 60.072 312.026 60.072ZM308.93 54.588V53.64H312.986V54.588H308.93ZM319.869 60V52.644H316.989V51.6H323.937V52.644H321.057V60H319.869ZM328.685 60V58.656L328.625 58.404V56.112C328.625 55.624 328.481 55.248 328.193 54.984C327.913 54.712 327.489 54.576 326.921 54.576C326.545 54.576 326.177 54.64 325.817 54.768C325.457 54.888 325.153 55.052 324.905 55.26L324.425 54.396C324.753 54.132 325.145 53.932 325.601 53.796C326.065 53.652 326.549 53.58 327.053 53.58C327.925 53.58 328.597 53.792 329.069 54.216C329.541 54.64 329.777 55.288 329.777 56.16V60H328.685ZM326.597 60.072C326.125 60.072 325.709 59.992 325.349 59.832C324.997 59.672 324.725 59.452 324.533 59.172C324.341 58.884 324.245 58.56 324.245 58.2C324.245 57.856 324.325 57.544 324.485 57.264C324.653 56.984 324.921 56.76 325.289 56.592C325.665 56.424 326.169 56.34 326.801 56.34H328.817V57.168H326.849C326.273 57.168 325.885 57.264 325.685 57.456C325.485 57.648 325.385 57.88 325.385 58.152C325.385 58.464 325.509 58.716 325.757 58.908C326.005 59.092 326.349 59.184 326.789 59.184C327.221 59.184 327.597 59.088 327.917 58.896C328.245 58.704 328.481 58.424 328.625 58.056L328.853 58.848C328.701 59.224 328.433 59.524 328.049 59.748C327.665 59.964 327.181 60.072 326.597 60.072ZM333.732 60.072C333.204 60.072 332.7 60 332.22 59.856C331.748 59.712 331.376 59.536 331.104 59.328L331.584 58.416C331.856 58.6 332.192 58.756 332.592 58.884C332.992 59.012 333.4 59.076 333.816 59.076C334.352 59.076 334.736 59 334.968 58.848C335.208 58.696 335.328 58.484 335.328 58.212C335.328 58.012 335.256 57.856 335.112 57.744C334.968 57.632 334.776 57.548 334.536 57.492C334.304 57.436 334.044 57.388 333.756 57.348C333.468 57.3 333.18 57.244 332.892 57.18C332.604 57.108 332.34 57.012 332.1 56.892C331.86 56.764 331.668 56.592 331.524 56.376C331.38 56.152 331.308 55.856 331.308 55.488C331.308 55.104 331.416 54.768 331.632 54.48C331.848 54.192 332.152 53.972 332.544 53.82C332.944 53.66 333.416 53.58 333.96 53.58C334.376 53.58 334.796 53.632 335.22 53.736C335.652 53.832 336.004 53.972 336.276 54.156L335.784 55.068C335.496 54.876 335.196 54.744 334.884 54.672C334.572 54.6 334.26 54.564 333.948 54.564C333.444 54.564 333.068 54.648 332.82 54.816C332.572 54.976 332.448 55.184 332.448 55.44C332.448 55.656 332.52 55.824 332.664 55.944C332.816 56.056 333.008 56.144 333.24 56.208C333.48 56.272 333.744 56.328 334.032 56.376C334.32 56.416 334.608 56.472 334.896 56.544C335.184 56.608 335.444 56.7 335.676 56.82C335.916 56.94 336.108 57.108 336.252 57.324C336.404 57.54 336.48 57.828 336.48 58.188C336.48 58.572 336.368 58.904 336.144 59.184C335.92 59.464 335.604 59.684 335.196 59.844C334.788 59.996 334.3 60.072 333.732 60.072ZM338.856 58.464L338.88 56.988L342.54 53.64H343.932L341.124 56.4L340.5 56.928L338.856 58.464ZM337.92 60V51.096H339.072V60H337.92ZM342.78 60L340.284 56.904L341.028 55.98L344.196 60H342.78Z" fill="#DC5B19"/>
<path d="M12.3333 93.6667C11.9667 93.6667 11.6528 93.5362 11.3917 93.275C11.1306 93.0139 11 92.7 11 92.3334V83C11 82.6334 11.1306 82.3195 11.3917 82.0584C11.6528 81.7973 11.9667 81.6667 12.3333 81.6667H13V80.3334H14.3333V81.6667H19.6667V80.3334H21V81.6667H21.6667C22.0333 81.6667 22.3472 81.7973 22.6083 82.0584C22.8694 82.3195 23 82.6334 23 83V92.3334C23 92.7 22.8694 93.0139 22.6083 93.275C22.3472 93.5362 22.0333 93.6667 21.6667 93.6667H12.3333ZM12.3333 92.3334H21.6667V85.6667H12.3333V92.3334ZM12.3333 84.3334H21.6667V83H12.3333V84.3334Z" fill="#767676"/>
<path d="M33.0555 91V90.32L35.9055 87.57C36.1589 87.33 36.3455 87.12 36.4655 86.94C36.5922 86.7533 36.6755 86.5833 36.7155 86.43C36.7622 86.27 36.7855 86.1167 36.7855 85.97C36.7855 85.61 36.6589 85.3267 36.4055 85.12C36.1522 84.9133 35.7822 84.81 35.2955 84.81C34.9222 84.81 34.5855 84.8733 34.2855 85C33.9855 85.12 33.7255 85.31 33.5055 85.57L32.8255 84.98C33.0922 84.64 33.4489 84.38 33.8955 84.2C34.3489 84.0133 34.8455 83.92 35.3855 83.92C35.8722 83.92 36.2955 84 36.6555 84.16C37.0155 84.3133 37.2922 84.5367 37.4855 84.83C37.6855 85.1233 37.7855 85.47 37.7855 85.87C37.7855 86.0967 37.7555 86.32 37.6955 86.54C37.6355 86.76 37.5222 86.9933 37.3555 87.24C37.1889 87.4867 36.9489 87.7633 36.6355 88.07L34.0955 90.52L33.8555 90.13H38.0855V91H33.0555ZM40.0877 91V84.4L40.5177 84.87H38.5077V84H41.0777V91H40.0877ZM46.7645 91.08C46.3511 91.08 45.9645 90.9933 45.6045 90.82C45.2445 90.6467 44.9511 90.3967 44.7245 90.07L45.3045 89.39C45.4978 89.6567 45.7145 89.8633 45.9545 90.01C46.2011 90.15 46.4711 90.22 46.7645 90.22C47.5645 90.22 47.9645 89.7467 47.9645 88.8V84.87H45.4345V84H48.9545V88.75C48.9545 89.53 48.7678 90.1133 48.3945 90.5C48.0278 90.8867 47.4845 91.08 46.7645 91.08ZM53.0814 91.06C52.6281 91.06 52.2281 90.9767 51.8814 90.81C51.5414 90.6433 51.2747 90.39 51.0814 90.05C50.8947 89.7033 50.8014 89.27 50.8014 88.75V85.7H51.7614V88.64C51.7614 89.16 51.8847 89.55 52.1314 89.81C52.3847 90.07 52.7381 90.2 53.1914 90.2C53.5247 90.2 53.8147 90.1333 54.0614 90C54.3081 89.86 54.4981 89.66 54.6314 89.4C54.7647 89.1333 54.8314 88.8133 54.8314 88.44V85.7H55.7914V91H54.8814V89.57L55.0314 89.95C54.8581 90.3033 54.5981 90.5767 54.2514 90.77C53.9047 90.9633 53.5147 91.06 53.0814 91.06ZM57.619 91V83.58H58.579V91H57.619ZM62.5575 91V90.32L65.4075 87.57C65.6608 87.33 65.8475 87.12 65.9675 86.94C66.0942 86.7533 66.1775 86.5833 66.2175 86.43C66.2642 86.27 66.2875 86.1167 66.2875 85.97C66.2875 85.61 66.1608 85.3267 65.9075 85.12C65.6542 84.9133 65.2842 84.81 64.7975 84.81C64.4242 84.81 64.0875 84.8733 63.7875 85C63.4875 85.12 63.2275 85.31 63.0075 85.57L62.3275 84.98C62.5942 84.64 62.9508 84.38 63.3975 84.2C63.8508 84.0133 64.3475 83.92 64.8875 83.92C65.3742 83.92 65.7975 84 66.1575 84.16C66.5175 84.3133 66.7942 84.5367 66.9875 84.83C67.1875 85.1233 67.2875 85.47 67.2875 85.87C67.2875 86.0967 67.2575 86.32 67.1975 86.54C67.1375 86.76 67.0242 86.9933 66.8575 87.24C66.6908 87.4867 66.4508 87.7633 66.1375 88.07L63.5975 90.52L63.3575 90.13H67.5875V91H62.5575ZM71.2599 91.08C70.7133 91.08 70.2233 90.94 69.7899 90.66C69.3633 90.38 69.0233 89.9733 68.7699 89.44C68.5233 88.9067 68.3999 88.26 68.3999 87.5C68.3999 86.74 68.5233 86.0933 68.7699 85.56C69.0233 85.0267 69.3633 84.62 69.7899 84.34C70.2233 84.06 70.7133 83.92 71.2599 83.92C71.7999 83.92 72.2866 84.06 72.7199 84.34C73.1533 84.62 73.4933 85.0267 73.7399 85.56C73.9866 86.0933 74.1099 86.74 74.1099 87.5C74.1099 88.26 73.9866 88.9067 73.7399 89.44C73.4933 89.9733 73.1533 90.38 72.7199 90.66C72.2866 90.94 71.7999 91.08 71.2599 91.08ZM71.2599 90.19C71.6266 90.19 71.9466 90.09 72.2199 89.89C72.4999 89.69 72.7166 89.39 72.8699 88.99C73.0299 88.59 73.1099 88.0933 73.1099 87.5C73.1099 86.9067 73.0299 86.41 72.8699 86.01C72.7166 85.61 72.4999 85.31 72.2199 85.11C71.9466 84.91 71.6266 84.81 71.2599 84.81C70.8933 84.81 70.5699 84.91 70.2899 85.11C70.0099 85.31 69.7899 85.61 69.6299 86.01C69.4766 86.41 69.3999 86.9067 69.3999 87.5C69.3999 88.0933 69.4766 88.59 69.6299 88.99C69.7899 89.39 70.0099 89.69 70.2899 89.89C70.5699 90.09 70.8933 90.19 71.2599 90.19ZM74.9598 91V90.32L77.8098 87.57C78.0632 87.33 78.2498 87.12 78.3698 86.94C78.4965 86.7533 78.5798 86.5833 78.6198 86.43C78.6665 86.27 78.6898 86.1167 78.6898 85.97C78.6898 85.61 78.5632 85.3267 78.3098 85.12C78.0565 84.9133 77.6865 84.81 77.1998 84.81C76.8265 84.81 76.4898 84.8733 76.1898 85C75.8898 85.12 75.6298 85.31 75.4098 85.57L74.7298 84.98C74.9965 84.64 75.3532 84.38 75.7998 84.2C76.2532 84.0133 76.7498 83.92 77.2898 83.92C77.7765 83.92 78.1998 84 78.5598 84.16C78.9198 84.3133 79.1965 84.5367 79.3898 84.83C79.5898 85.1233 79.6898 85.47 79.6898 85.87C79.6898 86.0967 79.6598 86.32 79.5998 86.54C79.5398 86.76 79.4265 86.9933 79.2598 87.24C79.0932 87.4867 78.8532 87.7633 78.5398 88.07L75.9998 90.52L75.7598 90.13H79.9898V91H74.9598ZM80.5265 89.28V88.58L84.1065 84H85.1865L81.6365 88.58L81.1265 88.42H86.7165V89.28H80.5265ZM84.4165 91V89.28L84.4465 88.42V86.9H85.3865V91H84.4165ZM90.5715 92.94V83.58H91.4615V92.94H90.5715ZM98.5353 91.08C97.9886 91.08 97.4986 90.94 97.0653 90.66C96.6386 90.38 96.2986 89.9733 96.0453 89.44C95.7986 88.9067 95.6753 88.26 95.6753 87.5C95.6753 86.74 95.7986 86.0933 96.0453 85.56C96.2986 85.0267 96.6386 84.62 97.0653 84.34C97.4986 84.06 97.9886 83.92 98.5353 83.92C99.0753 83.92 99.562 84.06 99.9953 84.34C100.429 84.62 100.769 85.0267 101.015 85.56C101.262 86.0933 101.385 86.74 101.385 87.5C101.385 88.26 101.262 88.9067 101.015 89.44C100.769 89.9733 100.429 90.38 99.9953 90.66C99.562 90.94 99.0753 91.08 98.5353 91.08ZM98.5353 90.19C98.902 90.19 99.222 90.09 99.4953 89.89C99.7753 89.69 99.992 89.39 100.145 88.99C100.305 88.59 100.385 88.0933 100.385 87.5C100.385 86.9067 100.305 86.41 100.145 86.01C99.992 85.61 99.7753 85.31 99.4953 85.11C99.222 84.91 98.902 84.81 98.5353 84.81C98.1686 84.81 97.8453 84.91 97.5653 85.11C97.2853 85.31 97.0653 85.61 96.9053 86.01C96.752 86.41 96.6753 86.9067 96.6753 87.5C96.6753 88.0933 96.752 88.59 96.9053 88.99C97.0653 89.39 97.2853 89.69 97.5653 89.89C97.8453 90.09 98.1686 90.19 98.5353 90.19ZM104.388 91.08C103.894 91.08 103.414 91.0033 102.948 90.85C102.488 90.6967 102.111 90.49 101.818 90.23L102.278 89.44C102.511 89.66 102.814 89.84 103.188 89.98C103.561 90.12 103.961 90.19 104.388 90.19C104.908 90.19 105.311 90.08 105.598 89.86C105.891 89.6333 106.038 89.33 106.038 88.95C106.038 88.5833 105.898 88.29 105.618 88.07C105.344 87.8433 104.908 87.73 104.308 87.73H103.748V87.03L105.828 84.47L105.968 84.87H102.138V84H106.758V84.68L104.688 87.23L104.168 86.92H104.498C105.344 86.92 105.978 87.11 106.398 87.49C106.824 87.87 107.038 88.3533 107.038 88.94C107.038 89.3333 106.941 89.6933 106.748 90.02C106.554 90.3467 106.261 90.6067 105.868 90.8C105.481 90.9867 104.988 91.08 104.388 91.08ZM108.63 87.02C108.444 87.02 108.284 86.9567 108.15 86.83C108.017 86.6967 107.95 86.53 107.95 86.33C107.95 86.13 108.017 85.9667 108.15 85.84C108.284 85.7133 108.444 85.65 108.63 85.65C108.81 85.65 108.964 85.7133 109.09 85.84C109.224 85.9667 109.29 86.13 109.29 86.33C109.29 86.53 109.224 86.6967 109.09 86.83C108.964 86.9567 108.81 87.02 108.63 87.02ZM108.63 91.06C108.444 91.06 108.284 90.9967 108.15 90.87C108.017 90.7367 107.95 90.57 107.95 90.37C107.95 90.17 108.017 90.0067 108.15 89.88C108.284 89.7533 108.444 89.69 108.63 89.69C108.81 89.69 108.964 89.7533 109.09 89.88C109.224 90.0067 109.29 90.17 109.29 90.37C109.29 90.57 109.224 90.7367 109.09 90.87C108.964 90.9967 108.81 91.06 108.63 91.06ZM113.096 91.08C112.549 91.08 112.059 90.94 111.626 90.66C111.199 90.38 110.859 89.9733 110.606 89.44C110.359 88.9067 110.236 88.26 110.236 87.5C110.236 86.74 110.359 86.0933 110.606 85.56C110.859 85.0267 111.199 84.62 111.626 84.34C112.059 84.06 112.549 83.92 113.096 83.92C113.636 83.92 114.123 84.06 114.556 84.34C114.989 84.62 115.329 85.0267 115.576 85.56C115.823 86.0933 115.946 86.74 115.946 87.5C115.946 88.26 115.823 88.9067 115.576 89.44C115.329 89.9733 114.989 90.38 114.556 90.66C114.123 90.94 113.636 91.08 113.096 91.08ZM113.096 90.19C113.463 90.19 113.783 90.09 114.056 89.89C114.336 89.69 114.553 89.39 114.706 88.99C114.866 88.59 114.946 88.0933 114.946 87.5C114.946 86.9067 114.866 86.41 114.706 86.01C114.553 85.61 114.336 85.31 114.056 85.11C113.783 84.91 113.463 84.81 113.096 84.81C112.729 84.81 112.406 84.91 112.126 85.11C111.846 85.31 111.626 85.61 111.466 86.01C111.313 86.41 111.236 86.9067 111.236 87.5C111.236 88.0933 111.313 88.59 111.466 88.99C111.626 89.39 111.846 89.69 112.126 89.89C112.406 90.09 112.729 90.19 113.096 90.19ZM119.766 91.08C119.219 91.08 118.729 90.94 118.296 90.66C117.869 90.38 117.529 89.9733 117.276 89.44C117.029 88.9067 116.906 88.26 116.906 87.5C116.906 86.74 117.029 86.0933 117.276 85.56C117.529 85.0267 117.869 84.62 118.296 84.34C118.729 84.06 119.219 83.92 119.766 83.92C120.306 83.92 120.792 84.06 121.226 84.34C121.659 84.62 121.999 85.0267 122.246 85.56C122.492 86.0933 122.616 86.74 122.616 87.5C122.616 88.26 122.492 88.9067 122.246 89.44C121.999 89.9733 121.659 90.38 121.226 90.66C120.792 90.94 120.306 91.08 119.766 91.08ZM119.766 90.19C120.132 90.19 120.452 90.09 120.726 89.89C121.006 89.69 121.222 89.39 121.376 88.99C121.536 88.59 121.616 88.0933 121.616 87.5C121.616 86.9067 121.536 86.41 121.376 86.01C121.222 85.61 121.006 85.31 120.726 85.11C120.452 84.91 120.132 84.81 119.766 84.81C119.399 84.81 119.076 84.91 118.796 85.11C118.516 85.31 118.296 85.61 118.136 86.01C117.982 86.41 117.906 86.9067 117.906 87.5C117.906 88.0933 117.982 88.59 118.136 88.99C118.296 89.39 118.516 89.69 118.796 89.89C119.076 90.09 119.399 90.19 119.766 90.19ZM129.981 91V89.88L129.931 89.67V87.76C129.931 87.3533 129.811 87.04 129.571 86.82C129.338 86.5933 128.985 86.48 128.511 86.48C128.198 86.48 127.891 86.5333 127.591 86.64C127.291 86.74 127.038 86.8767 126.831 87.05L126.431 86.33C126.705 86.11 127.031 85.9433 127.411 85.83C127.798 85.71 128.201 85.65 128.621 85.65C129.348 85.65 129.908 85.8267 130.301 86.18C130.695 86.5333 130.891 87.0733 130.891 87.8V91H129.981ZM128.241 91.06C127.848 91.06 127.501 90.9933 127.201 90.86C126.908 90.7267 126.681 90.5433 126.521 90.31C126.361 90.07 126.281 89.8 126.281 89.5C126.281 89.2133 126.348 88.9533 126.481 88.72C126.621 88.4867 126.845 88.3 127.151 88.16C127.465 88.02 127.885 87.95 128.411 87.95H130.091V88.64H128.451C127.971 88.64 127.648 88.72 127.481 88.88C127.315 89.04 127.231 89.2333 127.231 89.46C127.231 89.72 127.335 89.93 127.541 90.09C127.748 90.2433 128.035 90.32 128.401 90.32C128.761 90.32 129.075 90.24 129.341 90.08C129.615 89.92 129.811 89.6867 129.931 89.38L130.121 90.04C129.995 90.3533 129.771 90.6033 129.451 90.79C129.131 90.97 128.728 91.06 128.241 91.06ZM139.298 85.65C139.724 85.65 140.101 85.7333 140.428 85.9C140.754 86.0667 141.008 86.32 141.188 86.66C141.374 87 141.468 87.43 141.468 87.95V91H140.508V88.06C140.508 87.5467 140.388 87.16 140.148 86.9C139.908 86.64 139.571 86.51 139.138 86.51C138.818 86.51 138.538 86.5767 138.298 86.71C138.058 86.8433 137.871 87.04 137.738 87.3C137.611 87.56 137.548 87.8833 137.548 88.27V91H136.588V88.06C136.588 87.5467 136.468 87.16 136.228 86.9C135.994 86.64 135.658 86.51 135.218 86.51C134.904 86.51 134.628 86.5767 134.388 86.71C134.148 86.8433 133.961 87.04 133.828 87.3C133.694 87.56 133.628 87.8833 133.628 88.27V91H132.668V85.7H133.588V87.11L133.438 86.75C133.604 86.4033 133.861 86.1333 134.208 85.94C134.554 85.7467 134.958 85.65 135.418 85.65C135.924 85.65 136.361 85.7767 136.728 86.03C137.094 86.2767 137.334 86.6533 137.448 87.16L137.058 87C137.218 86.5933 137.498 86.2667 137.898 86.02C138.298 85.7733 138.764 85.65 139.298 85.65Z" fill="#767676"/>
<path d="M315.03 91L315.89 84H316.6L315.74 91H315.03ZM311.27 89.2V88.47H317.44V89.2H311.27ZM312.43 91L313.3 84H314.01L313.14 91H312.43ZM311.59 86.53V85.8H317.76V86.53H311.59ZM324.137 91.08C323.517 91.08 322.987 90.9433 322.547 90.67C322.107 90.3967 321.77 90.0033 321.537 89.49C321.31 88.97 321.197 88.3367 321.197 87.59C321.197 86.7967 321.337 86.1267 321.617 85.58C321.897 85.0333 322.287 84.62 322.787 84.34C323.287 84.06 323.86 83.92 324.507 83.92C324.84 83.92 325.157 83.9533 325.457 84.02C325.763 84.0867 326.027 84.19 326.247 84.33L325.867 85.11C325.687 84.9833 325.48 84.8967 325.247 84.85C325.02 84.8033 324.78 84.78 324.527 84.78C323.813 84.78 323.247 85.0033 322.827 85.45C322.407 85.89 322.197 86.5467 322.197 87.42C322.197 87.56 322.203 87.7267 322.217 87.92C322.23 88.1133 322.263 88.3033 322.317 88.49L321.977 88.15C322.077 87.8433 322.233 87.5867 322.447 87.38C322.667 87.1667 322.927 87.01 323.227 86.91C323.533 86.8033 323.863 86.75 324.217 86.75C324.683 86.75 325.097 86.8367 325.457 87.01C325.817 87.1833 326.1 87.43 326.307 87.75C326.513 88.0633 326.617 88.4367 326.617 88.87C326.617 89.3167 326.507 89.7067 326.287 90.04C326.067 90.3733 325.77 90.63 325.397 90.81C325.023 90.99 324.603 91.08 324.137 91.08ZM324.097 90.27C324.403 90.27 324.67 90.2133 324.897 90.1C325.13 89.9867 325.313 89.83 325.447 89.63C325.58 89.4233 325.647 89.1833 325.647 88.91C325.647 88.4967 325.503 88.17 325.217 87.93C324.93 87.6833 324.54 87.56 324.047 87.56C323.727 87.56 323.447 87.62 323.207 87.74C322.967 87.86 322.777 88.0233 322.637 88.23C322.503 88.43 322.437 88.66 322.437 88.92C322.437 89.16 322.5 89.3833 322.627 89.59C322.753 89.79 322.94 89.9533 323.187 90.08C323.433 90.2067 323.737 90.27 324.097 90.27ZM330.099 91.08C329.532 91.08 329.042 90.9967 328.629 90.83C328.215 90.6633 327.895 90.4267 327.669 90.12C327.442 89.8067 327.329 89.44 327.329 89.02C327.329 88.6067 327.435 88.2567 327.649 87.97C327.869 87.6767 328.185 87.4567 328.599 87.31C329.012 87.1567 329.512 87.08 330.099 87.08C330.685 87.08 331.185 87.1567 331.599 87.31C332.019 87.4567 332.339 87.6767 332.559 87.97C332.779 88.2633 332.889 88.6133 332.889 89.02C332.889 89.44 332.775 89.8067 332.549 90.12C332.322 90.4267 331.999 90.6633 331.579 90.83C331.159 90.9967 330.665 91.08 330.099 91.08ZM330.099 90.27C330.659 90.27 331.095 90.1567 331.409 89.93C331.729 89.6967 331.889 89.3833 331.889 88.99C331.889 88.6033 331.729 88.3 331.409 88.08C331.095 87.8533 330.659 87.74 330.099 87.74C329.545 87.74 329.112 87.8533 328.799 88.08C328.485 88.3 328.329 88.6033 328.329 88.99C328.329 89.3833 328.485 89.6967 328.799 89.93C329.112 90.1567 329.545 90.27 330.099 90.27ZM330.099 87.62C329.565 87.62 329.112 87.55 328.739 87.41C328.365 87.2633 328.079 87.0567 327.879 86.79C327.679 86.5167 327.579 86.1933 327.579 85.82C327.579 85.4267 327.682 85.09 327.889 84.81C328.102 84.5233 328.399 84.3033 328.779 84.15C329.159 83.9967 329.599 83.92 330.099 83.92C330.605 83.92 331.049 83.9967 331.429 84.15C331.809 84.3033 332.105 84.5233 332.319 84.81C332.532 85.09 332.639 85.4267 332.639 85.82C332.639 86.1933 332.539 86.5167 332.339 86.79C332.139 87.0567 331.849 87.2633 331.469 87.41C331.089 87.55 330.632 87.62 330.099 87.62ZM330.099 86.98C330.585 86.98 330.965 86.88 331.239 86.68C331.519 86.48 331.659 86.2067 331.659 85.86C331.659 85.5067 331.515 85.23 331.229 85.03C330.942 84.83 330.565 84.73 330.099 84.73C329.632 84.73 329.259 84.83 328.979 85.03C328.705 85.23 328.569 85.5067 328.569 85.86C328.569 86.2067 328.702 86.48 328.969 86.68C329.242 86.88 329.619 86.98 330.099 86.98ZM336.074 83.92C336.708 83.92 337.241 84.0567 337.674 84.33C338.114 84.6033 338.448 85 338.674 85.52C338.901 86.0333 339.014 86.6633 339.014 87.41C339.014 88.2033 338.874 88.8733 338.594 89.42C338.314 89.9667 337.928 90.38 337.434 90.66C336.941 90.94 336.364 91.08 335.704 91.08C335.378 91.08 335.061 91.0467 334.754 90.98C334.454 90.9133 334.191 90.81 333.964 90.67L334.344 89.89C334.531 90.01 334.738 90.0967 334.964 90.15C335.198 90.1967 335.441 90.22 335.694 90.22C336.401 90.22 336.964 90 337.384 89.56C337.804 89.1133 338.014 88.4533 338.014 87.58C338.014 87.44 338.008 87.2733 337.994 87.08C337.981 86.8867 337.951 86.6967 337.904 86.51L338.234 86.85C338.141 87.1567 337.984 87.4167 337.764 87.63C337.551 87.8367 337.291 87.9933 336.984 88.1C336.684 88.2 336.354 88.25 335.994 88.25C335.534 88.25 335.124 88.1633 334.764 87.99C334.404 87.8167 334.121 87.5733 333.914 87.26C333.708 86.94 333.604 86.5633 333.604 86.13C333.604 85.6767 333.711 85.2867 333.924 84.96C334.144 84.6267 334.441 84.37 334.814 84.19C335.194 84.01 335.614 83.92 336.074 83.92ZM336.114 84.73C335.814 84.73 335.548 84.7867 335.314 84.9C335.081 85.0133 334.898 85.17 334.764 85.37C334.638 85.57 334.574 85.81 334.574 86.09C334.574 86.5033 334.718 86.8333 335.004 87.08C335.291 87.32 335.678 87.44 336.164 87.44C336.484 87.44 336.764 87.38 337.004 87.26C337.251 87.14 337.441 86.9767 337.574 86.77C337.714 86.5633 337.784 86.3333 337.784 86.08C337.784 85.8333 337.721 85.61 337.594 85.41C337.468 85.21 337.281 85.0467 337.034 84.92C336.788 84.7933 336.481 84.73 336.114 84.73ZM342.706 91.08C342.139 91.08 341.649 90.9967 341.236 90.83C340.823 90.6633 340.503 90.4267 340.276 90.12C340.049 89.8067 339.936 89.44 339.936 89.02C339.936 88.6067 340.043 88.2567 340.256 87.97C340.476 87.6767 340.793 87.4567 341.206 87.31C341.619 87.1567 342.119 87.08 342.706 87.08C343.293 87.08 343.793 87.1567 344.206 87.31C344.626 87.4567 344.946 87.6767 345.166 87.97C345.386 88.2633 345.496 88.6133 345.496 89.02C345.496 89.44 345.383 89.8067 345.156 90.12C344.929 90.4267 344.606 90.6633 344.186 90.83C343.766 90.9967 343.273 91.08 342.706 91.08ZM342.706 90.27C343.266 90.27 343.703 90.1567 344.016 89.93C344.336 89.6967 344.496 89.3833 344.496 88.99C344.496 88.6033 344.336 88.3 344.016 88.08C343.703 87.8533 343.266 87.74 342.706 87.74C342.153 87.74 341.719 87.8533 341.406 88.08C341.093 88.3 340.936 88.6033 340.936 88.99C340.936 89.3833 341.093 89.6967 341.406 89.93C341.719 90.1567 342.153 90.27 342.706 90.27ZM342.706 87.62C342.173 87.62 341.719 87.55 341.346 87.41C340.973 87.2633 340.686 87.0567 340.486 86.79C340.286 86.5167 340.186 86.1933 340.186 85.82C340.186 85.4267 340.289 85.09 340.496 84.81C340.709 84.5233 341.006 84.3033 341.386 84.15C341.766 83.9967 342.206 83.92 342.706 83.92C343.213 83.92 343.656 83.9967 344.036 84.15C344.416 84.3033 344.713 84.5233 344.926 84.81C345.139 85.09 345.246 85.4267 345.246 85.82C345.246 86.1933 345.146 86.5167 344.946 86.79C344.746 87.0567 344.456 87.2633 344.076 87.41C343.696 87.55 343.239 87.62 342.706 87.62ZM342.706 86.98C343.193 86.98 343.573 86.88 343.846 86.68C344.126 86.48 344.266 86.2067 344.266 85.86C344.266 85.5067 344.123 85.23 343.836 85.03C343.549 84.83 343.173 84.73 342.706 84.73C342.239 84.73 341.866 84.83 341.586 85.03C341.313 85.23 341.176 85.5067 341.176 85.86C341.176 86.2067 341.309 86.48 341.576 86.68C341.849 86.88 342.226 86.98 342.706 86.98ZM349.142 91.08C348.575 91.08 348.085 90.9967 347.672 90.83C347.258 90.6633 346.938 90.4267 346.712 90.12C346.485 89.8067 346.372 89.44 346.372 89.02C346.372 88.6067 346.478 88.2567 346.692 87.97C346.912 87.6767 347.228 87.4567 347.642 87.31C348.055 87.1567 348.555 87.08 349.142 87.08C349.728 87.08 350.228 87.1567 350.642 87.31C351.062 87.4567 351.382 87.6767 351.602 87.97C351.822 88.2633 351.932 88.6133 351.932 89.02C351.932 89.44 351.818 89.8067 351.592 90.12C351.365 90.4267 351.042 90.6633 350.622 90.83C350.202 90.9967 349.708 91.08 349.142 91.08ZM349.142 90.27C349.702 90.27 350.138 90.1567 350.452 89.93C350.772 89.6967 350.932 89.3833 350.932 88.99C350.932 88.6033 350.772 88.3 350.452 88.08C350.138 87.8533 349.702 87.74 349.142 87.74C348.588 87.74 348.155 87.8533 347.842 88.08C347.528 88.3 347.372 88.6033 347.372 88.99C347.372 89.3833 347.528 89.6967 347.842 89.93C348.155 90.1567 348.588 90.27 349.142 90.27ZM349.142 87.62C348.608 87.62 348.155 87.55 347.782 87.41C347.408 87.2633 347.122 87.0567 346.922 86.79C346.722 86.5167 346.622 86.1933 346.622 85.82C346.622 85.4267 346.725 85.09 346.932 84.81C347.145 84.5233 347.442 84.3033 347.822 84.15C348.202 83.9967 348.642 83.92 349.142 83.92C349.648 83.92 350.092 83.9967 350.472 84.15C350.852 84.3033 351.148 84.5233 351.362 84.81C351.575 85.09 351.682 85.4267 351.682 85.82C351.682 86.1933 351.582 86.5167 351.382 86.79C351.182 87.0567 350.892 87.2633 350.512 87.41C350.132 87.55 349.675 87.62 349.142 87.62ZM349.142 86.98C349.628 86.98 350.008 86.88 350.282 86.68C350.562 86.48 350.702 86.2067 350.702 85.86C350.702 85.5067 350.558 85.23 350.272 85.03C349.985 84.83 349.608 84.73 349.142 84.73C348.675 84.73 348.302 84.83 348.022 85.03C347.748 85.23 347.612 85.5067 347.612 85.86C347.612 86.2067 347.745 86.48 348.012 86.68C348.285 86.88 348.662 86.98 349.142 86.98Z" fill="#767676"/>
<path d="M16.734 111.47H11.748V113.936H16.092V115.286H11.748V119H10.02V110.12H16.734V111.47ZM17.6758 112.454H19.0618L19.1938 113.264H19.2778C19.5018 112.98 19.7918 112.762 20.1478 112.61C20.5038 112.454 20.8858 112.376 21.2938 112.376C21.5218 112.376 21.7338 112.394 21.9298 112.43V113.93C21.7338 113.894 21.4918 113.876 21.2038 113.876C20.8678 113.876 20.5298 113.936 20.1898 114.056C19.8498 114.176 19.5758 114.354 19.3678 114.59V119H17.6758V112.454ZM25.9343 119.12C25.2303 119.12 24.6183 118.992 24.0983 118.736C23.5783 118.48 23.1763 118.098 22.8923 117.59C22.6083 117.082 22.4663 116.462 22.4663 115.73C22.4663 114.998 22.6043 114.38 22.8803 113.876C23.1603 113.372 23.5583 112.992 24.0743 112.736C24.5943 112.48 25.2143 112.352 25.9343 112.352C26.6583 112.352 27.2783 112.48 27.7943 112.736C28.3143 112.988 28.7123 113.366 28.9883 113.87C29.2643 114.37 29.4023 114.99 29.4023 115.73C29.4023 116.454 29.2583 117.07 28.9703 117.578C28.6863 118.086 28.2823 118.47 27.7583 118.73C27.2383 118.99 26.6303 119.12 25.9343 119.12ZM25.9343 117.812C27.1223 117.812 27.7163 117.12 27.7163 115.736C27.7163 115.016 27.5643 114.492 27.2603 114.164C26.9563 113.832 26.5143 113.666 25.9343 113.666C25.3583 113.666 24.9163 113.83 24.6083 114.158C24.3043 114.486 24.1523 115.008 24.1523 115.724C24.1523 117.116 24.7463 117.812 25.9343 117.812ZM38.6346 112.352C39.3826 112.352 39.9686 112.574 40.3926 113.018C40.8166 113.458 41.0286 114.144 41.0286 115.076V119H39.3486V115.166C39.3486 114.674 39.2466 114.32 39.0426 114.104C38.8426 113.888 38.5586 113.78 38.1906 113.78C37.9146 113.78 37.6566 113.83 37.4166 113.93C37.1766 114.03 36.9666 114.182 36.7866 114.386C36.8146 114.582 36.8286 114.806 36.8286 115.058V119H35.1666V115.166C35.1666 114.67 35.0726 114.316 34.8846 114.104C34.6966 113.888 34.4206 113.78 34.0566 113.78C33.7726 113.78 33.5026 113.84 33.2466 113.96C32.9906 114.08 32.7706 114.254 32.5866 114.482V119H30.8946V112.454H32.2866L32.3946 113.138H32.4786C32.7386 112.886 33.0446 112.692 33.3966 112.556C33.7486 112.42 34.1286 112.352 34.5366 112.352C34.9446 112.352 35.3066 112.426 35.6226 112.574C35.9386 112.722 36.1946 112.946 36.3906 113.246C36.7226 112.934 37.0806 112.708 37.4646 112.568C37.8486 112.424 38.2386 112.352 38.6346 112.352ZM43.6231 119.09C43.2791 119.09 43.0071 119.002 42.8071 118.826C42.6111 118.646 42.5131 118.402 42.5131 118.094C42.5131 117.782 42.6111 117.536 42.8071 117.356C43.0031 117.176 43.2751 117.086 43.6231 117.086C43.9711 117.086 44.2431 117.178 44.4391 117.362C44.6351 117.542 44.7331 117.786 44.7331 118.094C44.7331 118.398 44.6331 118.64 44.4331 118.82C44.2371 119 43.9671 119.09 43.6231 119.09ZM43.6231 114.368C43.2791 114.368 43.0071 114.28 42.8071 114.104C42.6111 113.924 42.5131 113.68 42.5131 113.372C42.5131 113.06 42.6111 112.814 42.8071 112.634C43.0031 112.454 43.2751 112.364 43.6231 112.364C43.9711 112.364 44.2431 112.456 44.4391 112.64C44.6351 112.82 44.7331 113.064 44.7331 113.372C44.7331 113.676 44.6331 113.918 44.4331 114.098C44.2371 114.278 43.9671 114.368 43.6231 114.368ZM46.395 110.288C46.867 110.196 47.333 110.128 47.793 110.084C48.253 110.04 48.739 110.018 49.251 110.018C50.639 110.018 51.679 110.272 52.371 110.78C53.063 111.288 53.409 112.08 53.409 113.156C53.409 115.26 52.031 116.312 49.275 116.312C48.975 116.312 48.591 116.298 48.123 116.27V119H46.395V110.288ZM49.287 115.076C49.863 115.076 50.329 115.008 50.685 114.872C51.045 114.736 51.307 114.528 51.471 114.248C51.639 113.968 51.723 113.606 51.723 113.162C51.723 112.502 51.533 112.02 51.153 111.716C50.777 111.408 50.193 111.254 49.401 111.254C48.949 111.254 48.523 111.288 48.123 111.356V114.998C48.491 115.05 48.879 115.076 49.287 115.076ZM57.0616 112.352C57.8096 112.352 58.4136 112.438 58.8736 112.61C59.3376 112.782 59.6816 113.068 59.9056 113.468C60.1336 113.868 60.2476 114.414 60.2476 115.106V119H58.8376L58.7236 118.34H58.6396C58.3996 118.588 58.0996 118.78 57.7396 118.916C57.3796 119.048 56.9936 119.114 56.5816 119.114C56.0816 119.114 55.6556 119.036 55.3036 118.88C54.9556 118.724 54.6916 118.506 54.5116 118.226C54.3316 117.946 54.2416 117.62 54.2416 117.248C54.2416 116.648 54.4716 116.184 54.9316 115.856C55.3916 115.524 56.1196 115.322 57.1156 115.25L58.5916 115.112V114.98C58.5916 114.624 58.5296 114.348 58.4056 114.152C58.2816 113.952 58.0896 113.81 57.8296 113.726C57.5736 113.642 57.2276 113.6 56.7916 113.6C56.4876 113.6 56.1556 113.626 55.7956 113.678C55.4396 113.726 55.1016 113.8 54.7816 113.9V112.67C55.1176 112.566 55.4876 112.488 55.8916 112.436C56.2996 112.38 56.6896 112.352 57.0616 112.352ZM57.0796 117.98C57.3556 117.98 57.6236 117.934 57.8836 117.842C58.1436 117.75 58.3796 117.612 58.5916 117.428V116.066L57.2536 116.186C56.7776 116.234 56.4376 116.334 56.2336 116.486C56.0296 116.634 55.9276 116.844 55.9276 117.116C55.9276 117.388 56.0236 117.6 56.2156 117.752C56.4076 117.904 56.6956 117.98 57.0796 117.98ZM62.0078 112.454H63.3998L63.5078 113.138H63.5918C63.8878 112.886 64.2298 112.692 64.6178 112.556C65.0098 112.42 65.4238 112.352 65.8598 112.352C66.6558 112.352 67.2818 112.576 67.7378 113.024C68.1938 113.468 68.4218 114.16 68.4218 115.1V119H66.7298V115.178C66.7298 114.678 66.6178 114.32 66.3938 114.104C66.1738 113.888 65.8458 113.78 65.4098 113.78C65.0978 113.78 64.7878 113.838 64.4798 113.954C64.1758 114.07 63.9158 114.242 63.6998 114.47V119H62.0078V112.454ZM73.7158 117.758C73.9398 117.758 74.2178 117.726 74.5498 117.662V118.976C74.1218 119.072 73.6918 119.12 73.2598 119.12C72.4158 119.12 71.7738 118.918 71.3338 118.514C70.8978 118.11 70.6798 117.5 70.6798 116.684V113.798H69.4318V112.454H70.6798L70.9798 110.12H72.3718V112.454H74.4838V113.798H72.3718V116.366C72.3718 116.87 72.4798 117.228 72.6958 117.44C72.9118 117.652 73.2518 117.758 73.7158 117.758ZM75.6953 112.454H77.0813L77.2133 113.264H77.2973C77.5213 112.98 77.8113 112.762 78.1673 112.61C78.5233 112.454 78.9053 112.376 79.3133 112.376C79.5413 112.376 79.7533 112.394 79.9493 112.43V113.93C79.7533 113.894 79.5113 113.876 79.2233 113.876C78.8873 113.876 78.5493 113.936 78.2093 114.056C77.8693 114.176 77.5953 114.354 77.3873 114.59V119H75.6953V112.454ZM86.3618 112.454H88.0238L84.1178 121.64H82.4558L83.5838 119H83.1758L80.4038 112.454H82.1978L84.2618 117.602L86.3618 112.454Z" fill="#767676"/>
<path d="M273.336 119V111.494H270.126V110.12H278.274V111.494H275.064V119H273.336ZM281.427 119.12C280.723 119.12 280.111 118.992 279.591 118.736C279.071 118.48 278.669 118.098 278.385 117.59C278.101 117.082 277.959 116.462 277.959 115.73C277.959 114.998 278.097 114.38 278.373 113.876C278.653 113.372 279.051 112.992 279.567 112.736C280.087 112.48 280.707 112.352 281.427 112.352C282.151 112.352 282.771 112.48 283.287 112.736C283.807 112.988 284.205 113.366 284.481 113.87C284.757 114.37 284.895 114.99 284.895 115.73C284.895 116.454 284.751 117.07 284.463 117.578C284.179 118.086 283.775 118.47 283.251 118.73C282.731 118.99 282.123 119.12 281.427 119.12ZM281.427 117.812C282.615 117.812 283.209 117.12 283.209 115.736C283.209 115.016 283.057 114.492 282.753 114.164C282.449 113.832 282.007 113.666 281.427 113.666C280.851 113.666 280.409 113.83 280.101 114.158C279.797 114.486 279.645 115.008 279.645 115.724C279.645 117.116 280.239 117.812 281.427 117.812ZM287.221 119.09C286.877 119.09 286.605 119.002 286.405 118.826C286.209 118.646 286.111 118.402 286.111 118.094C286.111 117.782 286.209 117.536 286.405 117.356C286.601 117.176 286.873 117.086 287.221 117.086C287.569 117.086 287.841 117.178 288.037 117.362C288.233 117.542 288.331 117.786 288.331 118.094C288.331 118.398 288.231 118.64 288.031 118.82C287.835 119 287.565 119.09 287.221 119.09ZM287.221 114.368C286.877 114.368 286.605 114.28 286.405 114.104C286.209 113.924 286.111 113.68 286.111 113.372C286.111 113.06 286.209 112.814 286.405 112.634C286.601 112.454 286.873 112.364 287.221 112.364C287.569 112.364 287.841 112.456 288.037 112.64C288.233 112.82 288.331 113.064 288.331 113.372C288.331 113.676 288.231 113.918 288.031 114.098C287.835 114.278 287.565 114.368 287.221 114.368ZM295.795 119L293.149 115.61H292.939C292.567 115.61 292.151 115.594 291.691 115.562V119H289.993V110.348C290.425 110.248 290.901 110.168 291.421 110.108C291.941 110.048 292.451 110.018 292.951 110.018C294.303 110.018 295.309 110.242 295.969 110.69C296.633 111.134 296.965 111.836 296.965 112.796C296.965 113.456 296.787 114.004 296.431 114.44C296.075 114.872 295.555 115.184 294.871 115.376L297.727 119H295.795ZM291.691 114.296C292.147 114.344 292.587 114.368 293.011 114.368C293.823 114.368 294.415 114.244 294.787 113.996C295.163 113.744 295.351 113.348 295.351 112.808C295.351 112.432 295.271 112.13 295.111 111.902C294.955 111.674 294.711 111.508 294.379 111.404C294.051 111.3 293.621 111.248 293.089 111.248C292.625 111.248 292.159 111.292 291.691 111.38V114.296ZM304.451 116.204H299.783C299.807 116.608 299.901 116.934 300.065 117.182C300.233 117.426 300.489 117.606 300.833 117.722C301.177 117.834 301.633 117.89 302.201 117.89C302.757 117.89 303.377 117.812 304.061 117.656V118.874C303.365 119.038 302.663 119.12 301.955 119.12C300.655 119.12 299.687 118.846 299.051 118.298C298.419 117.746 298.103 116.894 298.103 115.742C298.103 115.03 298.229 114.42 298.481 113.912C298.737 113.404 299.109 113.018 299.597 112.754C300.089 112.486 300.679 112.352 301.367 112.352C302.367 112.352 303.131 112.65 303.659 113.246C304.187 113.842 304.451 114.69 304.451 115.79V116.204ZM301.337 113.414C300.837 113.414 300.455 113.564 300.191 113.864C299.931 114.16 299.793 114.62 299.777 115.244H302.879C302.863 114.62 302.727 114.16 302.471 113.864C302.215 113.564 301.837 113.414 301.337 113.414ZM309.164 119.12C307.972 119.12 307.06 118.834 306.428 118.262C305.8 117.69 305.486 116.85 305.486 115.742C305.486 114.634 305.814 113.792 306.47 113.216C307.13 112.64 308.09 112.352 309.35 112.352C309.982 112.352 310.55 112.418 311.054 112.55V113.864C310.766 113.804 310.5 113.76 310.256 113.732C310.016 113.704 309.766 113.69 309.506 113.69C308.722 113.69 308.144 113.856 307.772 114.188C307.404 114.516 307.22 115.03 307.22 115.73C307.22 116.426 307.398 116.942 307.754 117.278C308.11 117.614 308.638 117.782 309.338 117.782C309.598 117.782 309.862 117.762 310.13 117.722C310.398 117.682 310.706 117.614 311.054 117.518V118.838C310.482 119.026 309.852 119.12 309.164 119.12ZM318.232 116.204H313.564C313.588 116.608 313.682 116.934 313.846 117.182C314.014 117.426 314.27 117.606 314.614 117.722C314.958 117.834 315.414 117.89 315.982 117.89C316.538 117.89 317.158 117.812 317.842 117.656V118.874C317.146 119.038 316.444 119.12 315.736 119.12C314.436 119.12 313.468 118.846 312.832 118.298C312.2 117.746 311.884 116.894 311.884 115.742C311.884 115.03 312.01 114.42 312.262 113.912C312.518 113.404 312.89 113.018 313.378 112.754C313.87 112.486 314.46 112.352 315.148 112.352C316.148 112.352 316.912 112.65 317.44 113.246C317.968 113.842 318.232 114.69 318.232 115.79V116.204ZM315.118 113.414C314.618 113.414 314.236 113.564 313.972 113.864C313.712 114.16 313.574 114.62 313.558 115.244H316.66C316.644 114.62 316.508 114.16 316.252 113.864C315.996 113.564 315.618 113.414 315.118 113.414ZM319.621 112.454H321.037L321.139 113.168H321.217C321.473 112.912 321.779 112.712 322.135 112.568C322.495 112.424 322.889 112.352 323.317 112.352C323.901 112.352 324.419 112.466 324.871 112.694C325.327 112.918 325.687 113.272 325.951 113.756C326.219 114.24 326.353 114.852 326.353 115.592C326.353 116.348 326.205 116.99 325.909 117.518C325.617 118.046 325.187 118.446 324.619 118.718C324.055 118.986 323.373 119.12 322.573 119.12C322.249 119.12 321.829 119.09 321.313 119.03V121.64H319.621V112.454ZM322.477 117.83C323.217 117.83 323.767 117.656 324.127 117.308C324.487 116.96 324.667 116.428 324.667 115.712C324.667 114.38 324.071 113.714 322.879 113.714C322.579 113.714 322.293 113.766 322.021 113.87C321.749 113.974 321.513 114.138 321.313 114.362V117.704C321.677 117.788 322.065 117.83 322.477 117.83ZM331.153 117.758C331.377 117.758 331.655 117.726 331.987 117.662V118.976C331.559 119.072 331.129 119.12 330.697 119.12C329.853 119.12 329.211 118.918 328.771 118.514C328.335 118.11 328.117 117.5 328.117 116.684V113.798H326.869V112.454H328.117L328.417 110.12H329.809V112.454H331.921V113.798H329.809V116.366C329.809 116.87 329.917 117.228 330.133 117.44C330.349 117.652 330.689 117.758 331.153 117.758ZM333.18 119V112.454H334.872V119H333.18ZM334.026 111.338C333.674 111.338 333.408 111.266 333.228 111.122C333.052 110.974 332.964 110.76 332.964 110.48C332.964 110.2 333.052 109.986 333.228 109.838C333.408 109.69 333.674 109.616 334.026 109.616C334.378 109.616 334.642 109.69 334.818 109.838C334.998 109.986 335.088 110.2 335.088 110.48C335.088 110.76 334.998 110.974 334.818 111.122C334.642 111.266 334.378 111.338 334.026 111.338ZM339.821 119.12C339.117 119.12 338.505 118.992 337.985 118.736C337.465 118.48 337.063 118.098 336.779 117.59C336.495 117.082 336.353 116.462 336.353 115.73C336.353 114.998 336.491 114.38 336.767 113.876C337.047 113.372 337.445 112.992 337.961 112.736C338.481 112.48 339.101 112.352 339.821 112.352C340.545 112.352 341.165 112.48 341.681 112.736C342.201 112.988 342.599 113.366 342.875 113.87C343.151 114.37 343.289 114.99 343.289 115.73C343.289 116.454 343.145 117.07 342.857 117.578C342.573 118.086 342.169 118.47 341.645 118.73C341.125 118.99 340.517 119.12 339.821 119.12ZM339.821 117.812C341.009 117.812 341.603 117.12 341.603 115.736C341.603 115.016 341.451 114.492 341.147 114.164C340.843 113.832 340.401 113.666 339.821 113.666C339.245 113.666 338.803 113.83 338.495 114.158C338.191 114.486 338.039 115.008 338.039 115.724C338.039 117.116 338.633 117.812 339.821 117.812ZM344.781 112.454H346.173L346.281 113.138H346.365C346.661 112.886 347.003 112.692 347.391 112.556C347.783 112.42 348.197 112.352 348.633 112.352C349.429 112.352 350.055 112.576 350.511 113.024C350.967 113.468 351.195 114.16 351.195 115.1V119H349.503V115.178C349.503 114.678 349.391 114.32 349.167 114.104C348.947 113.888 348.619 113.78 348.183 113.78C347.871 113.78 347.561 113.838 347.253 113.954C346.949 114.07 346.689 114.242 346.473 114.47V119H344.781V112.454Z" fill="#767676"/>
<path d="M9.5 149.5C9.5 141.216 16.2157 134.5 24.5 134.5H337.5C345.784 134.5 352.5 141.216 352.5 149.5C352.5 157.784 345.784 164.5 337.5 164.5H24.5C16.2157 164.5 9.5 157.784 9.5 149.5Z" stroke="#5F69C7"/>
<path d="M149.716 145.12H151.072L147.562 154H145.612L142.102 145.12H143.554L146.626 152.986L149.716 145.12ZM152.166 154V147.472H153.498V154H152.166ZM152.832 146.2C152.548 146.2 152.332 146.138 152.184 146.014C152.04 145.89 151.968 145.712 151.968 145.48C151.968 145.244 152.04 145.064 152.184 144.94C152.332 144.812 152.548 144.748 152.832 144.748C153.116 144.748 153.33 144.812 153.474 144.94C153.622 145.064 153.696 145.244 153.696 145.48C153.696 145.712 153.622 145.89 153.474 146.014C153.33 146.138 153.116 146.2 152.832 146.2ZM161.176 151.132H156.442C156.466 151.604 156.568 151.986 156.748 152.278C156.928 152.566 157.198 152.778 157.558 152.914C157.918 153.05 158.38 153.118 158.944 153.118C159.504 153.118 160.124 153.032 160.804 152.86V153.85C160.096 154.03 159.414 154.12 158.758 154.12C157.542 154.12 156.63 153.846 156.022 153.298C155.418 152.746 155.116 151.896 155.116 150.748C155.116 150.028 155.238 149.416 155.482 148.912C155.726 148.408 156.078 148.026 156.538 147.766C157.002 147.502 157.56 147.37 158.212 147.37C159.172 147.37 159.906 147.664 160.414 148.252C160.922 148.836 161.176 149.68 161.176 150.784V151.132ZM158.194 148.252C157.634 148.252 157.206 148.422 156.91 148.762C156.614 149.098 156.456 149.62 156.436 150.328H159.922C159.906 149.62 159.754 149.098 159.466 148.762C159.178 148.422 158.754 148.252 158.194 148.252ZM171.535 147.472H172.783L170.713 154H169.165L167.443 148.666L165.709 154H164.167L162.079 147.472H163.387L165.013 152.698L166.687 147.472H168.229L169.897 152.662L171.535 147.472ZM180.313 154.072C179.433 154.072 178.571 154.018 177.727 153.91V145.33C178.147 145.238 178.615 145.166 179.131 145.114C179.651 145.062 180.145 145.036 180.613 145.036C182.305 145.036 183.581 145.412 184.441 146.164C185.305 146.916 185.737 148.048 185.737 149.56C185.737 151.1 185.289 152.238 184.393 152.974C183.497 153.706 182.137 154.072 180.313 154.072ZM180.619 152.962C181.887 152.962 182.825 152.686 183.433 152.134C184.041 151.582 184.345 150.72 184.345 149.548C184.345 148.388 184.039 147.53 183.427 146.974C182.815 146.414 181.887 146.134 180.643 146.134C180.187 146.134 179.667 146.18 179.083 146.272V152.872C179.507 152.932 180.019 152.962 180.619 152.962ZM193.122 151.132H188.388C188.412 151.604 188.514 151.986 188.694 152.278C188.874 152.566 189.144 152.778 189.504 152.914C189.864 153.05 190.326 153.118 190.89 153.118C191.45 153.118 192.07 153.032 192.75 152.86V153.85C192.042 154.03 191.36 154.12 190.704 154.12C189.488 154.12 188.576 153.846 187.968 153.298C187.364 152.746 187.062 151.896 187.062 150.748C187.062 150.028 187.184 149.416 187.428 148.912C187.672 148.408 188.024 148.026 188.484 147.766C188.948 147.502 189.506 147.37 190.158 147.37C191.118 147.37 191.852 147.664 192.36 148.252C192.868 148.836 193.122 149.68 193.122 150.784V151.132ZM190.14 148.252C189.58 148.252 189.152 148.422 188.856 148.762C188.56 149.098 188.402 149.62 188.382 150.328H191.868C191.852 149.62 191.7 149.098 191.412 148.762C191.124 148.422 190.7 148.252 190.14 148.252ZM197.817 153.028C197.945 153.028 198.075 153.02 198.207 153.004C198.339 152.988 198.503 152.96 198.699 152.92V153.976C198.291 154.072 197.885 154.12 197.481 154.12C196.677 154.12 196.065 153.924 195.645 153.532C195.225 153.14 195.015 152.548 195.015 151.756V148.546H193.713V147.472H195.015L195.243 145.12H196.347V147.472H198.609V148.546H196.347V151.51C196.347 152.05 196.467 152.438 196.707 152.674C196.947 152.91 197.317 153.028 197.817 153.028ZM202.183 147.37C202.871 147.37 203.431 147.452 203.863 147.616C204.295 147.776 204.619 148.044 204.835 148.42C205.051 148.796 205.159 149.308 205.159 149.956V154H204.043L203.947 153.298H203.875C203.631 153.554 203.323 153.754 202.951 153.898C202.579 154.038 202.183 154.108 201.763 154.108C201.283 154.108 200.873 154.034 200.533 153.886C200.193 153.734 199.935 153.522 199.759 153.25C199.583 152.978 199.495 152.658 199.495 152.29C199.495 151.71 199.711 151.262 200.143 150.946C200.579 150.626 201.271 150.424 202.219 150.34L203.851 150.178V149.866C203.851 149.482 203.785 149.182 203.653 148.966C203.521 148.75 203.321 148.598 203.053 148.51C202.789 148.422 202.437 148.378 201.997 148.378C201.693 148.378 201.363 148.404 201.007 148.456C200.655 148.508 200.317 148.586 199.993 148.69V147.694C200.313 147.59 200.667 147.51 201.055 147.454C201.447 147.398 201.823 147.37 202.183 147.37ZM202.117 153.184C202.437 153.184 202.747 153.128 203.047 153.016C203.347 152.9 203.615 152.728 203.851 152.5V150.97L202.321 151.12C201.789 151.18 201.409 151.296 201.181 151.468C200.953 151.636 200.839 151.876 200.839 152.188C200.839 152.504 200.945 152.75 201.157 152.926C201.369 153.098 201.689 153.184 202.117 153.184ZM207.056 154V147.472H208.388V154H207.056ZM207.722 146.2C207.438 146.2 207.222 146.138 207.074 146.014C206.93 145.89 206.858 145.712 206.858 145.48C206.858 145.244 206.93 145.064 207.074 144.94C207.222 144.812 207.438 144.748 207.722 144.748C208.006 144.748 208.22 144.812 208.364 144.94C208.512 145.064 208.586 145.244 208.586 145.48C208.586 145.712 208.512 145.89 208.364 146.014C208.22 146.138 208.006 146.2 207.722 146.2ZM210.373 154V144.304H211.705V154H210.373ZM215.681 154.12C214.861 154.12 214.117 154.024 213.449 153.832V152.866C214.165 153.066 214.911 153.166 215.687 153.166C216.287 153.166 216.719 153.086 216.983 152.926C217.247 152.762 217.379 152.524 217.379 152.212C217.379 152.044 217.349 151.906 217.289 151.798C217.229 151.686 217.127 151.594 216.983 151.522C216.839 151.446 216.641 151.388 216.389 151.348L215.231 151.168C214.559 151.06 214.073 150.856 213.773 150.556C213.477 150.256 213.329 149.854 213.329 149.35C213.329 148.738 213.581 148.256 214.085 147.904C214.593 147.548 215.367 147.37 216.407 147.37C216.735 147.37 217.061 147.392 217.385 147.436C217.713 147.476 218.015 147.536 218.291 147.616V148.576C217.683 148.408 217.057 148.324 216.413 148.324C215.753 148.324 215.287 148.41 215.015 148.582C214.743 148.754 214.607 148.992 214.607 149.296C214.607 149.524 214.677 149.71 214.817 149.854C214.957 149.994 215.207 150.096 215.567 150.16L216.725 150.34C217.393 150.444 217.883 150.636 218.195 150.916C218.507 151.196 218.663 151.602 218.663 152.134C218.663 152.546 218.551 152.9 218.327 153.196C218.107 153.492 217.773 153.72 217.325 153.88C216.881 154.04 216.333 154.12 215.681 154.12Z" fill="#5F69C7"/>
</svg>
