<svg width="83" height="23" viewBox="0 0 83 23" fill="none" xmlns="http://www.w3.org/2000/svg">
<rect width="83" height="23" rx="11.5" fill="#F7F7F7"/>
<path d="M13.052 16.096C12.404 16.096 11.808 15.992 11.264 15.784C10.72 15.568 10.248 15.268 9.848 14.884C9.448 14.492 9.136 14.036 8.912 13.516C8.688 12.996 8.576 12.424 8.576 11.8C8.576 11.176 8.688 10.604 8.912 10.084C9.136 9.564 9.448 9.112 9.848 8.728C10.256 8.336 10.732 8.036 11.276 7.828C11.82 7.612 12.42 7.504 13.076 7.504C13.74 7.504 14.348 7.612 14.9 7.828C15.452 8.044 15.92 8.368 16.304 8.8L15.56 9.544C15.216 9.208 14.84 8.964 14.432 8.812C14.032 8.652 13.596 8.572 13.124 8.572C12.644 8.572 12.196 8.652 11.78 8.812C11.372 8.972 11.016 9.196 10.712 9.484C10.416 9.772 10.184 10.116 10.016 10.516C9.856 10.908 9.776 11.336 9.776 11.8C9.776 12.256 9.856 12.684 10.016 13.084C10.184 13.476 10.416 13.82 10.712 14.116C11.016 14.404 11.372 14.628 11.78 14.788C12.188 14.948 12.632 15.028 13.112 15.028C13.56 15.028 13.988 14.96 14.396 14.824C14.812 14.68 15.196 14.444 15.548 14.116L16.232 15.028C15.816 15.38 15.328 15.648 14.768 15.832C14.216 16.008 13.644 16.096 13.052 16.096ZM15.08 14.872V11.752H16.232V15.028L15.08 14.872ZM21.0375 16.072C20.4935 16.072 20.0135 15.972 19.5975 15.772C19.1895 15.572 18.8695 15.268 18.6375 14.86C18.4135 14.444 18.3015 13.924 18.3015 13.3V9.64H19.4535V13.168C19.4535 13.792 19.6015 14.26 19.8975 14.572C20.2015 14.884 20.6255 15.04 21.1695 15.04C21.5695 15.04 21.9175 14.96 22.2135 14.8C22.5095 14.632 22.7375 14.392 22.8975 14.08C23.0575 13.76 23.1375 13.376 23.1375 12.928V9.64H24.2895V16H23.1975V14.284L23.3775 14.74C23.1695 15.164 22.8575 15.492 22.4415 15.724C22.0255 15.956 21.5575 16.072 21.0375 16.072ZM29.3146 16.072C28.6346 16.072 28.0346 15.932 27.5146 15.652C27.0026 15.372 26.6026 14.988 26.3146 14.5C26.0346 14.012 25.8946 13.452 25.8946 12.82C25.8946 12.188 26.0306 11.628 26.3026 11.14C26.5826 10.652 26.9626 10.272 27.4426 10C27.9306 9.72 28.4786 9.58 29.0866 9.58C29.7026 9.58 30.2466 9.716 30.7186 9.988C31.1906 10.26 31.5586 10.644 31.8226 11.14C32.0946 11.628 32.2306 12.2 32.2306 12.856C32.2306 12.904 32.2266 12.96 32.2186 13.024C32.2186 13.088 32.2146 13.148 32.2066 13.204H26.7946V12.376H31.6066L31.1386 12.664C31.1466 12.256 31.0626 11.892 30.8866 11.572C30.7106 11.252 30.4666 11.004 30.1546 10.828C29.8506 10.644 29.4946 10.552 29.0866 10.552C28.6866 10.552 28.3306 10.644 28.0186 10.828C27.7066 11.004 27.4626 11.256 27.2866 11.584C27.1106 11.904 27.0226 12.272 27.0226 12.688V12.88C27.0226 13.304 27.1186 13.684 27.3106 14.02C27.5106 14.348 27.7866 14.604 28.1386 14.788C28.4906 14.972 28.8946 15.064 29.3506 15.064C29.7266 15.064 30.0666 15 30.3706 14.872C30.6826 14.744 30.9546 14.552 31.1866 14.296L31.8226 15.04C31.5346 15.376 31.1746 15.632 30.7426 15.808C30.3186 15.984 29.8426 16.072 29.3146 16.072ZM35.6543 16.072C35.1263 16.072 34.6223 16 34.1423 15.856C33.6703 15.712 33.2983 15.536 33.0263 15.328L33.5063 14.416C33.7783 14.6 34.1143 14.756 34.5143 14.884C34.9143 15.012 35.3223 15.076 35.7383 15.076C36.2743 15.076 36.6583 15 36.8903 14.848C37.1303 14.696 37.2503 14.484 37.2503 14.212C37.2503 14.012 37.1783 13.856 37.0343 13.744C36.8903 13.632 36.6983 13.548 36.4583 13.492C36.2263 13.436 35.9663 13.388 35.6783 13.348C35.3903 13.3 35.1023 13.244 34.8143 13.18C34.5263 13.108 34.2623 13.012 34.0223 12.892C33.7823 12.764 33.5903 12.592 33.4463 12.376C33.3023 12.152 33.2303 11.856 33.2303 11.488C33.2303 11.104 33.3383 10.768 33.5543 10.48C33.7703 10.192 34.0743 9.972 34.4663 9.82C34.8663 9.66 35.3383 9.58 35.8823 9.58C36.2983 9.58 36.7183 9.632 37.1423 9.736C37.5743 9.832 37.9263 9.972 38.1983 10.156L37.7063 11.068C37.4183 10.876 37.1183 10.744 36.8063 10.672C36.4943 10.6 36.1823 10.564 35.8703 10.564C35.3663 10.564 34.9903 10.648 34.7423 10.816C34.4943 10.976 34.3703 11.184 34.3703 11.44C34.3703 11.656 34.4423 11.824 34.5863 11.944C34.7383 12.056 34.9303 12.144 35.1623 12.208C35.4023 12.272 35.6663 12.328 35.9543 12.376C36.2423 12.416 36.5303 12.472 36.8183 12.544C37.1063 12.608 37.3663 12.7 37.5983 12.82C37.8383 12.94 38.0303 13.108 38.1743 13.324C38.3263 13.54 38.4023 13.828 38.4023 14.188C38.4023 14.572 38.2903 14.904 38.0663 15.184C37.8423 15.464 37.5263 15.684 37.1183 15.844C36.7103 15.996 36.2223 16.072 35.6543 16.072ZM42.026 16.072C41.386 16.072 40.89 15.9 40.538 15.556C40.186 15.212 40.01 14.72 40.01 14.08V8.248H41.162V14.032C41.162 14.376 41.246 14.64 41.414 14.824C41.59 15.008 41.838 15.1 42.158 15.1C42.518 15.1 42.818 15 43.058 14.8L43.418 15.628C43.242 15.78 43.03 15.892 42.782 15.964C42.542 16.036 42.29 16.072 42.026 16.072ZM38.93 10.588V9.64H42.986V10.588H38.93ZM49.8694 16V8.644H46.9894V7.6H53.9374V8.644H51.0574V16H49.8694ZM58.6845 16V14.656L58.6245 14.404V12.112C58.6245 11.624 58.4805 11.248 58.1925 10.984C57.9125 10.712 57.4885 10.576 56.9205 10.576C56.5445 10.576 56.1765 10.64 55.8165 10.768C55.4565 10.888 55.1525 11.052 54.9045 11.26L54.4245 10.396C54.7525 10.132 55.1445 9.932 55.6005 9.796C56.0645 9.652 56.5485 9.58 57.0525 9.58C57.9245 9.58 58.5965 9.792 59.0685 10.216C59.5405 10.64 59.7765 11.288 59.7765 12.16V16H58.6845ZM56.5965 16.072C56.1245 16.072 55.7085 15.992 55.3485 15.832C54.9965 15.672 54.7245 15.452 54.5325 15.172C54.3405 14.884 54.2445 14.56 54.2445 14.2C54.2445 13.856 54.3245 13.544 54.4845 13.264C54.6525 12.984 54.9205 12.76 55.2885 12.592C55.6645 12.424 56.1685 12.34 56.8005 12.34H58.8165V13.168H56.8485C56.2725 13.168 55.8845 13.264 55.6845 13.456C55.4845 13.648 55.3845 13.88 55.3845 14.152C55.3845 14.464 55.5085 14.716 55.7565 14.908C56.0045 15.092 56.3485 15.184 56.7885 15.184C57.2205 15.184 57.5965 15.088 57.9165 14.896C58.2445 14.704 58.4805 14.424 58.6245 14.056L58.8525 14.848C58.7005 15.224 58.4325 15.524 58.0485 15.748C57.6645 15.964 57.1805 16.072 56.5965 16.072ZM63.7324 16.072C63.2044 16.072 62.7004 16 62.2204 15.856C61.7484 15.712 61.3764 15.536 61.1044 15.328L61.5844 14.416C61.8564 14.6 62.1924 14.756 62.5924 14.884C62.9924 15.012 63.4004 15.076 63.8164 15.076C64.3524 15.076 64.7364 15 64.9684 14.848C65.2084 14.696 65.3284 14.484 65.3284 14.212C65.3284 14.012 65.2564 13.856 65.1124 13.744C64.9684 13.632 64.7764 13.548 64.5364 13.492C64.3044 13.436 64.0444 13.388 63.7564 13.348C63.4684 13.3 63.1804 13.244 62.8924 13.18C62.6044 13.108 62.3404 13.012 62.1004 12.892C61.8604 12.764 61.6684 12.592 61.5244 12.376C61.3804 12.152 61.3084 11.856 61.3084 11.488C61.3084 11.104 61.4164 10.768 61.6324 10.48C61.8484 10.192 62.1524 9.972 62.5444 9.82C62.9444 9.66 63.4164 9.58 63.9604 9.58C64.3764 9.58 64.7964 9.632 65.2204 9.736C65.6524 9.832 66.0044 9.972 66.2764 10.156L65.7844 11.068C65.4964 10.876 65.1964 10.744 64.8844 10.672C64.5724 10.6 64.2604 10.564 63.9484 10.564C63.4444 10.564 63.0684 10.648 62.8204 10.816C62.5724 10.976 62.4484 11.184 62.4484 11.44C62.4484 11.656 62.5204 11.824 62.6644 11.944C62.8164 12.056 63.0084 12.144 63.2404 12.208C63.4804 12.272 63.7444 12.328 64.0324 12.376C64.3204 12.416 64.6084 12.472 64.8964 12.544C65.1844 12.608 65.4444 12.7 65.6764 12.82C65.9164 12.94 66.1084 13.108 66.2524 13.324C66.4044 13.54 66.4804 13.828 66.4804 14.188C66.4804 14.572 66.3684 14.904 66.1444 15.184C65.9204 15.464 65.6044 15.684 65.1964 15.844C64.7884 15.996 64.3004 16.072 63.7324 16.072ZM68.8561 14.464L68.8801 12.988L72.5401 9.64H73.9321L71.1241 12.4L70.5001 12.928L68.8561 14.464ZM67.9201 16V7.096H69.0721V16H67.9201ZM72.7801 16L70.2841 12.904L71.0281 11.98L74.1961 16H72.7801Z" fill="#DC5B19"/>
</svg>
