<svg width="95" height="23" viewBox="0 0 95 23" fill="none" xmlns="http://www.w3.org/2000/svg">
<rect width="95" height="23" rx="11.5" fill="#F7F7F7"/>
<path d="M9.26 16V7.6H10.46V16H9.26ZM16.2028 9.58C16.7228 9.58 17.1788 9.68 17.5708 9.88C17.9708 10.08 18.2828 10.384 18.5068 10.792C18.7308 11.2 18.8428 11.716 18.8428 12.34V16H17.6908V12.472C17.6908 11.856 17.5388 11.392 17.2348 11.08C16.9388 10.768 16.5188 10.612 15.9748 10.612C15.5668 10.612 15.2108 10.692 14.9068 10.852C14.6028 11.012 14.3668 11.248 14.1988 11.56C14.0388 11.872 13.9588 12.26 13.9588 12.724V16H12.8068V9.64H13.9108V11.356L13.7308 10.9C13.9388 10.484 14.2588 10.16 14.6908 9.928C15.1228 9.696 15.6268 9.58 16.2028 9.58ZM23.1588 16.072C22.5188 16.072 22.0228 15.9 21.6708 15.556C21.3188 15.212 21.1428 14.72 21.1428 14.08V8.248H22.2948V14.032C22.2948 14.376 22.3788 14.64 22.5468 14.824C22.7228 15.008 22.9708 15.1 23.2908 15.1C23.6508 15.1 23.9508 15 24.1908 14.8L24.5508 15.628C24.3748 15.78 24.1628 15.892 23.9148 15.964C23.6748 16.036 23.4228 16.072 23.1588 16.072ZM20.0628 10.588V9.64H24.1188V10.588H20.0628ZM28.5646 16.072C27.8846 16.072 27.2846 15.932 26.7646 15.652C26.2526 15.372 25.8526 14.988 25.5646 14.5C25.2846 14.012 25.1446 13.452 25.1446 12.82C25.1446 12.188 25.2806 11.628 25.5526 11.14C25.8326 10.652 26.2126 10.272 26.6926 10C27.1806 9.72 27.7286 9.58 28.3366 9.58C28.9526 9.58 29.4966 9.716 29.9686 9.988C30.4406 10.26 30.8086 10.644 31.0726 11.14C31.3446 11.628 31.4806 12.2 31.4806 12.856C31.4806 12.904 31.4766 12.96 31.4686 13.024C31.4686 13.088 31.4646 13.148 31.4566 13.204H26.0446V12.376H30.8566L30.3886 12.664C30.3966 12.256 30.3126 11.892 30.1366 11.572C29.9606 11.252 29.7166 11.004 29.4046 10.828C29.1006 10.644 28.7446 10.552 28.3366 10.552C27.9366 10.552 27.5806 10.644 27.2686 10.828C26.9566 11.004 26.7126 11.256 26.5366 11.584C26.3606 11.904 26.2726 12.272 26.2726 12.688V12.88C26.2726 13.304 26.3686 13.684 26.5606 14.02C26.7606 14.348 27.0366 14.604 27.3886 14.788C27.7406 14.972 28.1446 15.064 28.6006 15.064C28.9766 15.064 29.3166 15 29.6206 14.872C29.9326 14.744 30.2046 14.552 30.4366 14.296L31.0726 15.04C30.7846 15.376 30.4246 15.632 29.9926 15.808C29.5686 15.984 29.0926 16.072 28.5646 16.072ZM33.0803 16V9.64H34.1843V11.368L34.0763 10.936C34.2523 10.496 34.5483 10.16 34.9643 9.928C35.3803 9.696 35.8923 9.58 36.5003 9.58V10.696C36.4523 10.688 36.4043 10.684 36.3563 10.684C36.3163 10.684 36.2763 10.684 36.2363 10.684C35.6203 10.684 35.1323 10.868 34.7723 11.236C34.4123 11.604 34.2323 12.136 34.2323 12.832V16H33.0803ZM41.3161 9.58C41.8361 9.58 42.2921 9.68 42.6841 9.88C43.0841 10.08 43.3961 10.384 43.6201 10.792C43.8441 11.2 43.9561 11.716 43.9561 12.34V16H42.8041V12.472C42.8041 11.856 42.6521 11.392 42.3481 11.08C42.0521 10.768 41.6321 10.612 41.0881 10.612C40.6801 10.612 40.3241 10.692 40.0201 10.852C39.7161 11.012 39.4801 11.248 39.3121 11.56C39.1521 11.872 39.0721 12.26 39.0721 12.724V16H37.9201V9.64H39.0241V11.356L38.8441 10.9C39.0521 10.484 39.3721 10.16 39.8041 9.928C40.2361 9.696 40.7401 9.58 41.3161 9.58ZM50.0361 16V14.656L49.9761 14.404V12.112C49.9761 11.624 49.8321 11.248 49.5441 10.984C49.2641 10.712 48.8401 10.576 48.2721 10.576C47.8961 10.576 47.5281 10.64 47.1681 10.768C46.8081 10.888 46.5041 11.052 46.2561 11.26L45.7761 10.396C46.1041 10.132 46.4961 9.932 46.9521 9.796C47.4161 9.652 47.9001 9.58 48.4041 9.58C49.2761 9.58 49.9481 9.792 50.4201 10.216C50.8921 10.64 51.1281 11.288 51.1281 12.16V16H50.0361ZM47.9481 16.072C47.4761 16.072 47.0601 15.992 46.7001 15.832C46.3481 15.672 46.0761 15.452 45.8841 15.172C45.6921 14.884 45.5961 14.56 45.5961 14.2C45.5961 13.856 45.6761 13.544 45.8361 13.264C46.0041 12.984 46.2721 12.76 46.6401 12.592C47.0161 12.424 47.5201 12.34 48.1521 12.34H50.1681V13.168H48.2001C47.6241 13.168 47.2361 13.264 47.0361 13.456C46.8361 13.648 46.7361 13.88 46.7361 14.152C46.7361 14.464 46.8601 14.716 47.1081 14.908C47.3561 15.092 47.7001 15.184 48.1401 15.184C48.5721 15.184 48.9481 15.088 49.2681 14.896C49.5961 14.704 49.8321 14.424 49.9761 14.056L50.2041 14.848C50.0521 15.224 49.7841 15.524 49.4001 15.748C49.0161 15.964 48.5321 16.072 47.9481 16.072ZM53.26 16V7.096H54.412V16H53.26ZM61.6702 16V8.644H58.7902V7.6H65.7382V8.644H62.8582V16H61.6702ZM70.4853 16V14.656L70.4253 14.404V12.112C70.4253 11.624 70.2813 11.248 69.9933 10.984C69.7133 10.712 69.2893 10.576 68.7213 10.576C68.3453 10.576 67.9773 10.64 67.6173 10.768C67.2573 10.888 66.9533 11.052 66.7053 11.26L66.2253 10.396C66.5533 10.132 66.9453 9.932 67.4013 9.796C67.8653 9.652 68.3493 9.58 68.8533 9.58C69.7253 9.58 70.3973 9.792 70.8693 10.216C71.3413 10.64 71.5773 11.288 71.5773 12.16V16H70.4853ZM68.3973 16.072C67.9253 16.072 67.5093 15.992 67.1493 15.832C66.7973 15.672 66.5253 15.452 66.3333 15.172C66.1413 14.884 66.0453 14.56 66.0453 14.2C66.0453 13.856 66.1253 13.544 66.2853 13.264C66.4533 12.984 66.7213 12.76 67.0893 12.592C67.4653 12.424 67.9693 12.34 68.6013 12.34H70.6173V13.168H68.6493C68.0733 13.168 67.6853 13.264 67.4853 13.456C67.2853 13.648 67.1853 13.88 67.1853 14.152C67.1853 14.464 67.3093 14.716 67.5573 14.908C67.8053 15.092 68.1493 15.184 68.5893 15.184C69.0213 15.184 69.3973 15.088 69.7173 14.896C70.0453 14.704 70.2813 14.424 70.4253 14.056L70.6533 14.848C70.5013 15.224 70.2333 15.524 69.8493 15.748C69.4653 15.964 68.9813 16.072 68.3973 16.072ZM75.5332 16.072C75.0052 16.072 74.5012 16 74.0212 15.856C73.5492 15.712 73.1772 15.536 72.9052 15.328L73.3852 14.416C73.6572 14.6 73.9932 14.756 74.3932 14.884C74.7932 15.012 75.2012 15.076 75.6172 15.076C76.1532 15.076 76.5372 15 76.7692 14.848C77.0092 14.696 77.1292 14.484 77.1292 14.212C77.1292 14.012 77.0572 13.856 76.9132 13.744C76.7692 13.632 76.5772 13.548 76.3372 13.492C76.1052 13.436 75.8452 13.388 75.5572 13.348C75.2692 13.3 74.9812 13.244 74.6932 13.18C74.4052 13.108 74.1412 13.012 73.9012 12.892C73.6612 12.764 73.4692 12.592 73.3252 12.376C73.1812 12.152 73.1092 11.856 73.1092 11.488C73.1092 11.104 73.2172 10.768 73.4332 10.48C73.6492 10.192 73.9532 9.972 74.3452 9.82C74.7452 9.66 75.2172 9.58 75.7612 9.58C76.1772 9.58 76.5972 9.632 77.0212 9.736C77.4532 9.832 77.8052 9.972 78.0772 10.156L77.5852 11.068C77.2972 10.876 76.9972 10.744 76.6852 10.672C76.3732 10.6 76.0612 10.564 75.7492 10.564C75.2452 10.564 74.8692 10.648 74.6212 10.816C74.3732 10.976 74.2492 11.184 74.2492 11.44C74.2492 11.656 74.3212 11.824 74.4652 11.944C74.6172 12.056 74.8092 12.144 75.0412 12.208C75.2812 12.272 75.5452 12.328 75.8332 12.376C76.1212 12.416 76.4092 12.472 76.6972 12.544C76.9852 12.608 77.2452 12.7 77.4772 12.82C77.7172 12.94 77.9092 13.108 78.0532 13.324C78.2052 13.54 78.2812 13.828 78.2812 14.188C78.2812 14.572 78.1692 14.904 77.9452 15.184C77.7212 15.464 77.4052 15.684 76.9972 15.844C76.5892 15.996 76.1012 16.072 75.5332 16.072ZM80.6569 14.464L80.6809 12.988L84.3409 9.64H85.7329L82.9249 12.4L82.3009 12.928L80.6569 14.464ZM79.7209 16V7.096H80.8729V16H79.7209ZM84.5809 16L82.0849 12.904L82.8289 11.98L85.9969 16H84.5809Z" fill="#5F69C7"/>
</svg>