<svg width="100" height="23" viewBox="0 0 100 23" fill="none" xmlns="http://www.w3.org/2000/svg">
<rect width="100" height="23" rx="11.5" fill="#F7F7F7"/>
<path d="M9.26 16V7.6H10.244L15.8 14.5H15.284V7.6H16.484V16H15.5L9.944 9.1H10.46V16H9.26ZM21.5543 16.072C20.9143 16.072 20.3463 15.932 19.8503 15.652C19.3543 15.372 18.9623 14.988 18.6743 14.5C18.3863 14.004 18.2423 13.444 18.2423 12.82C18.2423 12.188 18.3863 11.628 18.6743 11.14C18.9623 10.652 19.3543 10.272 19.8503 10C20.3463 9.72 20.9143 9.58 21.5543 9.58C22.1863 9.58 22.7503 9.72 23.2463 10C23.7503 10.272 24.1423 10.652 24.4223 11.14C24.7103 11.62 24.8543 12.18 24.8543 12.82C24.8543 13.452 24.7103 14.012 24.4223 14.5C24.1423 14.988 23.7503 15.372 23.2463 15.652C22.7503 15.932 22.1863 16.072 21.5543 16.072ZM21.5543 15.064C21.9623 15.064 22.3263 14.972 22.6463 14.788C22.9743 14.604 23.2303 14.344 23.4143 14.008C23.5983 13.664 23.6903 13.268 23.6903 12.82C23.6903 12.364 23.5983 11.972 23.4143 11.644C23.2303 11.308 22.9743 11.048 22.6463 10.864C22.3263 10.68 21.9623 10.588 21.5543 10.588C21.1463 10.588 20.7823 10.68 20.4623 10.864C20.1423 11.048 19.8863 11.308 19.6943 11.644C19.5023 11.972 19.4063 12.364 19.4063 12.82C19.4063 13.268 19.5023 13.664 19.6943 14.008C19.8863 14.344 20.1423 14.604 20.4623 14.788C20.7823 14.972 21.1463 15.064 21.5543 15.064ZM28.6315 16.072C27.9915 16.072 27.4955 15.9 27.1435 15.556C26.7915 15.212 26.6155 14.72 26.6155 14.08V8.248H27.7675V14.032C27.7675 14.376 27.8515 14.64 28.0195 14.824C28.1955 15.008 28.4435 15.1 28.7635 15.1C29.1235 15.1 29.4235 15 29.6635 14.8L30.0235 15.628C29.8475 15.78 29.6355 15.892 29.3875 15.964C29.1475 16.036 28.8955 16.072 28.6315 16.072ZM25.5355 10.588V9.64H29.5915V10.588H25.5355ZM33.5349 16L37.3389 7.6H38.5269L42.3429 16H41.0829L37.6869 8.272H38.1669L34.7709 16H33.5349ZM35.1549 13.9L35.4789 12.94H40.2069L40.5549 13.9H35.1549ZM46.1413 16.072C45.4933 16.072 44.9133 15.932 44.4013 15.652C43.8973 15.372 43.5013 14.988 43.2133 14.5C42.9253 14.012 42.7813 13.452 42.7813 12.82C42.7813 12.188 42.9253 11.628 43.2133 11.14C43.5013 10.652 43.8973 10.272 44.4013 10C44.9133 9.72 45.4933 9.58 46.1413 9.58C46.7173 9.58 47.2293 9.696 47.6773 9.928C48.1333 10.152 48.4853 10.488 48.7333 10.936L47.8573 11.5C47.6493 11.188 47.3933 10.96 47.0893 10.816C46.7933 10.664 46.4733 10.588 46.1293 10.588C45.7133 10.588 45.3413 10.68 45.0133 10.864C44.6853 11.048 44.4253 11.308 44.2333 11.644C44.0413 11.972 43.9453 12.364 43.9453 12.82C43.9453 13.276 44.0413 13.672 44.2333 14.008C44.4253 14.344 44.6853 14.604 45.0133 14.788C45.3413 14.972 45.7133 15.064 46.1293 15.064C46.4733 15.064 46.7933 14.992 47.0893 14.848C47.3933 14.696 47.6493 14.464 47.8573 14.152L48.7333 14.704C48.4853 15.144 48.1333 15.484 47.6773 15.724C47.2293 15.956 46.7173 16.072 46.1413 16.072ZM52.9031 16.072C52.2551 16.072 51.6751 15.932 51.1631 15.652C50.6591 15.372 50.2631 14.988 49.9751 14.5C49.6871 14.012 49.5431 13.452 49.5431 12.82C49.5431 12.188 49.6871 11.628 49.9751 11.14C50.2631 10.652 50.6591 10.272 51.1631 10C51.6751 9.72 52.2551 9.58 52.9031 9.58C53.4791 9.58 53.9911 9.696 54.4391 9.928C54.8951 10.152 55.2471 10.488 55.4951 10.936L54.6191 11.5C54.4111 11.188 54.1551 10.96 53.8511 10.816C53.5551 10.664 53.2351 10.588 52.8911 10.588C52.4751 10.588 52.1031 10.68 51.7751 10.864C51.4471 11.048 51.1871 11.308 50.9951 11.644C50.8031 11.972 50.7071 12.364 50.7071 12.82C50.7071 13.276 50.8031 13.672 50.9951 14.008C51.1871 14.344 51.4471 14.604 51.7751 14.788C52.1031 14.972 52.4751 15.064 52.8911 15.064C53.2351 15.064 53.5551 14.992 53.8511 14.848C54.1551 14.696 54.4111 14.464 54.6191 14.152L55.4951 14.704C55.2471 15.144 54.8951 15.484 54.4391 15.724C53.9911 15.956 53.4791 16.072 52.9031 16.072ZM59.7248 16.072C59.0448 16.072 58.4448 15.932 57.9248 15.652C57.4128 15.372 57.0128 14.988 56.7248 14.5C56.4448 14.012 56.3048 13.452 56.3048 12.82C56.3048 12.188 56.4408 11.628 56.7128 11.14C56.9928 10.652 57.3728 10.272 57.8528 10C58.3408 9.72 58.8888 9.58 59.4968 9.58C60.1128 9.58 60.6568 9.716 61.1288 9.988C61.6008 10.26 61.9688 10.644 62.2328 11.14C62.5048 11.628 62.6408 12.2 62.6408 12.856C62.6408 12.904 62.6368 12.96 62.6288 13.024C62.6288 13.088 62.6248 13.148 62.6168 13.204H57.2048V12.376H62.0168L61.5488 12.664C61.5568 12.256 61.4728 11.892 61.2968 11.572C61.1208 11.252 60.8768 11.004 60.5648 10.828C60.2608 10.644 59.9048 10.552 59.4968 10.552C59.0968 10.552 58.7408 10.644 58.4288 10.828C58.1168 11.004 57.8728 11.256 57.6968 11.584C57.5208 11.904 57.4328 12.272 57.4328 12.688V12.88C57.4328 13.304 57.5288 13.684 57.7208 14.02C57.9208 14.348 58.1968 14.604 58.5488 14.788C58.9008 14.972 59.3048 15.064 59.7608 15.064C60.1368 15.064 60.4768 15 60.7808 14.872C61.0928 14.744 61.3648 14.552 61.5968 14.296L62.2328 15.04C61.9448 15.376 61.5848 15.632 61.1528 15.808C60.7288 15.984 60.2528 16.072 59.7248 16.072ZM67.6124 16.072C67.0844 16.072 66.6004 15.952 66.1604 15.712C65.7284 15.464 65.3804 15.1 65.1164 14.62C64.8604 14.14 64.7324 13.54 64.7324 12.82C64.7324 12.1 64.8564 11.5 65.1044 11.02C65.3604 10.54 65.7044 10.18 66.1364 9.94C66.5764 9.7 67.0684 9.58 67.6124 9.58C68.2364 9.58 68.7884 9.716 69.2684 9.988C69.7484 10.26 70.1284 10.64 70.4084 11.128C70.6884 11.608 70.8284 12.172 70.8284 12.82C70.8284 13.468 70.6884 14.036 70.4084 14.524C70.1284 15.012 69.7484 15.392 69.2684 15.664C68.7884 15.936 68.2364 16.072 67.6124 16.072ZM64.2404 18.328V9.64H65.3444V11.356L65.2724 12.832L65.3924 14.308V18.328H64.2404ZM67.5164 15.064C67.9244 15.064 68.2884 14.972 68.6084 14.788C68.9364 14.604 69.1924 14.344 69.3764 14.008C69.5684 13.664 69.6644 13.268 69.6644 12.82C69.6644 12.364 69.5684 11.972 69.3764 11.644C69.1924 11.308 68.9364 11.048 68.6084 10.864C68.2884 10.68 67.9244 10.588 67.5164 10.588C67.1164 10.588 66.7524 10.68 66.4244 10.864C66.1044 11.048 65.8484 11.308 65.6564 11.644C65.4724 11.972 65.3804 12.364 65.3804 12.82C65.3804 13.268 65.4724 13.664 65.6564 14.008C65.8484 14.344 66.1044 14.604 66.4244 14.788C66.7524 14.972 67.1164 15.064 67.5164 15.064ZM74.6041 16.072C73.9641 16.072 73.4681 15.9 73.1161 15.556C72.7641 15.212 72.5881 14.72 72.5881 14.08V8.248H73.7401V14.032C73.7401 14.376 73.8241 14.64 73.9921 14.824C74.1681 15.008 74.4161 15.1 74.7361 15.1C75.0961 15.1 75.3961 15 75.6361 14.8L75.9961 15.628C75.8201 15.78 75.6081 15.892 75.3601 15.964C75.1201 16.036 74.8681 16.072 74.6041 16.072ZM71.5081 10.588V9.64H75.5641V10.588H71.5081ZM80.0099 16.072C79.3299 16.072 78.7299 15.932 78.2099 15.652C77.6979 15.372 77.2979 14.988 77.0099 14.5C76.7299 14.012 76.5899 13.452 76.5899 12.82C76.5899 12.188 76.7259 11.628 76.9979 11.14C77.2779 10.652 77.6579 10.272 78.1379 10C78.6259 9.72 79.1739 9.58 79.7819 9.58C80.3979 9.58 80.9419 9.716 81.4139 9.988C81.8859 10.26 82.2539 10.644 82.5179 11.14C82.7899 11.628 82.9259 12.2 82.9259 12.856C82.9259 12.904 82.9219 12.96 82.9139 13.024C82.9139 13.088 82.9099 13.148 82.9019 13.204H77.4899V12.376H82.3019L81.8339 12.664C81.8419 12.256 81.7579 11.892 81.5819 11.572C81.4059 11.252 81.1619 11.004 80.8499 10.828C80.5459 10.644 80.1899 10.552 79.7819 10.552C79.3819 10.552 79.0259 10.644 78.7139 10.828C78.4019 11.004 78.1579 11.256 77.9819 11.584C77.8059 11.904 77.7179 12.272 77.7179 12.688V12.88C77.7179 13.304 77.8139 13.684 78.0059 14.02C78.2059 14.348 78.4819 14.604 78.8339 14.788C79.1859 14.972 79.5899 15.064 80.0459 15.064C80.4219 15.064 80.7619 15 81.0659 14.872C81.3779 14.744 81.6499 14.552 81.8819 14.296L82.5179 15.04C82.2299 15.376 81.8699 15.632 81.4379 15.808C81.0139 15.984 80.5379 16.072 80.0099 16.072ZM87.1536 16.072C86.5376 16.072 85.9856 15.936 85.4976 15.664C85.0176 15.392 84.6376 15.012 84.3576 14.524C84.0776 14.036 83.9376 13.468 83.9376 12.82C83.9376 12.172 84.0776 11.608 84.3576 11.128C84.6376 10.64 85.0176 10.26 85.4976 9.988C85.9856 9.716 86.5376 9.58 87.1536 9.58C87.6896 9.58 88.1736 9.7 88.6056 9.94C89.0376 10.18 89.3816 10.54 89.6376 11.02C89.9016 11.5 90.0336 12.1 90.0336 12.82C90.0336 13.54 89.9056 14.14 89.6496 14.62C89.4016 15.1 89.0616 15.464 88.6296 15.712C88.1976 15.952 87.7056 16.072 87.1536 16.072ZM87.2496 15.064C87.6496 15.064 88.0096 14.972 88.3296 14.788C88.6576 14.604 88.9136 14.344 89.0976 14.008C89.2896 13.664 89.3856 13.268 89.3856 12.82C89.3856 12.364 89.2896 11.972 89.0976 11.644C88.9136 11.308 88.6576 11.048 88.3296 10.864C88.0096 10.68 87.6496 10.588 87.2496 10.588C86.8416 10.588 86.4776 10.68 86.1576 10.864C85.8376 11.048 85.5816 11.308 85.3896 11.644C85.1976 11.972 85.1016 12.364 85.1016 12.82C85.1016 13.268 85.1976 13.664 85.3896 14.008C85.5816 14.344 85.8376 14.604 86.1576 14.788C86.4776 14.972 86.8416 15.064 87.2496 15.064ZM89.4216 16V14.284L89.4936 12.808L89.3736 11.332V7.096H90.5256V16H89.4216Z" fill="#CC2610"/>
</svg>
