<svg width="24" height="21" viewBox="0 0 24 21" fill="none" xmlns="http://www.w3.org/2000/svg">
<rect y="0.5" width="24" height="20" rx="10" fill="#F7F7F7"/>
<path d="M12 13.8333H13.3333V7.16667H10.6667V8.5H12V13.8333ZM7.33333 16.5C6.96667 16.5 6.65278 16.3694 6.39167 16.1083C6.13056 15.8472 6 15.5333 6 15.1667V5.83333C6 5.46667 6.13056 5.15278 6.39167 4.89167C6.65278 4.63056 6.96667 4.5 7.33333 4.5H16.6667C17.0333 4.5 17.3472 4.63056 17.6083 4.89167C17.8694 5.15278 18 5.46667 18 5.83333V15.1667C18 15.5333 17.8694 15.8472 17.6083 16.1083C17.3472 16.3694 17.0333 16.5 16.6667 16.5H7.33333ZM7.33333 15.1667H16.6667V5.83333H7.33333V15.1667Z" fill="#767676"/>
</svg>
