<svg width="24" height="21" viewBox="0 0 24 21" fill="none" xmlns="http://www.w3.org/2000/svg">
<rect y="0.5" width="24" height="20" rx="10" fill="#F7F7F7"/>
<path d="M6.00002 17.8333C5.63335 17.8333 5.31946 17.7027 5.05835 17.4416C4.79724 17.1805 4.66669 16.8666 4.66669 16.5V4.49996C4.66669 4.13329 4.79724 3.8194 5.05835 3.55829C5.31946 3.29718 5.63335 3.16663 6.00002 3.16663H18C18.3667 3.16663 18.6806 3.29718 18.9417 3.55829C19.2028 3.8194 19.3334 4.13329 19.3334 4.49996V16.5C19.3334 16.8666 19.2028 17.1805 18.9417 17.4416C18.6806 17.7027 18.3667 17.8333 18 17.8333H6.00002ZM8.66669 17.1666L9.60002 16.2L8.56669 15.1666H16.6667V11.1666H15.3334V13.8333H8.56669L9.60002 12.8L8.66669 11.8333L6.00002 14.5L8.66669 17.1666ZM7.33335 9.83329H8.66669V7.16663H15.4334L14.4 8.19996L15.3334 9.16663L18 6.49996L15.3334 3.83329L14.4 4.79996L15.4334 5.83329H7.33335V9.83329Z" fill="#767676"/>
</svg>
