<svg width="13" height="13" viewBox="0 0 13 13" fill="none" xmlns="http://www.w3.org/2000/svg">
<path d="M1.91691 12.5L0.983582 11.5667L7.81692 4.73333C7.61692 4.26667 7.58914 3.73889 7.73358 3.15C7.87803 2.56111 8.19469 2.03333 8.68358 1.56667C9.27247 0.977778 9.92803 0.633333 10.6502 0.533333C11.3725 0.433333 11.9614 0.611111 12.4169 1.06667C12.8725 1.52222 13.0502 2.11111 12.9502 2.83333C12.8502 3.55556 12.5058 4.21111 11.9169 4.8C11.4502 5.28889 10.9225 5.60556 10.3336 5.75C9.74469 5.89444 9.21692 5.86667 8.75025 5.66667L7.91692 6.5L12.9836 11.5667L12.0502 12.5L6.98358 7.46667L1.91691 12.5ZM3.88358 6.8L1.88358 4.8C1.28358 4.2 0.983582 3.48333 0.983582 2.65C0.983582 1.81667 1.28358 1.1 1.88358 0.5L6.01692 4.66667L3.88358 6.8Z" fill="#5F69C7"/>
</svg>
