<svg width="362" height="179" viewBox="0 0 362 179" fill="none" xmlns="http://www.w3.org/2000/svg">
<path d="M13 0.75C6.23451 0.75 0.75 6.23451 0.75 13V166C0.75 172.765 6.23452 178.25 13 178.25H349C355.765 178.25 361.25 172.766 361.25 166V13C361.25 6.23451 355.765 0.75 349 0.75H13Z" fill="white"/>
<path d="M13 0.75C6.23451 0.75 0.75 6.23451 0.75 13V166C0.75 172.765 6.23452 178.25 13 178.25H349C355.765 178.25 361.25 172.766 361.25 166V13C361.25 6.23451 355.765 0.75 349 0.75H13Z" stroke="#B8B8B8" stroke-width="0.5"/>
<rect x="9" y="10.5" width="84" height="20" rx="4" fill="#F7F7F7"/>
<rect x="13" y="12.5" width="16" height="16" rx="2" fill="white"/>
<path d="M15.9169 26.5L14.9836 25.5667L21.8169 18.7333C21.6169 18.2667 21.5891 17.7389 21.7336 17.15C21.878 16.5611 22.1947 16.0333 22.6836 15.5667C23.2725 14.9778 23.928 14.6333 24.6502 14.5333C25.3725 14.4333 25.9614 14.6111 26.4169 15.0667C26.8725 15.5222 27.0502 16.1111 26.9502 16.8333C26.8502 17.5556 26.5058 18.2111 25.9169 18.8C25.4502 19.2889 24.9225 19.6056 24.3336 19.75C23.7447 19.8944 23.2169 19.8667 22.7502 19.6667L21.9169 20.5L26.9836 25.5667L26.0502 26.5L20.9836 21.4667L15.9169 26.5ZM17.8836 20.8L15.8836 18.8C15.2836 18.2 14.9836 17.4833 14.9836 16.65C14.9836 15.8167 15.2836 15.1 15.8836 14.5L20.0169 18.6667L17.8836 20.8Z" fill="#5F69C7"/>
<path d="M40.822 25L38.176 21.61H37.966C37.594 21.61 37.178 21.594 36.718 21.562V25H35.02V16.348C35.452 16.248 35.928 16.168 36.448 16.108C36.968 16.048 37.478 16.018 37.978 16.018C39.33 16.018 40.336 16.242 40.996 16.69C41.66 17.134 41.992 17.836 41.992 18.796C41.992 19.456 41.814 20.004 41.458 20.44C41.102 20.872 40.582 21.184 39.898 21.376L42.754 25H40.822ZM36.718 20.296C37.174 20.344 37.614 20.368 38.038 20.368C38.85 20.368 39.442 20.244 39.814 19.996C40.19 19.744 40.378 19.348 40.378 18.808C40.378 18.432 40.298 18.13 40.138 17.902C39.982 17.674 39.738 17.508 39.406 17.404C39.078 17.3 38.648 17.248 38.116 17.248C37.652 17.248 37.186 17.292 36.718 17.38V20.296ZM46.1671 18.352C46.9151 18.352 47.5191 18.438 47.9791 18.61C48.4431 18.782 48.7871 19.068 49.0111 19.468C49.2391 19.868 49.3531 20.414 49.3531 21.106V25H47.9431L47.8291 24.34H47.7451C47.5051 24.588 47.2051 24.78 46.8451 24.916C46.4851 25.048 46.0991 25.114 45.6871 25.114C45.1871 25.114 44.7611 25.036 44.4091 24.88C44.0611 24.724 43.7971 24.506 43.6171 24.226C43.4371 23.946 43.3471 23.62 43.3471 23.248C43.3471 22.648 43.5771 22.184 44.0371 21.856C44.4971 21.524 45.2251 21.322 46.2211 21.25L47.6971 21.112V20.98C47.6971 20.624 47.6351 20.348 47.5111 20.152C47.3871 19.952 47.1951 19.81 46.9351 19.726C46.6791 19.642 46.3331 19.6 45.8971 19.6C45.5931 19.6 45.2611 19.626 44.9011 19.678C44.5451 19.726 44.2071 19.8 43.8871 19.9V18.67C44.2231 18.566 44.5931 18.488 44.9971 18.436C45.4051 18.38 45.7951 18.352 46.1671 18.352ZM46.1851 23.98C46.4611 23.98 46.7291 23.934 46.9891 23.842C47.2491 23.75 47.4851 23.612 47.6971 23.428V22.066L46.3591 22.186C45.8831 22.234 45.5431 22.334 45.3391 22.486C45.1351 22.634 45.0331 22.844 45.0331 23.116C45.0331 23.388 45.1291 23.6 45.3211 23.752C45.5131 23.904 45.8011 23.98 46.1851 23.98ZM50.0513 27.088C50.4313 26.636 50.7033 26.164 50.8673 25.672C51.0313 25.184 51.1133 24.612 51.1133 23.956V18.454H52.8053V23.896C52.8053 24.656 52.6733 25.346 52.4093 25.966C52.1493 26.59 51.7193 27.206 51.1193 27.814L50.0513 27.088ZM51.9233 17.302C51.5713 17.302 51.3053 17.23 51.1253 17.086C50.9493 16.938 50.8613 16.724 50.8613 16.444C50.8613 16.164 50.9493 15.95 51.1253 15.802C51.3053 15.654 51.5713 15.58 51.9233 15.58C52.2753 15.58 52.5393 15.654 52.7153 15.802C52.8953 15.95 52.9853 16.164 52.9853 16.444C52.9853 16.724 52.8953 16.938 52.7153 17.086C52.5393 17.23 52.2753 17.302 51.9233 17.302ZM60.6347 22.204H55.9667C55.9907 22.608 56.0847 22.934 56.2487 23.182C56.4167 23.426 56.6727 23.606 57.0167 23.722C57.3607 23.834 57.8167 23.89 58.3847 23.89C58.9407 23.89 59.5607 23.812 60.2447 23.656V24.874C59.5487 25.038 58.8467 25.12 58.1387 25.12C56.8387 25.12 55.8707 24.846 55.2347 24.298C54.6027 23.746 54.2867 22.894 54.2867 21.742C54.2867 21.03 54.4127 20.42 54.6647 19.912C54.9207 19.404 55.2927 19.018 55.7807 18.754C56.2727 18.486 56.8627 18.352 57.5507 18.352C58.5507 18.352 59.3147 18.65 59.8427 19.246C60.3707 19.842 60.6347 20.69 60.6347 21.79V22.204ZM57.5207 19.414C57.0207 19.414 56.6387 19.564 56.3747 19.864C56.1147 20.16 55.9767 20.62 55.9607 21.244H59.0627C59.0467 20.62 58.9107 20.16 58.6547 19.864C58.3987 19.564 58.0207 19.414 57.5207 19.414ZM64.1655 25.12C63.2775 25.12 62.4915 25.022 61.8075 24.826V23.644C62.5515 23.852 63.3355 23.956 64.1595 23.956C64.7075 23.956 65.0995 23.888 65.3355 23.752C65.5755 23.616 65.6955 23.416 65.6955 23.152C65.6955 22.948 65.6355 22.792 65.5155 22.684C65.3955 22.576 65.1775 22.498 64.8615 22.45L63.6375 22.27C62.9415 22.166 62.4395 21.96 62.1315 21.652C61.8235 21.344 61.6695 20.93 61.6695 20.41C61.6695 19.77 61.9395 19.268 62.4795 18.904C63.0235 18.536 63.8515 18.352 64.9635 18.352C65.3115 18.352 65.6575 18.374 66.0015 18.418C66.3495 18.462 66.6615 18.522 66.9375 18.598V19.78C66.3295 19.608 65.6755 19.522 64.9755 19.522C64.3435 19.522 63.9035 19.594 63.6555 19.738C63.4075 19.882 63.2835 20.082 63.2835 20.338C63.2835 20.522 63.3435 20.672 63.4635 20.788C63.5835 20.904 63.7935 20.988 64.0935 21.04L65.3175 21.22C65.9975 21.32 66.4995 21.512 66.8235 21.796C67.1475 22.08 67.3095 22.504 67.3095 23.068C67.3095 23.492 67.1895 23.858 66.9495 24.166C66.7135 24.474 66.3595 24.71 65.8875 24.874C65.4195 25.038 64.8455 25.12 64.1655 25.12ZM68.668 15.304H70.36V19.12H70.438C70.722 18.868 71.05 18.678 71.422 18.55C71.794 18.418 72.186 18.352 72.598 18.352C73.358 18.352 73.962 18.574 74.41 19.018C74.858 19.462 75.082 20.148 75.082 21.076V25H73.39V21.166C73.39 20.67 73.278 20.316 73.054 20.104C72.83 19.892 72.502 19.786 72.07 19.786C71.75 19.786 71.438 19.844 71.134 19.96C70.834 20.076 70.576 20.246 70.36 20.47V25H68.668V15.304Z" fill="#1A0A02"/>
<circle cx="85" cy="20.5" r="4" fill="#CC2610"/>
<rect x="97" y="9" width="100" height="23" rx="11.5" fill="#F7F7F7"/>
<path d="M106.26 25V16.6H107.244L112.8 23.5H112.284V16.6H113.484V25H112.5L106.944 18.1H107.46V25H106.26ZM118.554 25.072C117.914 25.072 117.346 24.932 116.85 24.652C116.354 24.372 115.962 23.988 115.674 23.5C115.386 23.004 115.242 22.444 115.242 21.82C115.242 21.188 115.386 20.628 115.674 20.14C115.962 19.652 116.354 19.272 116.85 19C117.346 18.72 117.914 18.58 118.554 18.58C119.186 18.58 119.75 18.72 120.246 19C120.75 19.272 121.142 19.652 121.422 20.14C121.71 20.62 121.854 21.18 121.854 21.82C121.854 22.452 121.71 23.012 121.422 23.5C121.142 23.988 120.75 24.372 120.246 24.652C119.75 24.932 119.186 25.072 118.554 25.072ZM118.554 24.064C118.962 24.064 119.326 23.972 119.646 23.788C119.974 23.604 120.23 23.344 120.414 23.008C120.598 22.664 120.69 22.268 120.69 21.82C120.69 21.364 120.598 20.972 120.414 20.644C120.23 20.308 119.974 20.048 119.646 19.864C119.326 19.68 118.962 19.588 118.554 19.588C118.146 19.588 117.782 19.68 117.462 19.864C117.142 20.048 116.886 20.308 116.694 20.644C116.502 20.972 116.406 21.364 116.406 21.82C116.406 22.268 116.502 22.664 116.694 23.008C116.886 23.344 117.142 23.604 117.462 23.788C117.782 23.972 118.146 24.064 118.554 24.064ZM125.631 25.072C124.991 25.072 124.495 24.9 124.143 24.556C123.791 24.212 123.615 23.72 123.615 23.08V17.248H124.767V23.032C124.767 23.376 124.851 23.64 125.019 23.824C125.195 24.008 125.443 24.1 125.763 24.1C126.123 24.1 126.423 24 126.663 23.8L127.023 24.628C126.847 24.78 126.635 24.892 126.387 24.964C126.147 25.036 125.895 25.072 125.631 25.072ZM122.535 19.588V18.64H126.591V19.588H122.535ZM130.535 25L134.339 16.6H135.527L139.343 25H138.083L134.687 17.272H135.167L131.771 25H130.535ZM132.155 22.9L132.479 21.94H137.207L137.555 22.9H132.155ZM143.141 25.072C142.493 25.072 141.913 24.932 141.401 24.652C140.897 24.372 140.501 23.988 140.213 23.5C139.925 23.012 139.781 22.452 139.781 21.82C139.781 21.188 139.925 20.628 140.213 20.14C140.501 19.652 140.897 19.272 141.401 19C141.913 18.72 142.493 18.58 143.141 18.58C143.717 18.58 144.229 18.696 144.677 18.928C145.133 19.152 145.485 19.488 145.733 19.936L144.857 20.5C144.649 20.188 144.393 19.96 144.089 19.816C143.793 19.664 143.473 19.588 143.129 19.588C142.713 19.588 142.341 19.68 142.013 19.864C141.685 20.048 141.425 20.308 141.233 20.644C141.041 20.972 140.945 21.364 140.945 21.82C140.945 22.276 141.041 22.672 141.233 23.008C141.425 23.344 141.685 23.604 142.013 23.788C142.341 23.972 142.713 24.064 143.129 24.064C143.473 24.064 143.793 23.992 144.089 23.848C144.393 23.696 144.649 23.464 144.857 23.152L145.733 23.704C145.485 24.144 145.133 24.484 144.677 24.724C144.229 24.956 143.717 25.072 143.141 25.072ZM149.903 25.072C149.255 25.072 148.675 24.932 148.163 24.652C147.659 24.372 147.263 23.988 146.975 23.5C146.687 23.012 146.543 22.452 146.543 21.82C146.543 21.188 146.687 20.628 146.975 20.14C147.263 19.652 147.659 19.272 148.163 19C148.675 18.72 149.255 18.58 149.903 18.58C150.479 18.58 150.991 18.696 151.439 18.928C151.895 19.152 152.247 19.488 152.495 19.936L151.619 20.5C151.411 20.188 151.155 19.96 150.851 19.816C150.555 19.664 150.235 19.588 149.891 19.588C149.475 19.588 149.103 19.68 148.775 19.864C148.447 20.048 148.187 20.308 147.995 20.644C147.803 20.972 147.707 21.364 147.707 21.82C147.707 22.276 147.803 22.672 147.995 23.008C148.187 23.344 148.447 23.604 148.775 23.788C149.103 23.972 149.475 24.064 149.891 24.064C150.235 24.064 150.555 23.992 150.851 23.848C151.155 23.696 151.411 23.464 151.619 23.152L152.495 23.704C152.247 24.144 151.895 24.484 151.439 24.724C150.991 24.956 150.479 25.072 149.903 25.072ZM156.725 25.072C156.045 25.072 155.445 24.932 154.925 24.652C154.413 24.372 154.013 23.988 153.725 23.5C153.445 23.012 153.305 22.452 153.305 21.82C153.305 21.188 153.441 20.628 153.713 20.14C153.993 19.652 154.373 19.272 154.853 19C155.341 18.72 155.889 18.58 156.497 18.58C157.113 18.58 157.657 18.716 158.129 18.988C158.601 19.26 158.969 19.644 159.233 20.14C159.505 20.628 159.641 21.2 159.641 21.856C159.641 21.904 159.637 21.96 159.629 22.024C159.629 22.088 159.625 22.148 159.617 22.204H154.205V21.376H159.017L158.549 21.664C158.557 21.256 158.473 20.892 158.297 20.572C158.121 20.252 157.877 20.004 157.565 19.828C157.261 19.644 156.905 19.552 156.497 19.552C156.097 19.552 155.741 19.644 155.429 19.828C155.117 20.004 154.873 20.256 154.697 20.584C154.521 20.904 154.433 21.272 154.433 21.688V21.88C154.433 22.304 154.529 22.684 154.721 23.02C154.921 23.348 155.197 23.604 155.549 23.788C155.901 23.972 156.305 24.064 156.761 24.064C157.137 24.064 157.477 24 157.781 23.872C158.093 23.744 158.365 23.552 158.597 23.296L159.233 24.04C158.945 24.376 158.585 24.632 158.153 24.808C157.729 24.984 157.253 25.072 156.725 25.072ZM164.612 25.072C164.084 25.072 163.6 24.952 163.16 24.712C162.728 24.464 162.38 24.1 162.116 23.62C161.86 23.14 161.732 22.54 161.732 21.82C161.732 21.1 161.856 20.5 162.104 20.02C162.36 19.54 162.704 19.18 163.136 18.94C163.576 18.7 164.068 18.58 164.612 18.58C165.236 18.58 165.788 18.716 166.268 18.988C166.748 19.26 167.128 19.64 167.408 20.128C167.688 20.608 167.828 21.172 167.828 21.82C167.828 22.468 167.688 23.036 167.408 23.524C167.128 24.012 166.748 24.392 166.268 24.664C165.788 24.936 165.236 25.072 164.612 25.072ZM161.24 27.328V18.64H162.344V20.356L162.272 21.832L162.392 23.308V27.328H161.24ZM164.516 24.064C164.924 24.064 165.288 23.972 165.608 23.788C165.936 23.604 166.192 23.344 166.376 23.008C166.568 22.664 166.664 22.268 166.664 21.82C166.664 21.364 166.568 20.972 166.376 20.644C166.192 20.308 165.936 20.048 165.608 19.864C165.288 19.68 164.924 19.588 164.516 19.588C164.116 19.588 163.752 19.68 163.424 19.864C163.104 20.048 162.848 20.308 162.656 20.644C162.472 20.972 162.38 21.364 162.38 21.82C162.38 22.268 162.472 22.664 162.656 23.008C162.848 23.344 163.104 23.604 163.424 23.788C163.752 23.972 164.116 24.064 164.516 24.064ZM171.604 25.072C170.964 25.072 170.468 24.9 170.116 24.556C169.764 24.212 169.588 23.72 169.588 23.08V17.248H170.74V23.032C170.74 23.376 170.824 23.64 170.992 23.824C171.168 24.008 171.416 24.1 171.736 24.1C172.096 24.1 172.396 24 172.636 23.8L172.996 24.628C172.82 24.78 172.608 24.892 172.36 24.964C172.12 25.036 171.868 25.072 171.604 25.072ZM168.508 19.588V18.64H172.564V19.588H168.508ZM177.01 25.072C176.33 25.072 175.73 24.932 175.21 24.652C174.698 24.372 174.298 23.988 174.01 23.5C173.73 23.012 173.59 22.452 173.59 21.82C173.59 21.188 173.726 20.628 173.998 20.14C174.278 19.652 174.658 19.272 175.138 19C175.626 18.72 176.174 18.58 176.782 18.58C177.398 18.58 177.942 18.716 178.414 18.988C178.886 19.26 179.254 19.644 179.518 20.14C179.79 20.628 179.926 21.2 179.926 21.856C179.926 21.904 179.922 21.96 179.914 22.024C179.914 22.088 179.91 22.148 179.902 22.204H174.49V21.376H179.302L178.834 21.664C178.842 21.256 178.758 20.892 178.582 20.572C178.406 20.252 178.162 20.004 177.85 19.828C177.546 19.644 177.19 19.552 176.782 19.552C176.382 19.552 176.026 19.644 175.714 19.828C175.402 20.004 175.158 20.256 174.982 20.584C174.806 20.904 174.718 21.272 174.718 21.688V21.88C174.718 22.304 174.814 22.684 175.006 23.02C175.206 23.348 175.482 23.604 175.834 23.788C176.186 23.972 176.59 24.064 177.046 24.064C177.422 24.064 177.762 24 178.066 23.872C178.378 23.744 178.65 23.552 178.882 23.296L179.518 24.04C179.23 24.376 178.87 24.632 178.438 24.808C178.014 24.984 177.538 25.072 177.01 25.072ZM184.154 25.072C183.538 25.072 182.986 24.936 182.498 24.664C182.018 24.392 181.638 24.012 181.358 23.524C181.078 23.036 180.938 22.468 180.938 21.82C180.938 21.172 181.078 20.608 181.358 20.128C181.638 19.64 182.018 19.26 182.498 18.988C182.986 18.716 183.538 18.58 184.154 18.58C184.69 18.58 185.174 18.7 185.606 18.94C186.038 19.18 186.382 19.54 186.638 20.02C186.902 20.5 187.034 21.1 187.034 21.82C187.034 22.54 186.906 23.14 186.65 23.62C186.402 24.1 186.062 24.464 185.63 24.712C185.198 24.952 184.706 25.072 184.154 25.072ZM184.25 24.064C184.65 24.064 185.01 23.972 185.33 23.788C185.658 23.604 185.914 23.344 186.098 23.008C186.29 22.664 186.386 22.268 186.386 21.82C186.386 21.364 186.29 20.972 186.098 20.644C185.914 20.308 185.658 20.048 185.33 19.864C185.01 19.68 184.65 19.588 184.25 19.588C183.842 19.588 183.478 19.68 183.158 19.864C182.838 20.048 182.582 20.308 182.39 20.644C182.198 20.972 182.102 21.364 182.102 21.82C182.102 22.268 182.198 22.664 182.39 23.008C182.582 23.344 182.838 23.604 183.158 23.788C183.478 23.972 183.842 24.064 184.25 24.064ZM186.422 25V23.284L186.494 21.808L186.374 20.332V16.096H187.526V25H186.422Z" fill="#CC2610"/>
<rect x="201" y="10.5" width="24" height="20" rx="10" fill="#F7F7F7"/>
<path d="M207 27.8333C206.633 27.8333 206.319 27.7027 206.058 27.4416C205.797 27.1805 205.667 26.8666 205.667 26.5V14.5C205.667 14.1333 205.797 13.8194 206.058 13.5583C206.319 13.2972 206.633 13.1666 207 13.1666H219C219.367 13.1666 219.681 13.2972 219.942 13.5583C220.203 13.8194 220.333 14.1333 220.333 14.5V26.5C220.333 26.8666 220.203 27.1805 219.942 27.4416C219.681 27.7027 219.367 27.8333 219 27.8333H207ZM209.667 27.1666L210.6 26.2L209.567 25.1666H217.667V21.1666H216.333V23.8333H209.567L210.6 22.8L209.667 21.8333L207 24.5L209.667 27.1666ZM208.333 19.8333H209.667V17.1666H216.433L215.4 18.2L216.333 19.1666L219 16.5L216.333 13.8333L215.4 14.8L216.433 15.8333H208.333V19.8333Z" fill="#767676"/>
<rect x="291" y="10" width="62" height="21" rx="10.5" fill="#F4D8D8"/>
<path d="M302.993 13.8334C299.313 13.8334 296.333 16.82 296.333 20.5C296.333 24.18 299.313 27.1667 302.993 27.1667C306.68 27.1667 309.667 24.18 309.667 20.5C309.667 16.82 306.68 13.8334 302.993 13.8334ZM303 25.8334C300.053 25.8334 297.667 23.4467 297.667 20.5C297.667 17.5534 300.053 15.1667 303 15.1667C305.947 15.1667 308.333 17.5534 308.333 20.5C308.333 23.4467 305.947 25.8334 303 25.8334ZM303.333 17.1667H302.333V21.1667L305.833 23.2667L306.333 22.4467L303.333 20.6667V17.1667Z" fill="#CC2610"/>
<path d="M317.324 26V16.76L317.926 17.418H315.112V16.2H318.71V26H317.324ZM330.738 18.51C331.335 18.51 331.862 18.6267 332.32 18.86C332.777 19.0933 333.132 19.448 333.384 19.924C333.645 20.4 333.776 21.002 333.776 21.73V26H332.432V21.884C332.432 21.1653 332.264 20.624 331.928 20.26C331.592 19.896 331.12 19.714 330.514 19.714C330.066 19.714 329.674 19.8073 329.338 19.994C329.002 20.1807 328.74 20.456 328.554 20.82C328.376 21.184 328.288 21.6367 328.288 22.178V26H326.944V21.884C326.944 21.1653 326.776 20.624 326.44 20.26C326.113 19.896 325.642 19.714 325.026 19.714C324.587 19.714 324.2 19.8073 323.864 19.994C323.528 20.1807 323.266 20.456 323.08 20.82C322.893 21.184 322.8 21.6367 322.8 22.178V26H321.456V18.58H322.744V20.554L322.534 20.05C322.767 19.5647 323.126 19.1867 323.612 18.916C324.097 18.6453 324.662 18.51 325.306 18.51C326.015 18.51 326.626 18.6873 327.14 19.042C327.653 19.3873 327.989 19.9147 328.148 20.624L327.602 20.4C327.826 19.8307 328.218 19.3733 328.778 19.028C329.338 18.6827 329.991 18.51 330.738 18.51ZM336.249 26V18.58H337.593V26H336.249ZM336.921 17.152C336.659 17.152 336.44 17.068 336.263 16.9C336.095 16.732 336.011 16.5267 336.011 16.284C336.011 16.032 336.095 15.822 336.263 15.654C336.44 15.486 336.659 15.402 336.921 15.402C337.182 15.402 337.397 15.486 337.565 15.654C337.742 15.8127 337.831 16.0133 337.831 16.256C337.831 16.508 337.747 16.7227 337.579 16.9C337.411 17.068 337.191 17.152 336.921 17.152ZM344.121 18.51C344.727 18.51 345.259 18.6267 345.717 18.86C346.183 19.0933 346.547 19.448 346.809 19.924C347.07 20.4 347.201 21.002 347.201 21.73V26H345.857V21.884C345.857 21.1653 345.679 20.624 345.325 20.26C344.979 19.896 344.489 19.714 343.855 19.714C343.379 19.714 342.963 19.8073 342.609 19.994C342.254 20.1807 341.979 20.456 341.783 20.82C341.596 21.184 341.503 21.6367 341.503 22.178V26H340.159V18.58H341.447V20.582L341.237 20.05C341.479 19.5647 341.853 19.1867 342.357 18.916C342.861 18.6453 343.449 18.51 344.121 18.51Z" fill="#CC2610"/>
<path d="M18.096 60L14.568 55.48H14.288C13.792 55.48 13.2373 55.4587 12.624 55.416V60H10.36V48.464C10.936 48.3307 11.5707 48.224 12.264 48.144C12.9573 48.064 13.6373 48.024 14.304 48.024C16.1067 48.024 17.448 48.3227 18.328 48.92C19.2133 49.512 19.656 50.448 19.656 51.728C19.656 52.608 19.4187 53.3387 18.944 53.92C18.4693 54.496 17.776 54.912 16.864 55.168L20.672 60H18.096ZM12.624 53.728C13.232 53.792 13.8187 53.824 14.384 53.824C15.4667 53.824 16.256 53.6587 16.752 53.328C17.2533 52.992 17.504 52.464 17.504 51.744C17.504 51.2427 17.3973 50.84 17.184 50.536C16.976 50.232 16.6507 50.0107 16.208 49.872C15.7707 49.7333 15.1973 49.664 14.488 49.664C13.8693 49.664 13.248 49.7227 12.624 49.84V53.728ZM25.7979 60.16C24.8592 60.16 24.0432 59.9893 23.3499 59.648C22.6565 59.3067 22.1205 58.7973 21.7419 58.12C21.3632 57.4427 21.1739 56.616 21.1739 55.64C21.1739 54.664 21.3579 53.84 21.7259 53.168C22.0992 52.496 22.6299 51.9893 23.3179 51.648C24.0112 51.3067 24.8379 51.136 25.7979 51.136C26.7632 51.136 27.5899 51.3067 28.2779 51.648C28.9712 51.984 29.5019 52.488 29.8699 53.16C30.2379 53.8267 30.4219 54.6533 30.4219 55.64C30.4219 56.6053 30.2299 57.4267 29.8459 58.104C29.4672 58.7813 28.9285 59.2933 28.2299 59.64C27.5365 59.9867 26.7259 60.16 25.7979 60.16ZM25.7979 58.416C27.3819 58.416 28.1739 57.4933 28.1739 55.648C28.1739 54.688 27.9712 53.9893 27.5659 53.552C27.1605 53.1093 26.5712 52.888 25.7979 52.888C25.0299 52.888 24.4405 53.1067 24.0299 53.544C23.6245 53.9813 23.4219 54.6773 23.4219 55.632C23.4219 57.488 24.2139 58.416 25.7979 58.416ZM35.7715 60.144C34.6942 60.144 33.8462 59.8507 33.2275 59.264C32.6142 58.672 32.3075 57.7547 32.3075 56.512V51.272H34.5635V56.392C34.5635 57.0533 34.7102 57.528 35.0035 57.816C35.2968 58.0987 35.7208 58.24 36.2755 58.24C36.6862 58.24 37.0915 58.1627 37.4915 58.008C37.8915 57.848 38.2355 57.6187 38.5235 57.32V51.272H40.7795V60H38.9235L38.7795 59.112H38.6835C38.2888 59.4427 37.8408 59.6987 37.3395 59.88C36.8382 60.056 36.3155 60.144 35.7715 60.144ZM48.069 58.344C48.3677 58.344 48.7383 58.3013 49.181 58.216V59.968C48.6103 60.096 48.037 60.16 47.461 60.16C46.3357 60.16 45.4797 59.8907 44.893 59.352C44.3117 58.8133 44.021 58 44.021 56.912V53.064H42.357V51.272H44.021L44.421 48.16H46.277V51.272H49.093V53.064H46.277V56.488C46.277 57.16 46.421 57.6373 46.709 57.92C46.997 58.2027 47.4503 58.344 48.069 58.344ZM50.7709 60V51.272H53.0269V60H50.7709ZM51.8989 49.784C51.4295 49.784 51.0749 49.688 50.8349 49.496C50.6002 49.2987 50.4829 49.0133 50.4829 48.64C50.4829 48.2667 50.6002 47.9813 50.8349 47.784C51.0749 47.5867 51.4295 47.488 51.8989 47.488C52.3682 47.488 52.7202 47.5867 52.9549 47.784C53.1949 47.9813 53.3149 48.2667 53.3149 48.64C53.3149 49.0133 53.1949 49.2987 52.9549 49.496C52.7202 49.688 52.3682 49.784 51.8989 49.784ZM55.474 51.272H57.33L57.474 52.184H57.586C57.9807 51.848 58.4367 51.5893 58.954 51.408C59.4767 51.2267 60.0287 51.136 60.61 51.136C61.6713 51.136 62.506 51.4347 63.114 52.032C63.722 52.624 64.026 53.5467 64.026 54.8V60H61.77V54.904C61.77 54.2373 61.6207 53.76 61.322 53.472C61.0287 53.184 60.5913 53.04 60.01 53.04C59.594 53.04 59.1807 53.1173 58.77 53.272C58.3647 53.4267 58.018 53.656 57.73 53.96V60H55.474V51.272ZM74.3566 56.272H68.1326C68.1646 56.8107 68.29 57.2453 68.5086 57.576C68.7326 57.9013 69.074 58.1413 69.5326 58.296C69.9913 58.4453 70.5993 58.52 71.3566 58.52C72.098 58.52 72.9246 58.416 73.8366 58.208V59.832C72.9086 60.0507 71.9726 60.16 71.0286 60.16C69.2953 60.16 68.0046 59.7947 67.1566 59.064C66.314 58.328 65.8926 57.192 65.8926 55.656C65.8926 54.7067 66.0606 53.8933 66.3966 53.216C66.738 52.5387 67.234 52.024 67.8846 51.672C68.5406 51.3147 69.3273 51.136 70.2446 51.136C71.578 51.136 72.5966 51.5333 73.3006 52.328C74.0046 53.1227 74.3566 54.2533 74.3566 55.72V56.272ZM70.2046 52.552C69.538 52.552 69.0286 52.752 68.6766 53.152C68.33 53.5467 68.146 54.16 68.1246 54.992H72.2606C72.2393 54.16 72.058 53.5467 71.7166 53.152C71.3753 52.752 70.8713 52.552 70.2046 52.552ZM87.0756 60.152C84.9103 60.152 83.2543 59.6587 82.1076 58.672C80.961 57.68 80.3876 56.1573 80.3876 54.104C80.3876 52.7867 80.6516 51.6747 81.1796 50.768C81.7076 49.856 82.4783 49.168 83.4916 48.704C84.505 48.24 85.737 48.008 87.1876 48.008C88.1956 48.008 89.1716 48.12 90.1156 48.344V50.216C89.2303 50.0027 88.3076 49.896 87.3476 49.896C85.817 49.896 84.6756 50.2347 83.9236 50.912C83.177 51.5893 82.8036 52.6427 82.8036 54.072C82.8036 55.5333 83.1716 56.5973 83.9076 57.264C84.6436 57.9307 85.745 58.264 87.2116 58.264C88.1983 58.264 89.1663 58.1307 90.1156 57.864V59.736C89.177 60.0133 88.1636 60.152 87.0756 60.152ZM91.9584 60V47.072H94.2144V60H91.9584ZM104.654 56.272H98.4295C98.4615 56.8107 98.5868 57.2453 98.8055 57.576C99.0295 57.9013 99.3708 58.1413 99.8295 58.296C100.288 58.4453 100.896 58.52 101.654 58.52C102.395 58.52 103.222 58.416 104.134 58.208V59.832C103.206 60.0507 102.27 60.16 101.326 60.16C99.5922 60.16 98.3015 59.7947 97.4535 59.064C96.6108 58.328 96.1895 57.192 96.1895 55.656C96.1895 54.7067 96.3575 53.8933 96.6935 53.216C97.0348 52.5387 97.5308 52.024 98.1815 51.672C98.8375 51.3147 99.6242 51.136 100.542 51.136C101.875 51.136 102.894 51.5333 103.598 52.328C104.302 53.1227 104.654 54.2533 104.654 55.72V56.272ZM100.502 52.552C99.8348 52.552 99.3255 52.752 98.9735 53.152C98.6268 53.5467 98.4428 54.16 98.4215 54.992H102.558C102.536 54.16 102.355 53.5467 102.014 53.152C101.672 52.752 101.168 52.552 100.502 52.552ZM109.723 51.136C110.72 51.136 111.525 51.2507 112.139 51.48C112.757 51.7093 113.216 52.0907 113.515 52.624C113.819 53.1573 113.971 53.8853 113.971 54.808V60H112.091L111.939 59.12H111.827C111.507 59.4507 111.107 59.7067 110.627 59.888C110.147 60.064 109.632 60.152 109.083 60.152C108.416 60.152 107.848 60.048 107.379 59.84C106.915 59.632 106.563 59.3413 106.323 58.968C106.083 58.5947 105.963 58.16 105.963 57.664C105.963 56.864 106.269 56.2453 106.883 55.808C107.496 55.3653 108.467 55.096 109.795 55L111.763 54.816V54.64C111.763 54.1653 111.68 53.7973 111.515 53.536C111.349 53.2693 111.093 53.08 110.747 52.968C110.405 52.856 109.944 52.8 109.363 52.8C108.957 52.8 108.515 52.8347 108.035 52.904C107.56 52.968 107.109 53.0667 106.683 53.2V51.56C107.131 51.4213 107.624 51.3173 108.163 51.248C108.707 51.1733 109.227 51.136 109.723 51.136ZM109.747 58.64C110.115 58.64 110.472 58.5787 110.819 58.456C111.165 58.3333 111.48 58.1493 111.763 57.904V56.088L109.979 56.248C109.344 56.312 108.891 56.4453 108.619 56.648C108.347 56.8453 108.211 57.1253 108.211 57.488C108.211 57.8507 108.339 58.1333 108.595 58.336C108.851 58.5387 109.235 58.64 109.747 58.64ZM116.318 51.272H118.174L118.318 52.184H118.43C118.824 51.848 119.28 51.5893 119.798 51.408C120.32 51.2267 120.872 51.136 121.454 51.136C122.515 51.136 123.35 51.4347 123.958 52.032C124.566 52.624 124.87 53.5467 124.87 54.8V60H122.614V54.904C122.614 54.2373 122.464 53.76 122.166 53.472C121.872 53.184 121.435 53.04 120.854 53.04C120.438 53.04 120.024 53.1173 119.614 53.272C119.208 53.4267 118.862 53.656 118.574 53.96V60H116.318V51.272ZM127.208 60V51.272H129.464V60H127.208ZM128.336 49.784C127.867 49.784 127.512 49.688 127.272 49.496C127.038 49.2987 126.92 49.0133 126.92 48.64C126.92 48.2667 127.038 47.9813 127.272 47.784C127.512 47.5867 127.867 47.488 128.336 47.488C128.806 47.488 129.158 47.5867 129.392 47.784C129.632 47.9813 129.752 48.2667 129.752 48.64C129.752 49.0133 129.632 49.2987 129.392 49.496C129.158 49.688 128.806 49.784 128.336 49.784ZM131.912 51.272H133.768L133.912 52.184H134.024C134.418 51.848 134.874 51.5893 135.391 51.408C135.914 51.2267 136.466 51.136 137.048 51.136C138.109 51.136 138.944 51.4347 139.552 52.032C140.16 52.624 140.464 53.5467 140.464 54.8V60H138.208V54.904C138.208 54.2373 138.058 53.76 137.76 53.472C137.466 53.184 137.029 53.04 136.448 53.04C136.032 53.04 135.618 53.1173 135.207 53.272C134.802 53.4267 134.456 53.656 134.168 53.96V60H131.912V51.272ZM146.258 63.68C145.079 63.68 143.975 63.536 142.946 63.248V61.496C144.077 61.8107 145.133 61.968 146.114 61.968C146.818 61.968 147.383 61.888 147.81 61.728C148.242 61.568 148.557 61.3147 148.754 60.968C148.957 60.6267 149.058 60.1733 149.058 59.608V59.024H148.946C148.605 59.3547 148.202 59.608 147.738 59.784C147.274 59.9547 146.759 60.04 146.194 60.04C145.469 60.04 144.813 59.8853 144.226 59.576C143.645 59.2613 143.183 58.7867 142.842 58.152C142.501 57.5173 142.33 56.7413 142.33 55.824C142.33 54.3147 142.781 53.1573 143.682 52.352C144.583 51.5413 145.906 51.136 147.65 51.136C148.269 51.136 148.901 51.1787 149.546 51.264C150.191 51.3493 150.781 51.4693 151.314 51.624V59.192C151.314 60.2373 151.133 61.0907 150.77 61.752C150.407 62.4133 149.853 62.8987 149.106 63.208C148.365 63.5227 147.415 63.68 146.258 63.68ZM146.946 58.224C147.341 58.224 147.722 58.16 148.09 58.032C148.458 57.904 148.781 57.7093 149.058 57.448V53.032C148.557 52.9093 148.021 52.848 147.45 52.848C145.535 52.848 144.578 53.7787 144.578 55.64C144.578 56.5467 144.786 57.2053 145.202 57.616C145.623 58.0213 146.205 58.224 146.946 58.224Z" fill="#1A0A02"/>
<rect x="258" y="44" width="95" height="23" rx="11.5" fill="#F7F7F7"/>
<path d="M267.26 60V51.6H268.46V60H267.26ZM274.203 53.58C274.723 53.58 275.179 53.68 275.571 53.88C275.971 54.08 276.283 54.384 276.507 54.792C276.731 55.2 276.843 55.716 276.843 56.34V60H275.691V56.472C275.691 55.856 275.539 55.392 275.235 55.08C274.939 54.768 274.519 54.612 273.975 54.612C273.567 54.612 273.211 54.692 272.907 54.852C272.603 55.012 272.367 55.248 272.199 55.56C272.039 55.872 271.959 56.26 271.959 56.724V60H270.807V53.64H271.911V55.356L271.731 54.9C271.939 54.484 272.259 54.16 272.691 53.928C273.123 53.696 273.627 53.58 274.203 53.58ZM281.159 60.072C280.519 60.072 280.023 59.9 279.671 59.556C279.319 59.212 279.143 58.72 279.143 58.08V52.248H280.295V58.032C280.295 58.376 280.379 58.64 280.547 58.824C280.723 59.008 280.971 59.1 281.291 59.1C281.651 59.1 281.951 59 282.191 58.8L282.551 59.628C282.375 59.78 282.163 59.892 281.915 59.964C281.675 60.036 281.423 60.072 281.159 60.072ZM278.063 54.588V53.64H282.119V54.588H278.063ZM286.565 60.072C285.885 60.072 285.285 59.932 284.765 59.652C284.253 59.372 283.853 58.988 283.565 58.5C283.285 58.012 283.145 57.452 283.145 56.82C283.145 56.188 283.281 55.628 283.553 55.14C283.833 54.652 284.213 54.272 284.693 54C285.181 53.72 285.729 53.58 286.337 53.58C286.953 53.58 287.497 53.716 287.969 53.988C288.441 54.26 288.809 54.644 289.073 55.14C289.345 55.628 289.481 56.2 289.481 56.856C289.481 56.904 289.477 56.96 289.469 57.024C289.469 57.088 289.465 57.148 289.457 57.204H284.045V56.376H288.857L288.389 56.664C288.397 56.256 288.313 55.892 288.137 55.572C287.961 55.252 287.717 55.004 287.405 54.828C287.101 54.644 286.745 54.552 286.337 54.552C285.937 54.552 285.581 54.644 285.269 54.828C284.957 55.004 284.713 55.256 284.537 55.584C284.361 55.904 284.273 56.272 284.273 56.688V56.88C284.273 57.304 284.369 57.684 284.561 58.02C284.761 58.348 285.037 58.604 285.389 58.788C285.741 58.972 286.145 59.064 286.601 59.064C286.977 59.064 287.317 59 287.621 58.872C287.933 58.744 288.205 58.552 288.437 58.296L289.073 59.04C288.785 59.376 288.425 59.632 287.993 59.808C287.569 59.984 287.093 60.072 286.565 60.072ZM291.08 60V53.64H292.184V55.368L292.076 54.936C292.252 54.496 292.548 54.16 292.964 53.928C293.38 53.696 293.892 53.58 294.5 53.58V54.696C294.452 54.688 294.404 54.684 294.356 54.684C294.316 54.684 294.276 54.684 294.236 54.684C293.62 54.684 293.132 54.868 292.772 55.236C292.412 55.604 292.232 56.136 292.232 56.832V60H291.08ZM299.316 53.58C299.836 53.58 300.292 53.68 300.684 53.88C301.084 54.08 301.396 54.384 301.62 54.792C301.844 55.2 301.956 55.716 301.956 56.34V60H300.804V56.472C300.804 55.856 300.652 55.392 300.348 55.08C300.052 54.768 299.632 54.612 299.088 54.612C298.68 54.612 298.324 54.692 298.02 54.852C297.716 55.012 297.48 55.248 297.312 55.56C297.152 55.872 297.072 56.26 297.072 56.724V60H295.92V53.64H297.024V55.356L296.844 54.9C297.052 54.484 297.372 54.16 297.804 53.928C298.236 53.696 298.74 53.58 299.316 53.58ZM308.036 60V58.656L307.976 58.404V56.112C307.976 55.624 307.832 55.248 307.544 54.984C307.264 54.712 306.84 54.576 306.272 54.576C305.896 54.576 305.528 54.64 305.168 54.768C304.808 54.888 304.504 55.052 304.256 55.26L303.776 54.396C304.104 54.132 304.496 53.932 304.952 53.796C305.416 53.652 305.9 53.58 306.404 53.58C307.276 53.58 307.948 53.792 308.42 54.216C308.892 54.64 309.128 55.288 309.128 56.16V60H308.036ZM305.948 60.072C305.476 60.072 305.06 59.992 304.7 59.832C304.348 59.672 304.076 59.452 303.884 59.172C303.692 58.884 303.596 58.56 303.596 58.2C303.596 57.856 303.676 57.544 303.836 57.264C304.004 56.984 304.272 56.76 304.64 56.592C305.016 56.424 305.52 56.34 306.152 56.34H308.168V57.168H306.2C305.624 57.168 305.236 57.264 305.036 57.456C304.836 57.648 304.736 57.88 304.736 58.152C304.736 58.464 304.86 58.716 305.108 58.908C305.356 59.092 305.7 59.184 306.14 59.184C306.572 59.184 306.948 59.088 307.268 58.896C307.596 58.704 307.832 58.424 307.976 58.056L308.204 58.848C308.052 59.224 307.784 59.524 307.4 59.748C307.016 59.964 306.532 60.072 305.948 60.072ZM311.26 60V51.096H312.412V60H311.26ZM319.67 60V52.644H316.79V51.6H323.738V52.644H320.858V60H319.67ZM328.485 60V58.656L328.425 58.404V56.112C328.425 55.624 328.281 55.248 327.993 54.984C327.713 54.712 327.289 54.576 326.721 54.576C326.345 54.576 325.977 54.64 325.617 54.768C325.257 54.888 324.953 55.052 324.705 55.26L324.225 54.396C324.553 54.132 324.945 53.932 325.401 53.796C325.865 53.652 326.349 53.58 326.853 53.58C327.725 53.58 328.397 53.792 328.869 54.216C329.341 54.64 329.577 55.288 329.577 56.16V60H328.485ZM326.397 60.072C325.925 60.072 325.509 59.992 325.149 59.832C324.797 59.672 324.525 59.452 324.333 59.172C324.141 58.884 324.045 58.56 324.045 58.2C324.045 57.856 324.125 57.544 324.285 57.264C324.453 56.984 324.721 56.76 325.089 56.592C325.465 56.424 325.969 56.34 326.601 56.34H328.617V57.168H326.649C326.073 57.168 325.685 57.264 325.485 57.456C325.285 57.648 325.185 57.88 325.185 58.152C325.185 58.464 325.309 58.716 325.557 58.908C325.805 59.092 326.149 59.184 326.589 59.184C327.021 59.184 327.397 59.088 327.717 58.896C328.045 58.704 328.281 58.424 328.425 58.056L328.653 58.848C328.501 59.224 328.233 59.524 327.849 59.748C327.465 59.964 326.981 60.072 326.397 60.072ZM333.533 60.072C333.005 60.072 332.501 60 332.021 59.856C331.549 59.712 331.177 59.536 330.905 59.328L331.385 58.416C331.657 58.6 331.993 58.756 332.393 58.884C332.793 59.012 333.201 59.076 333.617 59.076C334.153 59.076 334.537 59 334.769 58.848C335.009 58.696 335.129 58.484 335.129 58.212C335.129 58.012 335.057 57.856 334.913 57.744C334.769 57.632 334.577 57.548 334.337 57.492C334.105 57.436 333.845 57.388 333.557 57.348C333.269 57.3 332.981 57.244 332.693 57.18C332.405 57.108 332.141 57.012 331.901 56.892C331.661 56.764 331.469 56.592 331.325 56.376C331.181 56.152 331.109 55.856 331.109 55.488C331.109 55.104 331.217 54.768 331.433 54.48C331.649 54.192 331.953 53.972 332.345 53.82C332.745 53.66 333.217 53.58 333.761 53.58C334.177 53.58 334.597 53.632 335.021 53.736C335.453 53.832 335.805 53.972 336.077 54.156L335.585 55.068C335.297 54.876 334.997 54.744 334.685 54.672C334.373 54.6 334.061 54.564 333.749 54.564C333.245 54.564 332.869 54.648 332.621 54.816C332.373 54.976 332.249 55.184 332.249 55.44C332.249 55.656 332.321 55.824 332.465 55.944C332.617 56.056 332.809 56.144 333.041 56.208C333.281 56.272 333.545 56.328 333.833 56.376C334.121 56.416 334.409 56.472 334.697 56.544C334.985 56.608 335.245 56.7 335.477 56.82C335.717 56.94 335.909 57.108 336.053 57.324C336.205 57.54 336.281 57.828 336.281 58.188C336.281 58.572 336.169 58.904 335.945 59.184C335.721 59.464 335.405 59.684 334.997 59.844C334.589 59.996 334.101 60.072 333.533 60.072ZM338.657 58.464L338.681 56.988L342.341 53.64H343.733L340.925 56.4L340.301 56.928L338.657 58.464ZM337.721 60V51.096H338.873V60H337.721ZM342.581 60L340.085 56.904L340.829 55.98L343.997 60H342.581Z" fill="#5F69C7"/>
<path d="M12.3333 93.6667C11.9667 93.6667 11.6528 93.5362 11.3917 93.275C11.1306 93.0139 11 92.7 11 92.3334V83C11 82.6334 11.1306 82.3195 11.3917 82.0584C11.6528 81.7973 11.9667 81.6667 12.3333 81.6667H13V80.3334H14.3333V81.6667H19.6667V80.3334H21V81.6667H21.6667C22.0333 81.6667 22.3472 81.7973 22.6083 82.0584C22.8694 82.3195 23 82.6334 23 83V92.3334C23 92.7 22.8694 93.0139 22.6083 93.275C22.3472 93.5362 22.0333 93.6667 21.6667 93.6667H12.3333ZM12.3333 92.3334H21.6667V85.6667H12.3333V92.3334ZM12.3333 84.3334H21.6667V83H12.3333V84.3334Z" fill="#767676"/>
<path d="M33.6667 91.5V90.684L37.0867 87.384C37.3907 87.096 37.6147 86.844 37.7587 86.628C37.9107 86.404 38.0107 86.2 38.0587 86.016C38.1147 85.824 38.1427 85.64 38.1427 85.464C38.1427 85.032 37.9907 84.692 37.6867 84.444C37.3827 84.196 36.9387 84.072 36.3547 84.072C35.9067 84.072 35.5027 84.148 35.1427 84.3C34.7827 84.444 34.4707 84.672 34.2067 84.984L33.3907 84.276C33.7107 83.868 34.1387 83.556 34.6747 83.34C35.2187 83.116 35.8147 83.004 36.4627 83.004C37.0467 83.004 37.5547 83.1 37.9867 83.292C38.4187 83.476 38.7507 83.744 38.9827 84.096C39.2227 84.448 39.3427 84.864 39.3427 85.344C39.3427 85.616 39.3067 85.884 39.2347 86.148C39.1627 86.412 39.0267 86.692 38.8267 86.988C38.6267 87.284 38.3387 87.616 37.9627 87.984L34.9147 90.924L34.6267 90.456H39.7027V91.5H33.6667ZM42.1053 91.5V83.58L42.6213 84.144H40.2093V83.1H43.2933V91.5H42.1053ZM50.1173 91.596C49.6213 91.596 49.1573 91.492 48.7253 91.284C48.2933 91.076 47.9413 90.776 47.6693 90.384L48.3653 89.568C48.5973 89.888 48.8573 90.136 49.1453 90.312C49.4413 90.48 49.7653 90.564 50.1173 90.564C51.0773 90.564 51.5573 89.996 51.5573 88.86V84.144H48.5213V83.1H52.7453V88.8C52.7453 89.736 52.5213 90.436 52.0733 90.9C51.6333 91.364 50.9813 91.596 50.1173 91.596ZM57.6977 91.572C57.1537 91.572 56.6737 91.472 56.2577 91.272C55.8497 91.072 55.5297 90.768 55.2977 90.36C55.0737 89.944 54.9617 89.424 54.9617 88.8V85.14H56.1137V88.668C56.1137 89.292 56.2617 89.76 56.5577 90.072C56.8617 90.384 57.2857 90.54 57.8297 90.54C58.2297 90.54 58.5777 90.46 58.8737 90.3C59.1697 90.132 59.3977 89.892 59.5577 89.58C59.7177 89.26 59.7977 88.876 59.7977 88.428V85.14H60.9497V91.5H59.8577V89.784L60.0377 90.24C59.8297 90.664 59.5177 90.992 59.1017 91.224C58.6857 91.456 58.2177 91.572 57.6977 91.572ZM63.1428 91.5V82.596H64.2948V91.5H63.1428ZM69.069 91.5V90.684L72.489 87.384C72.793 87.096 73.017 86.844 73.161 86.628C73.313 86.404 73.413 86.2 73.461 86.016C73.517 85.824 73.545 85.64 73.545 85.464C73.545 85.032 73.393 84.692 73.089 84.444C72.785 84.196 72.341 84.072 71.757 84.072C71.309 84.072 70.905 84.148 70.545 84.3C70.185 84.444 69.873 84.672 69.609 84.984L68.793 84.276C69.113 83.868 69.541 83.556 70.077 83.34C70.621 83.116 71.217 83.004 71.865 83.004C72.449 83.004 72.957 83.1 73.389 83.292C73.821 83.476 74.153 83.744 74.385 84.096C74.625 84.448 74.745 84.864 74.745 85.344C74.745 85.616 74.709 85.884 74.637 86.148C74.565 86.412 74.429 86.692 74.229 86.988C74.029 87.284 73.741 87.616 73.365 87.984L70.317 90.924L70.029 90.456H75.105V91.5H69.069ZM79.5119 91.596C78.8559 91.596 78.2679 91.428 77.7479 91.092C77.2359 90.756 76.8279 90.268 76.5239 89.628C76.2279 88.988 76.0799 88.212 76.0799 87.3C76.0799 86.388 76.2279 85.612 76.5239 84.972C76.8279 84.332 77.2359 83.844 77.7479 83.508C78.2679 83.172 78.8559 83.004 79.5119 83.004C80.1599 83.004 80.7439 83.172 81.2639 83.508C81.7839 83.844 82.1919 84.332 82.4879 84.972C82.7839 85.612 82.9319 86.388 82.9319 87.3C82.9319 88.212 82.7839 88.988 82.4879 89.628C82.1919 90.268 81.7839 90.756 81.2639 91.092C80.7439 91.428 80.1599 91.596 79.5119 91.596ZM79.5119 90.528C79.9519 90.528 80.3359 90.408 80.6639 90.168C80.9999 89.928 81.2599 89.568 81.4439 89.088C81.6359 88.608 81.7319 88.012 81.7319 87.3C81.7319 86.588 81.6359 85.992 81.4439 85.512C81.2599 85.032 80.9999 84.672 80.6639 84.432C80.3359 84.192 79.9519 84.072 79.5119 84.072C79.0719 84.072 78.6839 84.192 78.3479 84.432C78.0119 84.672 77.7479 85.032 77.5559 85.512C77.3719 85.992 77.2799 86.588 77.2799 87.3C77.2799 88.012 77.3719 88.608 77.5559 89.088C77.7479 89.568 78.0119 89.928 78.3479 90.168C78.6839 90.408 79.0719 90.528 79.5119 90.528ZM83.9518 91.5V90.684L87.3718 87.384C87.6758 87.096 87.8998 86.844 88.0438 86.628C88.1958 86.404 88.2958 86.2 88.3438 86.016C88.3998 85.824 88.4278 85.64 88.4278 85.464C88.4278 85.032 88.2758 84.692 87.9718 84.444C87.6678 84.196 87.2238 84.072 86.6398 84.072C86.1918 84.072 85.7878 84.148 85.4278 84.3C85.0678 84.444 84.7558 84.672 84.4918 84.984L83.6758 84.276C83.9958 83.868 84.4238 83.556 84.9598 83.34C85.5038 83.116 86.0998 83.004 86.7478 83.004C87.3318 83.004 87.8398 83.1 88.2718 83.292C88.7038 83.476 89.0358 83.744 89.2678 84.096C89.5078 84.448 89.6278 84.864 89.6278 85.344C89.6278 85.616 89.5918 85.884 89.5198 86.148C89.4478 86.412 89.3118 86.692 89.1118 86.988C88.9118 87.284 88.6238 87.616 88.2478 87.984L85.1998 90.924L84.9118 90.456H89.9878V91.5H83.9518ZM90.6318 89.436V88.596L94.9278 83.1H96.2238L91.9638 88.596L91.3518 88.404H98.0598V89.436H90.6318ZM95.2998 91.5V89.436L95.3358 88.404V86.58H96.4638V91.5H95.2998ZM102.686 93.828V82.596H103.754V93.828H102.686ZM112.242 91.596C111.586 91.596 110.998 91.428 110.478 91.092C109.966 90.756 109.558 90.268 109.254 89.628C108.958 88.988 108.81 88.212 108.81 87.3C108.81 86.388 108.958 85.612 109.254 84.972C109.558 84.332 109.966 83.844 110.478 83.508C110.998 83.172 111.586 83.004 112.242 83.004C112.89 83.004 113.474 83.172 113.994 83.508C114.514 83.844 114.922 84.332 115.218 84.972C115.514 85.612 115.662 86.388 115.662 87.3C115.662 88.212 115.514 88.988 115.218 89.628C114.922 90.268 114.514 90.756 113.994 91.092C113.474 91.428 112.89 91.596 112.242 91.596ZM112.242 90.528C112.682 90.528 113.066 90.408 113.394 90.168C113.73 89.928 113.99 89.568 114.174 89.088C114.366 88.608 114.462 88.012 114.462 87.3C114.462 86.588 114.366 85.992 114.174 85.512C113.99 85.032 113.73 84.672 113.394 84.432C113.066 84.192 112.682 84.072 112.242 84.072C111.802 84.072 111.414 84.192 111.078 84.432C110.742 84.672 110.478 85.032 110.286 85.512C110.102 85.992 110.01 86.588 110.01 87.3C110.01 88.012 110.102 88.608 110.286 89.088C110.478 89.568 110.742 89.928 111.078 90.168C111.414 90.408 111.802 90.528 112.242 90.528ZM119.265 91.596C118.673 91.596 118.097 91.504 117.537 91.32C116.985 91.136 116.533 90.888 116.181 90.576L116.733 89.628C117.013 89.892 117.377 90.108 117.825 90.276C118.273 90.444 118.753 90.528 119.265 90.528C119.889 90.528 120.373 90.396 120.717 90.132C121.069 89.86 121.245 89.496 121.245 89.04C121.245 88.6 121.077 88.248 120.741 87.984C120.413 87.712 119.889 87.576 119.169 87.576H118.497V86.736L120.993 83.664L121.161 84.144H116.565V83.1H122.109V83.916L119.625 86.976L119.001 86.604H119.397C120.413 86.604 121.173 86.832 121.677 87.288C122.189 87.744 122.445 88.324 122.445 89.028C122.445 89.5 122.329 89.932 122.097 90.324C121.865 90.716 121.513 91.028 121.041 91.26C120.577 91.484 119.985 91.596 119.265 91.596ZM124.356 86.724C124.132 86.724 123.94 86.648 123.78 86.496C123.62 86.336 123.54 86.136 123.54 85.896C123.54 85.656 123.62 85.46 123.78 85.308C123.94 85.156 124.132 85.08 124.356 85.08C124.572 85.08 124.756 85.156 124.908 85.308C125.068 85.46 125.148 85.656 125.148 85.896C125.148 86.136 125.068 86.336 124.908 86.496C124.756 86.648 124.572 86.724 124.356 86.724ZM124.356 91.572C124.132 91.572 123.94 91.496 123.78 91.344C123.62 91.184 123.54 90.984 123.54 90.744C123.54 90.504 123.62 90.308 123.78 90.156C123.94 90.004 124.132 89.928 124.356 89.928C124.572 89.928 124.756 90.004 124.908 90.156C125.068 90.308 125.148 90.504 125.148 90.744C125.148 90.984 125.068 91.184 124.908 91.344C124.756 91.496 124.572 91.572 124.356 91.572ZM129.715 91.596C129.059 91.596 128.471 91.428 127.951 91.092C127.439 90.756 127.031 90.268 126.727 89.628C126.431 88.988 126.283 88.212 126.283 87.3C126.283 86.388 126.431 85.612 126.727 84.972C127.031 84.332 127.439 83.844 127.951 83.508C128.471 83.172 129.059 83.004 129.715 83.004C130.363 83.004 130.947 83.172 131.467 83.508C131.987 83.844 132.395 84.332 132.691 84.972C132.987 85.612 133.135 86.388 133.135 87.3C133.135 88.212 132.987 88.988 132.691 89.628C132.395 90.268 131.987 90.756 131.467 91.092C130.947 91.428 130.363 91.596 129.715 91.596ZM129.715 90.528C130.155 90.528 130.539 90.408 130.867 90.168C131.203 89.928 131.463 89.568 131.647 89.088C131.839 88.608 131.935 88.012 131.935 87.3C131.935 86.588 131.839 85.992 131.647 85.512C131.463 85.032 131.203 84.672 130.867 84.432C130.539 84.192 130.155 84.072 129.715 84.072C129.275 84.072 128.887 84.192 128.551 84.432C128.215 84.672 127.951 85.032 127.759 85.512C127.575 85.992 127.483 86.588 127.483 87.3C127.483 88.012 127.575 88.608 127.759 89.088C127.951 89.568 128.215 89.928 128.551 90.168C128.887 90.408 129.275 90.528 129.715 90.528ZM137.719 91.596C137.063 91.596 136.475 91.428 135.955 91.092C135.443 90.756 135.035 90.268 134.731 89.628C134.435 88.988 134.287 88.212 134.287 87.3C134.287 86.388 134.435 85.612 134.731 84.972C135.035 84.332 135.443 83.844 135.955 83.508C136.475 83.172 137.063 83.004 137.719 83.004C138.367 83.004 138.951 83.172 139.471 83.508C139.991 83.844 140.399 84.332 140.695 84.972C140.991 85.612 141.139 86.388 141.139 87.3C141.139 88.212 140.991 88.988 140.695 89.628C140.399 90.268 139.991 90.756 139.471 91.092C138.951 91.428 138.367 91.596 137.719 91.596ZM137.719 90.528C138.159 90.528 138.543 90.408 138.871 90.168C139.207 89.928 139.467 89.568 139.651 89.088C139.843 88.608 139.939 88.012 139.939 87.3C139.939 86.588 139.843 85.992 139.651 85.512C139.467 85.032 139.207 84.672 138.871 84.432C138.543 84.192 138.159 84.072 137.719 84.072C137.279 84.072 136.891 84.192 136.555 84.432C136.219 84.672 135.955 85.032 135.763 85.512C135.579 85.992 135.487 86.588 135.487 87.3C135.487 88.012 135.579 88.608 135.763 89.088C135.955 89.568 136.219 89.928 136.555 90.168C136.891 90.408 137.279 90.528 137.719 90.528ZM149.978 91.5V90.156L149.918 89.904V87.612C149.918 87.124 149.774 86.748 149.486 86.484C149.206 86.212 148.782 86.076 148.214 86.076C147.838 86.076 147.47 86.14 147.11 86.268C146.75 86.388 146.446 86.552 146.198 86.76L145.718 85.896C146.046 85.632 146.438 85.432 146.894 85.296C147.358 85.152 147.842 85.08 148.346 85.08C149.218 85.08 149.89 85.292 150.362 85.716C150.834 86.14 151.07 86.788 151.07 87.66V91.5H149.978ZM147.89 91.572C147.418 91.572 147.002 91.492 146.642 91.332C146.29 91.172 146.018 90.952 145.826 90.672C145.634 90.384 145.538 90.06 145.538 89.7C145.538 89.356 145.618 89.044 145.778 88.764C145.946 88.484 146.214 88.26 146.582 88.092C146.958 87.924 147.462 87.84 148.094 87.84H150.11V88.668H148.142C147.566 88.668 147.178 88.764 146.978 88.956C146.778 89.148 146.678 89.38 146.678 89.652C146.678 89.964 146.802 90.216 147.05 90.408C147.298 90.592 147.642 90.684 148.082 90.684C148.514 90.684 148.89 90.588 149.21 90.396C149.538 90.204 149.774 89.924 149.918 89.556L150.146 90.348C149.994 90.724 149.726 91.024 149.342 91.248C148.958 91.464 148.474 91.572 147.89 91.572ZM161.157 85.08C161.669 85.08 162.121 85.18 162.513 85.38C162.905 85.58 163.209 85.884 163.425 86.292C163.649 86.7 163.761 87.216 163.761 87.84V91.5H162.609V87.972C162.609 87.356 162.465 86.892 162.177 86.58C161.889 86.268 161.485 86.112 160.965 86.112C160.581 86.112 160.245 86.192 159.957 86.352C159.669 86.512 159.445 86.748 159.285 87.06C159.133 87.372 159.057 87.76 159.057 88.224V91.5H157.905V87.972C157.905 87.356 157.761 86.892 157.473 86.58C157.193 86.268 156.789 86.112 156.261 86.112C155.885 86.112 155.553 86.192 155.265 86.352C154.977 86.512 154.753 86.748 154.593 87.06C154.433 87.372 154.353 87.76 154.353 88.224V91.5H153.201V85.14H154.305V86.832L154.125 86.4C154.325 85.984 154.633 85.66 155.049 85.428C155.465 85.196 155.949 85.08 156.501 85.08C157.109 85.08 157.633 85.232 158.073 85.536C158.513 85.832 158.801 86.284 158.937 86.892L158.469 86.7C158.661 86.212 158.997 85.82 159.477 85.524C159.957 85.228 160.517 85.08 161.157 85.08Z" fill="#767676"/>
<path d="M307.836 91.5L308.868 83.1H309.72L308.688 91.5H307.836ZM303.324 89.34V88.464H310.728V89.34H303.324ZM304.716 91.5L305.76 83.1H306.612L305.568 91.5H304.716ZM303.708 86.136V85.26H311.112V86.136H303.708ZM318.764 91.596C318.02 91.596 317.384 91.432 316.856 91.104C316.328 90.776 315.924 90.304 315.644 89.688C315.372 89.064 315.236 88.304 315.236 87.408C315.236 86.456 315.404 85.652 315.74 84.996C316.076 84.34 316.544 83.844 317.144 83.508C317.744 83.172 318.432 83.004 319.208 83.004C319.608 83.004 319.988 83.044 320.348 83.124C320.716 83.204 321.032 83.328 321.296 83.496L320.84 84.432C320.624 84.28 320.376 84.176 320.096 84.12C319.824 84.064 319.536 84.036 319.232 84.036C318.376 84.036 317.696 84.304 317.192 84.84C316.688 85.368 316.436 86.156 316.436 87.204C316.436 87.372 316.444 87.572 316.46 87.804C316.476 88.036 316.516 88.264 316.58 88.488L316.172 88.08C316.292 87.712 316.48 87.404 316.736 87.156C317 86.9 317.312 86.712 317.672 86.592C318.04 86.464 318.436 86.4 318.86 86.4C319.42 86.4 319.916 86.504 320.348 86.712C320.78 86.92 321.12 87.216 321.368 87.6C321.616 87.976 321.74 88.424 321.74 88.944C321.74 89.48 321.608 89.948 321.344 90.348C321.08 90.748 320.724 91.056 320.276 91.272C319.828 91.488 319.324 91.596 318.764 91.596ZM318.716 90.624C319.084 90.624 319.404 90.556 319.676 90.42C319.956 90.284 320.176 90.096 320.336 89.856C320.496 89.608 320.576 89.32 320.576 88.992C320.576 88.496 320.404 88.104 320.06 87.816C319.716 87.52 319.248 87.372 318.656 87.372C318.272 87.372 317.936 87.444 317.648 87.588C317.36 87.732 317.132 87.928 316.964 88.176C316.804 88.416 316.724 88.692 316.724 89.004C316.724 89.292 316.8 89.56 316.952 89.808C317.104 90.048 317.328 90.244 317.624 90.396C317.92 90.548 318.284 90.624 318.716 90.624ZM325.918 91.596C325.238 91.596 324.65 91.496 324.154 91.296C323.658 91.096 323.274 90.812 323.002 90.444C322.73 90.068 322.594 89.628 322.594 89.124C322.594 88.628 322.722 88.208 322.978 87.864C323.242 87.512 323.622 87.248 324.118 87.072C324.614 86.888 325.214 86.796 325.918 86.796C326.622 86.796 327.222 86.888 327.718 87.072C328.222 87.248 328.606 87.512 328.87 87.864C329.134 88.216 329.266 88.636 329.266 89.124C329.266 89.628 329.13 90.068 328.858 90.444C328.586 90.812 328.198 91.096 327.694 91.296C327.19 91.496 326.598 91.596 325.918 91.596ZM325.918 90.624C326.59 90.624 327.114 90.488 327.49 90.216C327.874 89.936 328.066 89.56 328.066 89.088C328.066 88.624 327.874 88.26 327.49 87.996C327.114 87.724 326.59 87.588 325.918 87.588C325.254 87.588 324.734 87.724 324.358 87.996C323.982 88.26 323.794 88.624 323.794 89.088C323.794 89.56 323.982 89.936 324.358 90.216C324.734 90.488 325.254 90.624 325.918 90.624ZM325.918 87.444C325.278 87.444 324.734 87.36 324.286 87.192C323.838 87.016 323.494 86.768 323.254 86.448C323.014 86.12 322.894 85.732 322.894 85.284C322.894 84.812 323.018 84.408 323.266 84.072C323.522 83.728 323.878 83.464 324.334 83.28C324.79 83.096 325.318 83.004 325.918 83.004C326.526 83.004 327.058 83.096 327.514 83.28C327.97 83.464 328.326 83.728 328.582 84.072C328.838 84.408 328.966 84.812 328.966 85.284C328.966 85.732 328.846 86.12 328.606 86.448C328.366 86.768 328.018 87.016 327.562 87.192C327.106 87.36 326.558 87.444 325.918 87.444ZM325.918 86.676C326.502 86.676 326.958 86.556 327.286 86.316C327.622 86.076 327.79 85.748 327.79 85.332C327.79 84.908 327.618 84.576 327.274 84.336C326.93 84.096 326.478 83.976 325.918 83.976C325.358 83.976 324.91 84.096 324.574 84.336C324.246 84.576 324.082 84.908 324.082 85.332C324.082 85.748 324.242 86.076 324.562 86.316C324.89 86.556 325.342 86.676 325.918 86.676ZM333.089 83.004C333.849 83.004 334.489 83.168 335.009 83.496C335.537 83.824 335.937 84.3 336.209 84.924C336.481 85.54 336.617 86.296 336.617 87.192C336.617 88.144 336.449 88.948 336.113 89.604C335.777 90.26 335.313 90.756 334.721 91.092C334.129 91.428 333.437 91.596 332.645 91.596C332.253 91.596 331.873 91.556 331.505 91.476C331.145 91.396 330.829 91.272 330.557 91.104L331.013 90.168C331.237 90.312 331.485 90.416 331.757 90.48C332.037 90.536 332.329 90.564 332.633 90.564C333.481 90.564 334.157 90.3 334.661 89.772C335.165 89.236 335.417 88.444 335.417 87.396C335.417 87.228 335.409 87.028 335.393 86.796C335.377 86.564 335.341 86.336 335.285 86.112L335.681 86.52C335.569 86.888 335.381 87.2 335.117 87.456C334.861 87.704 334.549 87.892 334.181 88.02C333.821 88.14 333.425 88.2 332.993 88.2C332.441 88.2 331.949 88.096 331.517 87.888C331.085 87.68 330.745 87.388 330.497 87.012C330.249 86.628 330.125 86.176 330.125 85.656C330.125 85.112 330.253 84.644 330.509 84.252C330.773 83.852 331.129 83.544 331.577 83.328C332.033 83.112 332.537 83.004 333.089 83.004ZM333.137 83.976C332.777 83.976 332.457 84.044 332.177 84.18C331.897 84.316 331.677 84.504 331.517 84.744C331.365 84.984 331.289 85.272 331.289 85.608C331.289 86.104 331.461 86.5 331.805 86.796C332.149 87.084 332.613 87.228 333.197 87.228C333.581 87.228 333.917 87.156 334.205 87.012C334.501 86.868 334.729 86.672 334.889 86.424C335.057 86.176 335.141 85.9 335.141 85.596C335.141 85.3 335.065 85.032 334.913 84.792C334.761 84.552 334.537 84.356 334.241 84.204C333.945 84.052 333.577 83.976 333.137 83.976ZM341.047 91.596C340.367 91.596 339.779 91.496 339.283 91.296C338.787 91.096 338.403 90.812 338.131 90.444C337.859 90.068 337.723 89.628 337.723 89.124C337.723 88.628 337.851 88.208 338.107 87.864C338.371 87.512 338.751 87.248 339.247 87.072C339.743 86.888 340.343 86.796 341.047 86.796C341.751 86.796 342.351 86.888 342.847 87.072C343.351 87.248 343.735 87.512 343.999 87.864C344.263 88.216 344.395 88.636 344.395 89.124C344.395 89.628 344.259 90.068 343.987 90.444C343.715 90.812 343.327 91.096 342.823 91.296C342.319 91.496 341.727 91.596 341.047 91.596ZM341.047 90.624C341.719 90.624 342.243 90.488 342.619 90.216C343.003 89.936 343.195 89.56 343.195 89.088C343.195 88.624 343.003 88.26 342.619 87.996C342.243 87.724 341.719 87.588 341.047 87.588C340.383 87.588 339.863 87.724 339.487 87.996C339.111 88.26 338.923 88.624 338.923 89.088C338.923 89.56 339.111 89.936 339.487 90.216C339.863 90.488 340.383 90.624 341.047 90.624ZM341.047 87.444C340.407 87.444 339.863 87.36 339.415 87.192C338.967 87.016 338.623 86.768 338.383 86.448C338.143 86.12 338.023 85.732 338.023 85.284C338.023 84.812 338.147 84.408 338.395 84.072C338.651 83.728 339.007 83.464 339.463 83.28C339.919 83.096 340.447 83.004 341.047 83.004C341.655 83.004 342.187 83.096 342.643 83.28C343.099 83.464 343.455 83.728 343.711 84.072C343.967 84.408 344.095 84.812 344.095 85.284C344.095 85.732 343.975 86.12 343.735 86.448C343.495 86.768 343.147 87.016 342.691 87.192C342.235 87.36 341.687 87.444 341.047 87.444ZM341.047 86.676C341.631 86.676 342.087 86.556 342.415 86.316C342.751 86.076 342.919 85.748 342.919 85.332C342.919 84.908 342.747 84.576 342.403 84.336C342.059 84.096 341.607 83.976 341.047 83.976C340.487 83.976 340.039 84.096 339.703 84.336C339.375 84.576 339.211 84.908 339.211 85.332C339.211 85.748 339.371 86.076 339.691 86.316C340.019 86.556 340.471 86.676 341.047 86.676ZM348.77 91.596C348.09 91.596 347.502 91.496 347.006 91.296C346.51 91.096 346.126 90.812 345.854 90.444C345.582 90.068 345.446 89.628 345.446 89.124C345.446 88.628 345.574 88.208 345.83 87.864C346.094 87.512 346.474 87.248 346.97 87.072C347.466 86.888 348.066 86.796 348.77 86.796C349.474 86.796 350.074 86.888 350.57 87.072C351.074 87.248 351.458 87.512 351.722 87.864C351.986 88.216 352.118 88.636 352.118 89.124C352.118 89.628 351.982 90.068 351.71 90.444C351.438 90.812 351.05 91.096 350.546 91.296C350.042 91.496 349.45 91.596 348.77 91.596ZM348.77 90.624C349.442 90.624 349.966 90.488 350.342 90.216C350.726 89.936 350.918 89.56 350.918 89.088C350.918 88.624 350.726 88.26 350.342 87.996C349.966 87.724 349.442 87.588 348.77 87.588C348.106 87.588 347.586 87.724 347.21 87.996C346.834 88.26 346.646 88.624 346.646 89.088C346.646 89.56 346.834 89.936 347.21 90.216C347.586 90.488 348.106 90.624 348.77 90.624ZM348.77 87.444C348.13 87.444 347.586 87.36 347.138 87.192C346.69 87.016 346.346 86.768 346.106 86.448C345.866 86.12 345.746 85.732 345.746 85.284C345.746 84.812 345.87 84.408 346.118 84.072C346.374 83.728 346.73 83.464 347.186 83.28C347.642 83.096 348.17 83.004 348.77 83.004C349.378 83.004 349.91 83.096 350.366 83.28C350.822 83.464 351.178 83.728 351.434 84.072C351.69 84.408 351.818 84.812 351.818 85.284C351.818 85.732 351.698 86.12 351.458 86.448C351.218 86.768 350.87 87.016 350.414 87.192C349.958 87.36 349.41 87.444 348.77 87.444ZM348.77 86.676C349.354 86.676 349.81 86.556 350.138 86.316C350.474 86.076 350.642 85.748 350.642 85.332C350.642 84.908 350.47 84.576 350.126 84.336C349.782 84.096 349.33 83.976 348.77 83.976C348.21 83.976 347.762 84.096 347.426 84.336C347.098 84.576 346.934 84.908 346.934 85.332C346.934 85.748 347.094 86.076 347.414 86.316C347.742 86.556 348.194 86.676 348.77 86.676Z" fill="#767676"/>
<path d="M16.734 111.47H11.748V113.936H16.092V115.286H11.748V119H10.02V110.12H16.734V111.47ZM17.6758 112.454H19.0618L19.1938 113.264H19.2778C19.5018 112.98 19.7918 112.762 20.1478 112.61C20.5038 112.454 20.8858 112.376 21.2938 112.376C21.5218 112.376 21.7338 112.394 21.9298 112.43V113.93C21.7338 113.894 21.4918 113.876 21.2038 113.876C20.8678 113.876 20.5298 113.936 20.1898 114.056C19.8498 114.176 19.5758 114.354 19.3678 114.59V119H17.6758V112.454ZM25.9343 119.12C25.2303 119.12 24.6183 118.992 24.0983 118.736C23.5783 118.48 23.1763 118.098 22.8923 117.59C22.6083 117.082 22.4663 116.462 22.4663 115.73C22.4663 114.998 22.6043 114.38 22.8803 113.876C23.1603 113.372 23.5583 112.992 24.0743 112.736C24.5943 112.48 25.2143 112.352 25.9343 112.352C26.6583 112.352 27.2783 112.48 27.7943 112.736C28.3143 112.988 28.7123 113.366 28.9883 113.87C29.2643 114.37 29.4023 114.99 29.4023 115.73C29.4023 116.454 29.2583 117.07 28.9703 117.578C28.6863 118.086 28.2823 118.47 27.7583 118.73C27.2383 118.99 26.6303 119.12 25.9343 119.12ZM25.9343 117.812C27.1223 117.812 27.7163 117.12 27.7163 115.736C27.7163 115.016 27.5643 114.492 27.2603 114.164C26.9563 113.832 26.5143 113.666 25.9343 113.666C25.3583 113.666 24.9163 113.83 24.6083 114.158C24.3043 114.486 24.1523 115.008 24.1523 115.724C24.1523 117.116 24.7463 117.812 25.9343 117.812ZM38.6346 112.352C39.3826 112.352 39.9686 112.574 40.3926 113.018C40.8166 113.458 41.0286 114.144 41.0286 115.076V119H39.3486V115.166C39.3486 114.674 39.2466 114.32 39.0426 114.104C38.8426 113.888 38.5586 113.78 38.1906 113.78C37.9146 113.78 37.6566 113.83 37.4166 113.93C37.1766 114.03 36.9666 114.182 36.7866 114.386C36.8146 114.582 36.8286 114.806 36.8286 115.058V119H35.1666V115.166C35.1666 114.67 35.0726 114.316 34.8846 114.104C34.6966 113.888 34.4206 113.78 34.0566 113.78C33.7726 113.78 33.5026 113.84 33.2466 113.96C32.9906 114.08 32.7706 114.254 32.5866 114.482V119H30.8946V112.454H32.2866L32.3946 113.138H32.4786C32.7386 112.886 33.0446 112.692 33.3966 112.556C33.7486 112.42 34.1286 112.352 34.5366 112.352C34.9446 112.352 35.3066 112.426 35.6226 112.574C35.9386 112.722 36.1946 112.946 36.3906 113.246C36.7226 112.934 37.0806 112.708 37.4646 112.568C37.8486 112.424 38.2386 112.352 38.6346 112.352ZM43.6231 119.09C43.2791 119.09 43.0071 119.002 42.8071 118.826C42.6111 118.646 42.5131 118.402 42.5131 118.094C42.5131 117.782 42.6111 117.536 42.8071 117.356C43.0031 117.176 43.2751 117.086 43.6231 117.086C43.9711 117.086 44.2431 117.178 44.4391 117.362C44.6351 117.542 44.7331 117.786 44.7331 118.094C44.7331 118.398 44.6331 118.64 44.4331 118.82C44.2371 119 43.9671 119.09 43.6231 119.09ZM43.6231 114.368C43.2791 114.368 43.0071 114.28 42.8071 114.104C42.6111 113.924 42.5131 113.68 42.5131 113.372C42.5131 113.06 42.6111 112.814 42.8071 112.634C43.0031 112.454 43.2751 112.364 43.6231 112.364C43.9711 112.364 44.2431 112.456 44.4391 112.64C44.6351 112.82 44.7331 113.064 44.7331 113.372C44.7331 113.676 44.6331 113.918 44.4331 114.098C44.2371 114.278 43.9671 114.368 43.6231 114.368ZM46.395 110.288C46.867 110.196 47.333 110.128 47.793 110.084C48.253 110.04 48.739 110.018 49.251 110.018C50.639 110.018 51.679 110.272 52.371 110.78C53.063 111.288 53.409 112.08 53.409 113.156C53.409 115.26 52.031 116.312 49.275 116.312C48.975 116.312 48.591 116.298 48.123 116.27V119H46.395V110.288ZM49.287 115.076C49.863 115.076 50.329 115.008 50.685 114.872C51.045 114.736 51.307 114.528 51.471 114.248C51.639 113.968 51.723 113.606 51.723 113.162C51.723 112.502 51.533 112.02 51.153 111.716C50.777 111.408 50.193 111.254 49.401 111.254C48.949 111.254 48.523 111.288 48.123 111.356V114.998C48.491 115.05 48.879 115.076 49.287 115.076ZM57.0616 112.352C57.8096 112.352 58.4136 112.438 58.8736 112.61C59.3376 112.782 59.6816 113.068 59.9056 113.468C60.1336 113.868 60.2476 114.414 60.2476 115.106V119H58.8376L58.7236 118.34H58.6396C58.3996 118.588 58.0996 118.78 57.7396 118.916C57.3796 119.048 56.9936 119.114 56.5816 119.114C56.0816 119.114 55.6556 119.036 55.3036 118.88C54.9556 118.724 54.6916 118.506 54.5116 118.226C54.3316 117.946 54.2416 117.62 54.2416 117.248C54.2416 116.648 54.4716 116.184 54.9316 115.856C55.3916 115.524 56.1196 115.322 57.1156 115.25L58.5916 115.112V114.98C58.5916 114.624 58.5296 114.348 58.4056 114.152C58.2816 113.952 58.0896 113.81 57.8296 113.726C57.5736 113.642 57.2276 113.6 56.7916 113.6C56.4876 113.6 56.1556 113.626 55.7956 113.678C55.4396 113.726 55.1016 113.8 54.7816 113.9V112.67C55.1176 112.566 55.4876 112.488 55.8916 112.436C56.2996 112.38 56.6896 112.352 57.0616 112.352ZM57.0796 117.98C57.3556 117.98 57.6236 117.934 57.8836 117.842C58.1436 117.75 58.3796 117.612 58.5916 117.428V116.066L57.2536 116.186C56.7776 116.234 56.4376 116.334 56.2336 116.486C56.0296 116.634 55.9276 116.844 55.9276 117.116C55.9276 117.388 56.0236 117.6 56.2156 117.752C56.4076 117.904 56.6956 117.98 57.0796 117.98ZM62.0078 112.454H63.3998L63.5078 113.138H63.5918C63.8878 112.886 64.2298 112.692 64.6178 112.556C65.0098 112.42 65.4238 112.352 65.8598 112.352C66.6558 112.352 67.2818 112.576 67.7378 113.024C68.1938 113.468 68.4218 114.16 68.4218 115.1V119H66.7298V115.178C66.7298 114.678 66.6178 114.32 66.3938 114.104C66.1738 113.888 65.8458 113.78 65.4098 113.78C65.0978 113.78 64.7878 113.838 64.4798 113.954C64.1758 114.07 63.9158 114.242 63.6998 114.47V119H62.0078V112.454ZM73.7158 117.758C73.9398 117.758 74.2178 117.726 74.5498 117.662V118.976C74.1218 119.072 73.6918 119.12 73.2598 119.12C72.4158 119.12 71.7738 118.918 71.3338 118.514C70.8978 118.11 70.6798 117.5 70.6798 116.684V113.798H69.4318V112.454H70.6798L70.9798 110.12H72.3718V112.454H74.4838V113.798H72.3718V116.366C72.3718 116.87 72.4798 117.228 72.6958 117.44C72.9118 117.652 73.2518 117.758 73.7158 117.758ZM75.6953 112.454H77.0813L77.2133 113.264H77.2973C77.5213 112.98 77.8113 112.762 78.1673 112.61C78.5233 112.454 78.9053 112.376 79.3133 112.376C79.5413 112.376 79.7533 112.394 79.9493 112.43V113.93C79.7533 113.894 79.5113 113.876 79.2233 113.876C78.8873 113.876 78.5493 113.936 78.2093 114.056C77.8693 114.176 77.5953 114.354 77.3873 114.59V119H75.6953V112.454ZM86.3618 112.454H88.0238L84.1178 121.64H82.4558L83.5838 119H83.1758L80.4038 112.454H82.1978L84.2618 117.602L86.3618 112.454Z" fill="#767676"/>
<path d="M273.336 119V111.494H270.126V110.12H278.274V111.494H275.064V119H273.336ZM281.427 119.12C280.723 119.12 280.111 118.992 279.591 118.736C279.071 118.48 278.669 118.098 278.385 117.59C278.101 117.082 277.959 116.462 277.959 115.73C277.959 114.998 278.097 114.38 278.373 113.876C278.653 113.372 279.051 112.992 279.567 112.736C280.087 112.48 280.707 112.352 281.427 112.352C282.151 112.352 282.771 112.48 283.287 112.736C283.807 112.988 284.205 113.366 284.481 113.87C284.757 114.37 284.895 114.99 284.895 115.73C284.895 116.454 284.751 117.07 284.463 117.578C284.179 118.086 283.775 118.47 283.251 118.73C282.731 118.99 282.123 119.12 281.427 119.12ZM281.427 117.812C282.615 117.812 283.209 117.12 283.209 115.736C283.209 115.016 283.057 114.492 282.753 114.164C282.449 113.832 282.007 113.666 281.427 113.666C280.851 113.666 280.409 113.83 280.101 114.158C279.797 114.486 279.645 115.008 279.645 115.724C279.645 117.116 280.239 117.812 281.427 117.812ZM287.221 119.09C286.877 119.09 286.605 119.002 286.405 118.826C286.209 118.646 286.111 118.402 286.111 118.094C286.111 117.782 286.209 117.536 286.405 117.356C286.601 117.176 286.873 117.086 287.221 117.086C287.569 117.086 287.841 117.178 288.037 117.362C288.233 117.542 288.331 117.786 288.331 118.094C288.331 118.398 288.231 118.64 288.031 118.82C287.835 119 287.565 119.09 287.221 119.09ZM287.221 114.368C286.877 114.368 286.605 114.28 286.405 114.104C286.209 113.924 286.111 113.68 286.111 113.372C286.111 113.06 286.209 112.814 286.405 112.634C286.601 112.454 286.873 112.364 287.221 112.364C287.569 112.364 287.841 112.456 288.037 112.64C288.233 112.82 288.331 113.064 288.331 113.372C288.331 113.676 288.231 113.918 288.031 114.098C287.835 114.278 287.565 114.368 287.221 114.368ZM295.795 119L293.149 115.61H292.939C292.567 115.61 292.151 115.594 291.691 115.562V119H289.993V110.348C290.425 110.248 290.901 110.168 291.421 110.108C291.941 110.048 292.451 110.018 292.951 110.018C294.303 110.018 295.309 110.242 295.969 110.69C296.633 111.134 296.965 111.836 296.965 112.796C296.965 113.456 296.787 114.004 296.431 114.44C296.075 114.872 295.555 115.184 294.871 115.376L297.727 119H295.795ZM291.691 114.296C292.147 114.344 292.587 114.368 293.011 114.368C293.823 114.368 294.415 114.244 294.787 113.996C295.163 113.744 295.351 113.348 295.351 112.808C295.351 112.432 295.271 112.13 295.111 111.902C294.955 111.674 294.711 111.508 294.379 111.404C294.051 111.3 293.621 111.248 293.089 111.248C292.625 111.248 292.159 111.292 291.691 111.38V114.296ZM304.451 116.204H299.783C299.807 116.608 299.901 116.934 300.065 117.182C300.233 117.426 300.489 117.606 300.833 117.722C301.177 117.834 301.633 117.89 302.201 117.89C302.757 117.89 303.377 117.812 304.061 117.656V118.874C303.365 119.038 302.663 119.12 301.955 119.12C300.655 119.12 299.687 118.846 299.051 118.298C298.419 117.746 298.103 116.894 298.103 115.742C298.103 115.03 298.229 114.42 298.481 113.912C298.737 113.404 299.109 113.018 299.597 112.754C300.089 112.486 300.679 112.352 301.367 112.352C302.367 112.352 303.131 112.65 303.659 113.246C304.187 113.842 304.451 114.69 304.451 115.79V116.204ZM301.337 113.414C300.837 113.414 300.455 113.564 300.191 113.864C299.931 114.16 299.793 114.62 299.777 115.244H302.879C302.863 114.62 302.727 114.16 302.471 113.864C302.215 113.564 301.837 113.414 301.337 113.414ZM309.164 119.12C307.972 119.12 307.06 118.834 306.428 118.262C305.8 117.69 305.486 116.85 305.486 115.742C305.486 114.634 305.814 113.792 306.47 113.216C307.13 112.64 308.09 112.352 309.35 112.352C309.982 112.352 310.55 112.418 311.054 112.55V113.864C310.766 113.804 310.5 113.76 310.256 113.732C310.016 113.704 309.766 113.69 309.506 113.69C308.722 113.69 308.144 113.856 307.772 114.188C307.404 114.516 307.22 115.03 307.22 115.73C307.22 116.426 307.398 116.942 307.754 117.278C308.11 117.614 308.638 117.782 309.338 117.782C309.598 117.782 309.862 117.762 310.13 117.722C310.398 117.682 310.706 117.614 311.054 117.518V118.838C310.482 119.026 309.852 119.12 309.164 119.12ZM318.232 116.204H313.564C313.588 116.608 313.682 116.934 313.846 117.182C314.014 117.426 314.27 117.606 314.614 117.722C314.958 117.834 315.414 117.89 315.982 117.89C316.538 117.89 317.158 117.812 317.842 117.656V118.874C317.146 119.038 316.444 119.12 315.736 119.12C314.436 119.12 313.468 118.846 312.832 118.298C312.2 117.746 311.884 116.894 311.884 115.742C311.884 115.03 312.01 114.42 312.262 113.912C312.518 113.404 312.89 113.018 313.378 112.754C313.87 112.486 314.46 112.352 315.148 112.352C316.148 112.352 316.912 112.65 317.44 113.246C317.968 113.842 318.232 114.69 318.232 115.79V116.204ZM315.118 113.414C314.618 113.414 314.236 113.564 313.972 113.864C313.712 114.16 313.574 114.62 313.558 115.244H316.66C316.644 114.62 316.508 114.16 316.252 113.864C315.996 113.564 315.618 113.414 315.118 113.414ZM319.621 112.454H321.037L321.139 113.168H321.217C321.473 112.912 321.779 112.712 322.135 112.568C322.495 112.424 322.889 112.352 323.317 112.352C323.901 112.352 324.419 112.466 324.871 112.694C325.327 112.918 325.687 113.272 325.951 113.756C326.219 114.24 326.353 114.852 326.353 115.592C326.353 116.348 326.205 116.99 325.909 117.518C325.617 118.046 325.187 118.446 324.619 118.718C324.055 118.986 323.373 119.12 322.573 119.12C322.249 119.12 321.829 119.09 321.313 119.03V121.64H319.621V112.454ZM322.477 117.83C323.217 117.83 323.767 117.656 324.127 117.308C324.487 116.96 324.667 116.428 324.667 115.712C324.667 114.38 324.071 113.714 322.879 113.714C322.579 113.714 322.293 113.766 322.021 113.87C321.749 113.974 321.513 114.138 321.313 114.362V117.704C321.677 117.788 322.065 117.83 322.477 117.83ZM331.153 117.758C331.377 117.758 331.655 117.726 331.987 117.662V118.976C331.559 119.072 331.129 119.12 330.697 119.12C329.853 119.12 329.211 118.918 328.771 118.514C328.335 118.11 328.117 117.5 328.117 116.684V113.798H326.869V112.454H328.117L328.417 110.12H329.809V112.454H331.921V113.798H329.809V116.366C329.809 116.87 329.917 117.228 330.133 117.44C330.349 117.652 330.689 117.758 331.153 117.758ZM333.18 119V112.454H334.872V119H333.18ZM334.026 111.338C333.674 111.338 333.408 111.266 333.228 111.122C333.052 110.974 332.964 110.76 332.964 110.48C332.964 110.2 333.052 109.986 333.228 109.838C333.408 109.69 333.674 109.616 334.026 109.616C334.378 109.616 334.642 109.69 334.818 109.838C334.998 109.986 335.088 110.2 335.088 110.48C335.088 110.76 334.998 110.974 334.818 111.122C334.642 111.266 334.378 111.338 334.026 111.338ZM339.821 119.12C339.117 119.12 338.505 118.992 337.985 118.736C337.465 118.48 337.063 118.098 336.779 117.59C336.495 117.082 336.353 116.462 336.353 115.73C336.353 114.998 336.491 114.38 336.767 113.876C337.047 113.372 337.445 112.992 337.961 112.736C338.481 112.48 339.101 112.352 339.821 112.352C340.545 112.352 341.165 112.48 341.681 112.736C342.201 112.988 342.599 113.366 342.875 113.87C343.151 114.37 343.289 114.99 343.289 115.73C343.289 116.454 343.145 117.07 342.857 117.578C342.573 118.086 342.169 118.47 341.645 118.73C341.125 118.99 340.517 119.12 339.821 119.12ZM339.821 117.812C341.009 117.812 341.603 117.12 341.603 115.736C341.603 115.016 341.451 114.492 341.147 114.164C340.843 113.832 340.401 113.666 339.821 113.666C339.245 113.666 338.803 113.83 338.495 114.158C338.191 114.486 338.039 115.008 338.039 115.724C338.039 117.116 338.633 117.812 339.821 117.812ZM344.781 112.454H346.173L346.281 113.138H346.365C346.661 112.886 347.003 112.692 347.391 112.556C347.783 112.42 348.197 112.352 348.633 112.352C349.429 112.352 350.055 112.576 350.511 113.024C350.967 113.468 351.195 114.16 351.195 115.1V119H349.503V115.178C349.503 114.678 349.391 114.32 349.167 114.104C348.947 113.888 348.619 113.78 348.183 113.78C347.871 113.78 347.561 113.838 347.253 113.954C346.949 114.07 346.689 114.242 346.473 114.47V119H344.781V112.454Z" fill="#767676"/>
<path d="M9 152C9 142.059 17.0589 134 27 134H335C344.941 134 353 142.059 353 152C353 161.941 344.941 170 335 170H27C17.0589 170 9 161.941 9 152Z" fill="#CC2610"/>
<path d="M141 143.667C136.4 143.667 132.667 147.4 132.667 152C132.667 156.6 136.4 160.333 141 160.333C145.6 160.333 149.333 156.6 149.333 152C149.333 147.4 145.6 143.667 141 143.667ZM141 158.667C137.325 158.667 134.333 155.675 134.333 152C134.333 148.325 137.325 145.333 141 145.333C144.675 145.333 147.667 148.325 147.667 152C147.667 155.675 144.675 158.667 141 158.667ZM144.825 148.317L139.333 153.808L137.175 151.658L136 152.833L139.333 156.167L146 149.5L144.825 148.317Z" fill="#FFECE2"/>
<path d="M166.716 147.62H168V156.5H166.62L161.382 149.492V156.5H160.098V147.62H161.478L166.716 154.628V147.62ZM173.02 156.62C172.352 156.62 171.77 156.494 171.274 156.242C170.782 155.99 170.4 155.612 170.128 155.108C169.86 154.604 169.726 153.98 169.726 153.236C169.726 152.5 169.858 151.882 170.122 151.382C170.39 150.878 170.77 150.5 171.262 150.248C171.754 149.996 172.34 149.87 173.02 149.87C174.06 149.87 174.868 150.154 175.444 150.722C176.02 151.286 176.308 152.124 176.308 153.236C176.308 153.968 176.172 154.588 175.9 155.096C175.628 155.6 175.244 155.98 174.748 156.236C174.256 156.492 173.68 156.62 173.02 156.62ZM173.02 155.564C174.324 155.564 174.976 154.79 174.976 153.242C174.976 152.438 174.808 151.852 174.472 151.484C174.136 151.112 173.652 150.926 173.02 150.926C172.388 150.926 171.902 151.11 171.562 151.478C171.226 151.846 171.058 152.43 171.058 153.23C171.058 154.786 171.712 155.564 173.02 155.564ZM180.973 155.528C181.101 155.528 181.231 155.52 181.363 155.504C181.495 155.488 181.659 155.46 181.855 155.42V156.476C181.447 156.572 181.041 156.62 180.637 156.62C179.833 156.62 179.221 156.424 178.801 156.032C178.381 155.64 178.171 155.048 178.171 154.256V151.046H176.869V149.972H178.171L178.399 147.62H179.503V149.972H181.765V151.046H179.503V154.01C179.503 154.55 179.623 154.938 179.863 155.174C180.103 155.41 180.473 155.528 180.973 155.528ZM183.053 156.5V149.972H184.385V156.5H183.053ZM183.719 148.7C183.435 148.7 183.219 148.638 183.071 148.514C182.927 148.39 182.854 148.212 182.854 147.98C182.854 147.744 182.927 147.564 183.071 147.44C183.219 147.312 183.435 147.248 183.719 147.248C184.003 147.248 184.217 147.312 184.361 147.44C184.509 147.564 184.583 147.744 184.583 147.98C184.583 148.212 184.509 148.39 184.361 148.514C184.217 148.638 184.003 148.7 183.719 148.7ZM189.909 147.752C189.321 147.752 188.891 147.878 188.619 148.13C188.347 148.378 188.211 148.784 188.211 149.348V149.972H190.473V151.046H188.211V156.5H186.879V151.046H185.577V149.972H186.879V149.408C186.879 148.528 187.123 147.854 187.611 147.386C188.103 146.918 188.811 146.684 189.735 146.684C190.051 146.684 190.395 146.71 190.767 146.762V147.824C190.475 147.776 190.189 147.752 189.909 147.752ZM196.167 149.972H197.481L193.527 159.14H192.207L193.353 156.5H193.029L190.221 149.972H191.637L193.881 155.426L196.167 149.972ZM204.277 156.614C203.341 156.614 202.467 156.48 201.655 156.212V155.108C202.063 155.244 202.501 155.348 202.969 155.42C203.441 155.492 203.883 155.528 204.295 155.528C205.067 155.528 205.633 155.406 205.993 155.162C206.357 154.914 206.539 154.55 206.539 154.07C206.539 153.802 206.479 153.582 206.359 153.41C206.243 153.234 206.055 153.088 205.795 152.972C205.535 152.856 205.179 152.754 204.727 152.666L204.127 152.546C203.207 152.366 202.537 152.076 202.117 151.676C201.697 151.276 201.487 150.742 201.487 150.074C201.487 149.258 201.795 148.626 202.411 148.178C203.031 147.73 203.941 147.506 205.141 147.506C205.981 147.506 206.755 147.608 207.463 147.812V148.922C207.115 148.818 206.743 148.738 206.347 148.682C205.951 148.622 205.555 148.592 205.159 148.592C203.611 148.592 202.837 149.068 202.837 150.02C202.837 150.284 202.889 150.504 202.993 150.68C203.097 150.852 203.267 150.996 203.503 151.112C203.739 151.228 204.063 151.328 204.475 151.412L205.075 151.526C205.747 151.658 206.289 151.834 206.701 152.054C207.117 152.274 207.419 152.544 207.607 152.864C207.795 153.184 207.889 153.564 207.889 154.004C207.889 154.552 207.747 155.022 207.463 155.414C207.179 155.806 206.765 156.104 206.221 156.308C205.681 156.512 205.033 156.614 204.277 156.614ZM212.567 155.528C212.695 155.528 212.825 155.52 212.957 155.504C213.089 155.488 213.253 155.46 213.449 155.42V156.476C213.041 156.572 212.635 156.62 212.231 156.62C211.427 156.62 210.815 156.424 210.395 156.032C209.975 155.64 209.765 155.048 209.765 154.256V151.046H208.463V149.972H209.765L209.993 147.62H211.097V149.972H213.359V151.046H211.097V154.01C211.097 154.55 211.217 154.938 211.457 155.174C211.697 155.41 212.067 155.528 212.567 155.528ZM216.933 149.87C217.621 149.87 218.181 149.952 218.613 150.116C219.045 150.276 219.369 150.544 219.585 150.92C219.801 151.296 219.909 151.808 219.909 152.456V156.5H218.793L218.697 155.798H218.625C218.381 156.054 218.073 156.254 217.701 156.398C217.329 156.538 216.933 156.608 216.513 156.608C216.033 156.608 215.623 156.534 215.283 156.386C214.943 156.234 214.685 156.022 214.509 155.75C214.333 155.478 214.245 155.158 214.245 154.79C214.245 154.21 214.461 153.762 214.893 153.446C215.329 153.126 216.021 152.924 216.969 152.84L218.601 152.678V152.366C218.601 151.982 218.535 151.682 218.403 151.466C218.271 151.25 218.071 151.098 217.803 151.01C217.539 150.922 217.187 150.878 216.747 150.878C216.443 150.878 216.113 150.904 215.757 150.956C215.405 151.008 215.067 151.086 214.743 151.19V150.194C215.063 150.09 215.417 150.01 215.805 149.954C216.197 149.898 216.573 149.87 216.933 149.87ZM216.867 155.684C217.187 155.684 217.497 155.628 217.797 155.516C218.097 155.4 218.365 155.228 218.601 155V153.47L217.071 153.62C216.539 153.68 216.159 153.796 215.931 153.968C215.703 154.136 215.589 154.376 215.589 154.688C215.589 155.004 215.695 155.25 215.907 155.426C216.119 155.598 216.439 155.684 216.867 155.684ZM225.346 147.752C224.758 147.752 224.328 147.878 224.056 148.13C223.784 148.378 223.648 148.784 223.648 149.348V149.972H225.91V151.046H223.648V156.5H222.316V151.046H221.014V149.972H222.316V149.408C222.316 148.528 222.56 147.854 223.048 147.386C223.54 146.918 224.248 146.684 225.172 146.684C225.488 146.684 225.832 146.71 226.204 146.762V147.824C225.912 147.776 225.626 147.752 225.346 147.752ZM230.022 147.752C229.434 147.752 229.004 147.878 228.732 148.13C228.46 148.378 228.324 148.784 228.324 149.348V149.972H230.586V151.046H228.324V156.5H226.992V151.046H225.69V149.972H226.992V149.408C226.992 148.528 227.236 147.854 227.724 147.386C228.216 146.918 228.924 146.684 229.848 146.684C230.164 146.684 230.508 146.71 230.88 146.762V147.824C230.588 147.776 230.302 147.752 230.022 147.752Z" fill="#FFECE2"/>
</svg>
