<svg width="14" height="15" viewBox="0 0 14 15" fill="none" xmlns="http://www.w3.org/2000/svg">
<path d="M6.99331 0.833374C3.31331 0.833374 0.333313 3.82004 0.333313 7.50004C0.333313 11.18 3.31331 14.1667 6.99331 14.1667C10.68 14.1667 13.6666 11.18 13.6666 7.50004C13.6666 3.82004 10.68 0.833374 6.99331 0.833374ZM6.99998 12.8334C4.05331 12.8334 1.66665 10.4467 1.66665 7.50004C1.66665 4.55337 4.05331 2.16671 6.99998 2.16671C9.94665 2.16671 12.3333 4.55337 12.3333 7.50004C12.3333 10.4467 9.94665 12.8334 6.99998 12.8334ZM7.33331 4.16671H6.33331V8.16671L9.83331 10.2667L10.3333 9.44671L7.33331 7.66671V4.16671Z" fill="#00A441"/>
</svg>
