<svg width="70" height="23" viewBox="0 0 70 23" fill="none" xmlns="http://www.w3.org/2000/svg">
<rect width="70" height="23" rx="11.5" fill="#F7F7F7"/>
<path d="M13.052 16.096C12.412 16.096 11.816 15.988 11.264 15.772C10.72 15.556 10.248 15.256 9.848 14.872C9.448 14.48 9.136 14.024 8.912 13.504C8.688 12.984 8.576 12.416 8.576 11.8C8.576 11.184 8.688 10.616 8.912 10.096C9.136 9.576 9.448 9.124 9.848 8.74C10.248 8.348 10.72 8.044 11.264 7.828C11.808 7.612 12.404 7.504 13.052 7.504C13.692 7.504 14.28 7.612 14.816 7.828C15.36 8.036 15.832 8.336 16.232 8.728C16.64 9.112 16.952 9.564 17.168 10.084C17.392 10.604 17.504 11.176 17.504 11.8C17.504 12.424 17.392 12.996 17.168 13.516C16.952 14.036 16.64 14.492 16.232 14.884C15.832 15.268 15.36 15.568 14.816 15.784C14.28 15.992 13.692 16.096 13.052 16.096ZM13.052 15.028C13.516 15.028 13.944 14.948 14.336 14.788C14.736 14.628 15.08 14.404 15.368 14.116C15.664 13.82 15.892 13.476 16.052 13.084C16.22 12.692 16.304 12.264 16.304 11.8C16.304 11.336 16.22 10.908 16.052 10.516C15.892 10.124 15.664 9.784 15.368 9.496C15.08 9.2 14.736 8.972 14.336 8.812C13.944 8.652 13.516 8.572 13.052 8.572C12.58 8.572 12.144 8.652 11.744 8.812C11.352 8.972 11.008 9.2 10.712 9.496C10.416 9.784 10.184 10.124 10.016 10.516C9.856 10.908 9.776 11.336 9.776 11.8C9.776 12.264 9.856 12.692 10.016 13.084C10.184 13.476 10.416 13.82 10.712 14.116C11.008 14.404 11.352 14.628 11.744 14.788C12.144 14.948 12.58 15.028 13.052 15.028ZM22.5661 9.58C23.0861 9.58 23.5421 9.68 23.9341 9.88C24.3341 10.08 24.6461 10.384 24.8701 10.792C25.0941 11.2 25.2061 11.716 25.2061 12.34V16H24.0541V12.472C24.0541 11.856 23.9021 11.392 23.5981 11.08C23.3021 10.768 22.8821 10.612 22.3381 10.612C21.9301 10.612 21.5741 10.692 21.2701 10.852C20.9661 11.012 20.7301 11.248 20.5621 11.56C20.4021 11.872 20.3221 12.26 20.3221 12.724V16H19.1701V9.64H20.2741V11.356L20.0941 10.9C20.3021 10.484 20.6221 10.16 21.0541 9.928C21.4861 9.696 21.9901 9.58 22.5661 9.58ZM30.1221 18.4C29.5381 18.4 28.9701 18.316 28.4181 18.148C27.8741 17.988 27.4301 17.756 27.0861 17.452L27.6381 16.564C27.9341 16.82 28.2981 17.02 28.7301 17.164C29.1621 17.316 29.6141 17.392 30.0861 17.392C30.8381 17.392 31.3901 17.216 31.7421 16.864C32.0941 16.512 32.2701 15.976 32.2701 15.256V13.912L32.3901 12.652L32.3301 11.38V9.64H33.4221V15.136C33.4221 16.256 33.1421 17.08 32.5821 17.608C32.0221 18.136 31.2021 18.4 30.1221 18.4ZM29.9781 15.736C29.3621 15.736 28.8101 15.608 28.3221 15.352C27.8421 15.088 27.4581 14.724 27.1701 14.26C26.8901 13.796 26.7501 13.26 26.7501 12.652C26.7501 12.036 26.8901 11.5 27.1701 11.044C27.4581 10.58 27.8421 10.22 28.3221 9.964C28.8101 9.708 29.3621 9.58 29.9781 9.58C30.5221 9.58 31.0181 9.692 31.4661 9.916C31.9141 10.132 32.2701 10.468 32.5341 10.924C32.8061 11.38 32.9421 11.956 32.9421 12.652C32.9421 13.34 32.8061 13.912 32.5341 14.368C32.2701 14.824 31.9141 15.168 31.4661 15.4C31.0181 15.624 30.5221 15.736 29.9781 15.736ZM30.1101 14.728C30.5341 14.728 30.9101 14.64 31.2381 14.464C31.5661 14.288 31.8221 14.044 32.0061 13.732C32.1981 13.42 32.2941 13.06 32.2941 12.652C32.2941 12.244 32.1981 11.884 32.0061 11.572C31.8221 11.26 31.5661 11.02 31.2381 10.852C30.9101 10.676 30.5341 10.588 30.1101 10.588C29.6861 10.588 29.3061 10.676 28.9701 10.852C28.6421 11.02 28.3821 11.26 28.1901 11.572C28.0061 11.884 27.9141 12.244 27.9141 12.652C27.9141 13.06 28.0061 13.42 28.1901 13.732C28.3821 14.044 28.6421 14.288 28.9701 14.464C29.3061 14.64 29.6861 14.728 30.1101 14.728ZM38.3473 16.072C37.7073 16.072 37.1393 15.932 36.6433 15.652C36.1473 15.372 35.7553 14.988 35.4673 14.5C35.1793 14.004 35.0353 13.444 35.0353 12.82C35.0353 12.188 35.1793 11.628 35.4673 11.14C35.7553 10.652 36.1473 10.272 36.6433 10C37.1393 9.72 37.7073 9.58 38.3473 9.58C38.9793 9.58 39.5433 9.72 40.0393 10C40.5433 10.272 40.9353 10.652 41.2153 11.14C41.5033 11.62 41.6473 12.18 41.6473 12.82C41.6473 13.452 41.5033 14.012 41.2153 14.5C40.9353 14.988 40.5433 15.372 40.0393 15.652C39.5433 15.932 38.9793 16.072 38.3473 16.072ZM38.3473 15.064C38.7553 15.064 39.1193 14.972 39.4393 14.788C39.7673 14.604 40.0233 14.344 40.2073 14.008C40.3913 13.664 40.4833 13.268 40.4833 12.82C40.4833 12.364 40.3913 11.972 40.2073 11.644C40.0233 11.308 39.7673 11.048 39.4393 10.864C39.1193 10.68 38.7553 10.588 38.3473 10.588C37.9393 10.588 37.5753 10.68 37.2553 10.864C36.9353 11.048 36.6793 11.308 36.4873 11.644C36.2953 11.972 36.1993 12.364 36.1993 12.82C36.1993 13.268 36.2953 13.664 36.4873 14.008C36.6793 14.344 36.9353 14.604 37.2553 14.788C37.5753 14.972 37.9393 15.064 38.3473 15.064ZM43.2404 16V9.64H44.3924V16H43.2404ZM43.8164 8.416C43.5924 8.416 43.4044 8.344 43.2524 8.2C43.1084 8.056 43.0364 7.88 43.0364 7.672C43.0364 7.456 43.1084 7.276 43.2524 7.132C43.4044 6.988 43.5924 6.916 43.8164 6.916C44.0404 6.916 44.2244 6.988 44.3684 7.132C44.5204 7.268 44.5964 7.44 44.5964 7.648C44.5964 7.864 44.5244 8.048 44.3804 8.2C44.2364 8.344 44.0484 8.416 43.8164 8.416ZM49.988 9.58C50.508 9.58 50.964 9.68 51.356 9.88C51.756 10.08 52.068 10.384 52.292 10.792C52.516 11.2 52.628 11.716 52.628 12.34V16H51.476V12.472C51.476 11.856 51.324 11.392 51.02 11.08C50.724 10.768 50.304 10.612 49.76 10.612C49.352 10.612 48.996 10.692 48.692 10.852C48.388 11.012 48.152 11.248 47.984 11.56C47.824 11.872 47.744 12.26 47.744 12.724V16H46.592V9.64H47.696V11.356L47.516 10.9C47.724 10.484 48.044 10.16 48.476 9.928C48.908 9.696 49.412 9.58 49.988 9.58ZM57.544 18.4C56.96 18.4 56.392 18.316 55.84 18.148C55.296 17.988 54.852 17.756 54.508 17.452L55.06 16.564C55.356 16.82 55.72 17.02 56.152 17.164C56.584 17.316 57.036 17.392 57.508 17.392C58.26 17.392 58.812 17.216 59.164 16.864C59.516 16.512 59.692 15.976 59.692 15.256V13.912L59.812 12.652L59.752 11.38V9.64H60.844V15.136C60.844 16.256 60.564 17.08 60.004 17.608C59.444 18.136 58.624 18.4 57.544 18.4ZM57.4 15.736C56.784 15.736 56.232 15.608 55.744 15.352C55.264 15.088 54.88 14.724 54.592 14.26C54.312 13.796 54.172 13.26 54.172 12.652C54.172 12.036 54.312 11.5 54.592 11.044C54.88 10.58 55.264 10.22 55.744 9.964C56.232 9.708 56.784 9.58 57.4 9.58C57.944 9.58 58.44 9.692 58.888 9.916C59.336 10.132 59.692 10.468 59.956 10.924C60.228 11.38 60.364 11.956 60.364 12.652C60.364 13.34 60.228 13.912 59.956 14.368C59.692 14.824 59.336 15.168 58.888 15.4C58.44 15.624 57.944 15.736 57.4 15.736ZM57.532 14.728C57.956 14.728 58.332 14.64 58.66 14.464C58.988 14.288 59.244 14.044 59.428 13.732C59.62 13.42 59.716 13.06 59.716 12.652C59.716 12.244 59.62 11.884 59.428 11.572C59.244 11.26 58.988 11.02 58.66 10.852C58.332 10.676 57.956 10.588 57.532 10.588C57.108 10.588 56.728 10.676 56.392 10.852C56.064 11.02 55.804 11.26 55.612 11.572C55.428 11.884 55.336 12.244 55.336 12.652C55.336 13.06 55.428 13.42 55.612 13.732C55.804 14.044 56.064 14.288 56.392 14.464C56.728 14.64 57.108 14.728 57.532 14.728Z" fill="#F1AE11"/>
</svg>
