<svg width="24" height="21" viewBox="0 0 24 21" fill="none" xmlns="http://www.w3.org/2000/svg">
<path d="M14.2473 9.49247L12 8.47626L14.2473 7.46004L15.2727 5.23302L16.2982 7.46004L18.5455 8.47626L16.2982 9.49247L15.2727 11.7195L14.2473 9.49247ZM3.27273 13.8817L4.29818 11.6546L6.54545 10.6384L4.29818 9.6222L3.27273 7.39518L2.24727 9.6222L0 10.6384L2.24727 11.6546L3.27273 13.8817ZM8.18182 8.47626L9.37091 5.87085L12 4.69248L9.37091 3.5141L8.18182 0.908691L6.99273 3.5141L4.36364 4.69248L6.99273 5.87085L8.18182 8.47626ZM3.81818 20.9087L10.3636 14.4114L14.7273 18.7357L24 8.40058L22.4618 6.87626L14.7273 15.4925L10.3636 11.1681L2.18182 19.2871L3.81818 20.9087Z" fill="#1A0A02"/>
</svg>
